<?xml version="1.0" encoding="UTF-8"?><svg id="Layer_2" xmlns="http://www.w3.org/2000/svg" viewBox="0 0 146.48 130.67"><g id="Layer_1-2"><g id="layer2"><path d="M80.48,93.19c.5,.41,1.12,.63,1.76,.63,.35,0,.71-.07,1.05-.21,.18-.07,.35-.16,.5-.27h0c-.52,.42-1.04,.63-1.56,.63-.58,0-1.17-.26-1.76-.79h0Zm-43.69,9.42l-.75,.11h0s.05-.02,.09-.02l.67-.08Zm-.78,14.65h0c.2,.26,.45,.49,.74,.66h0c-.28-.15-.53-.37-.74-.66h0Zm29.93-62.29c-1.14,0-2.21,.71-2.61,1.85l-5.9,16.69h0l-5.39,10h0c-9.66,10.34-15.16,16.8-16.5,19.36h0c-2.4,.69-3.9,1.09-4.47,1.19h0c-1.26-.06-2.48-.08-3.67-.08-4.32,0-8.2,.37-11.66,1.11-.87,.19-1.6,.78-1.96,1.6s-.3,1.76,.16,2.52c1,1.68,2.94,3.29,5.81,4.84,.21,.12,.44,.2,.68,.26,3.23,.77,5.95,1.6,8.16,2.5,.23,.09,.48,.16,.73,.19,4.19,.47,6.72,.81,7.6,1.03h0s.09,.04,.13,.07l6.31,2.87h0c.17,.08,.35,.15,.55,.21h0c.97,.3,3.74,.74,8.3,1.32h0c5.44,1.86,8.91,2.91,10.41,3.16,.11,.02,.22,.03,.33,.04h0c.74,.36,2.14,1.5,4.2,3.42,.13,.12,.27,.23,.42,.32,.74,.46,1.5,.77,2.28,.93h0c.48,.21,.98,.32,1.48,.32,.73,0,1.47-.22,2.23-.67,1.37-.81,2.88-2.6,4.52-5.39,.1-.16,.17-.33,.23-.51l2.61-7.66h0c3.26-5.85,5.08-9.45,5.46-10.8h0c.12-.43,.17-.84,.15-1.23h0l-.37-8.95c0-.22-.04-.44-.1-.65-.54-1.88-.87-3.11-1.01-3.71h0c.14-6.35,.11-10.38-.08-12.09h0c.34-4.57,.96-8.23,1.85-10.99,.1-.3,.14-.62,.13-.94l-.22-6.49c-.05-1.5-1.28-2.68-2.76-2.68-.03,0-.06,0-.09,0-1.53,.05-2.72,1.33-2.67,2.86l.2,6.03h0c-.96,3.16-1.62,7.18-1.97,12.05-.02,.23,0,.45,.03,.67,.18,1.02,.2,4.7,.06,11.07h0c-.05,.34-.05,.7,.01,1.09h0c.1,.6,.47,2.05,1.13,4.35h0l.34,8.32h0c-.43,1.17-2.09,4.36-5,9.56-.08,.15-.15,.3-.2,.46l-2.62,7.68h0c-.86,1.43-1.54,2.39-2.04,2.88h0s-.07,0-.11-.01c-.08,0-.18-.04-.29-.09h0c-2.65-2.45-4.64-3.92-5.98-4.42h0c-.49-.18-.97-.28-1.42-.29h0c-1.4-.29-4.58-1.29-9.55-2.99-.18-.06-.36-.1-.55-.13-4.22-.53-6.72-.9-7.51-1.11h0l-6.06-2.75h0c-.25-.15-.54-.28-.86-.38h0c-1.01-.31-3.81-.73-8.41-1.25h0c-1.76-.69-3.77-1.34-6.02-1.95h0c1-.05,2.04-.07,3.11-.07,1.17,0,2.38,.03,3.62,.09h0s.09,0,.14,0c.17,0,.35-.01,.55-.04h0c.77-.1,2.7-.6,5.78-1.49h0c.63-.16,1.23-.45,1.78-.87h0c.16-.12,.31-.25,.46-.39,.45-.42,.74-.98,.84-1.58h0c.93-1.88,6.2-7.95,15.8-18.22,.16-.17,.3-.37,.41-.58l5.65-10.49c.07-.13,.13-.26,.17-.39l5.97-16.89c.51-1.44-.25-3.02-1.69-3.53-.31-.11-.62-.16-.92-.16Z"/><path d="M130.78,71.51c.46,.07,.9,.31,1.33,.72h0c-.28-.26-.61-.46-.97-.59-.12-.04-.25-.09-.37-.13h0Zm-25.32,36.57c-.13,.76,.06,1.52,.5,2.12h0l-.17,.07h0c-.43-.54-.54-1.27-.34-2.19h0Zm27.74,.55h0c.16,.97-.09,1.71-.74,2.22h0c.57-.6,.83-1.42,.73-2.22h0Zm-26.6,2.19h0c.1,.07,.21,.14,.33,.2l.09,.05h0c-.16-.06-.32-.12-.45-.19h0l.04-.05h0Zm.66,.32h0Zm-24.19,3.07c.35,.38,.54,.9,.55,1.54h0c-.02-.58-.23-1.11-.55-1.54h0Zm55.26-44.63c-.15,0-.3,0-.45,.02-.06,0-.12,.01-.18,.02l-4.85,.68c-.33,.05-.64,.15-.93,.31-.66,.35-1.17,.61-1.53,.78h0c-2.67-.91-4.79-1.36-6.35-1.36-.13,0-.26,0-.39,0h0c-.17-.01-.35-.02-.54-.02-1.16,0-2.57,.22-4.24,.67h0l-3.49-.32c-.08,0-.17-.01-.25-.01-.21,0-.42,.02-.63,.07l-2.34,.55-3.75-.37c-.09,0-.18-.01-.28-.01-.35,0-.69,.06-1.01,.19l-4.26,1.67h0c-1.24,.09-3.02,.35-5.32,.8h0l-5.83,.03c-.39,0-.78,.09-1.13,.25-3.88,1.77-6.2,2.76-6.96,2.96h0c-1.41,.18-2.47,1.42-2.41,2.87,.07,1.48,1.29,2.64,2.76,2.64,.04,0,.09,0,.13,0,.23-.01,.47-.05,.74-.11h0c1.02-.24,3.52-1.26,7.51-3.08h0l5.51-.03c.17,0,.35-.02,.56-.06h0c2.45-.48,4.17-.73,5.15-.76,.32-.01,.63-.07,.92-.19l4.05-1.59h0l3.54,.35c.09,0,.18,.01,.27,.01,.21,0,.42-.02,.63-.07l2.35-.55h0l3.55,.33c.08,0,.17,.01,.25,.01,.26,0,.51-.04,.76-.11,1.4-.4,2.46-.6,3.15-.6,.11,0,.21,0,.3,.01,.1,.01,.2,.02,.3,.02,.09,0,.18,0,.28-.01,.08,0,.16-.01,.26-.01,.93,0,2.55,.41,4.86,1.22h0c.39,.2,.83,.3,1.3,.3,.36,0,.75-.06,1.16-.18h0c.6-.18,1.48-.57,2.63-1.17h0l3.8-.53h0c2.54,4.26,3.5,11.64,2.88,22.13v.15h-.02c-2.47,3.48-4.05,5.51-4.75,6.09h0c-.16,.09-.32,.19-.46,.31-.47,.39-.85,.66-1.15,.81h0c-2.47,.64-4.08,1.14-4.85,1.52h0c-.64,.32-1.12,.7-1.44,1.14h0c-2.49,2.13-4.48,3.95-5.96,5.46h0c-1.11-1.08-2.59-2.21-4.44-3.4-.34-.22-.73-.36-1.13-.42-1.26-.17-3.42-1.02-6.48-2.56h0c-.35-.25-.79-.46-1.34-.61h0c-.46-.13-1.47-.33-3.03-.59-.15-.03-.31-.04-.46-.04-.88,0-1.72,.42-2.25,1.15l-1.98,2.75h0c-4.18,3.76-7.09,6.56-8.73,8.39h0c-2.23-.92-4.19-1.86-5.89-2.84-.12-.07-.25-.13-.38-.18-1.16-.45-2.38-.75-3.65-.91h0c-.4-.26-.88-.42-1.4-.44-.04,0-.07,0-.11,0-1.48,0-2.7,1.17-2.76,2.66-.07,1.71,.75,2.76,2.44,3.15,.15,.03,.3,.06,.45,.06,1.02,.06,1.98,.26,2.89,.58h0c1.94,1.09,4.15,2.15,6.63,3.16,.04,.02,.09,.04,.14,.05,.76,.26,1.49,.4,2.2,.4,.11,0,.21,0,.32,0h0c.38-.02,.76-.08,1.12-.18h0c.59-.16,1.11-.52,1.48-1.01,1.06-1.42,4.14-4.42,9.22-8.98,.15-.13,.28-.28,.4-.44l1.13-1.57h0c.26,.05,.46,.09,.6,.12h0c3.47,1.77,6.16,2.85,8.09,3.25h0c2.44,1.61,3.79,2.78,4.07,3.53h0c.24,1.07,1.09,1.91,2.17,2.12,.18,.04,.36,.05,.53,.05,.92,0,1.79-.46,2.31-1.24,.99-1.49,3.65-4.07,8-7.74l.05-.04h0c.62-.23,1.86-.59,3.73-1.06,.13-.03,.25-.07,.37-.12,.77-.32,1.59-.83,2.46-1.53h0c.16-.1,.33-.21,.49-.33h0c1.12-.86,3.12-3.33,6.01-7.4h0c.36-.49,.62-1.06,.79-1.69h0c.1-.41,.17-.84,.19-1.3v-.11h0c.73-12.65-.83-21.52-4.67-26.63-.38-.51-.92-.87-1.54-1.02-.62-.16-1.21-.23-1.78-.23Z"/><path d="M55.32,64.79c.3,.15,.57,.39,.81,.71h0c-.22-.29-.5-.53-.82-.71h0ZM7.8,80.74c.2,0,.38,.02,.56,.05h-.02c-.18-.03-.37-.05-.56-.05h-.06s.06,0,.09,0Zm33.88,13.82s-.04,0-.07,0h.07ZM18.53,56.65c-2.04,0-4.76,.16-8.14,.48-.18,.02-.36,.05-.53,.1-4.41,1.33-7.12,2.28-8.14,2.88h0c-1.42,.83-1.96,1.95-1.61,3.36h0l.99,5.47-.33,6.43c-.04,.82,.28,1.61,.87,2.16h0c.39,.53,.95,1.95,1.68,4.26,.06,.19,.14,.38,.25,.56,.76,1.31,1.36,2.22,1.8,2.72h0c.38,.43,.79,.75,1.23,.95h0c.57,.32,1.17,.48,1.79,.48,.35,0,.71-.05,1.07-.15,.17-.05,.33-.11,.49-.19,1.17-.58,2.2-.99,3.09-1.23h0c2.18-.27,5.16-.97,8.96-2.11h0c.54,.89,1.23,2.27,2.1,4.14,.14,.31,.34,.58,.58,.82,.87,.85,1.58,1.67,2.14,2.48h0l3.48,6.76c.28,.55,.74,.98,1.29,1.24,.63,.29,1.28,.44,1.95,.44,.43,0,.87-.06,1.33-.18h0c.2-.05,.41-.12,.61-.2,.17-.07,.33-.15,.48-.24,3.22-2.05,5.24-3.23,6.04-3.53h0c.21-.03,.41-.08,.61-.15h0c.31-.08,1.05-.21,2.2-.39h0c.42,.23,.88,.34,1.34,.34,.76,0,1.52-.31,2.07-.93,.6-.67,.9-1.39,.91-2.17h0c.03-1.96-.99-2.96-3.07-3h-.05c-.14,0-.27,0-.41,.03-2.42,.36-3.93,.62-4.54,.79h0l-.06,.02h0c-.19,.03-.38,.08-.58,.14h0c-1.04,.33-3.1,1.46-6.18,3.38h0l-2.61-5.07c-.05-.1-.11-.2-.17-.29-.69-1.02-1.54-2.04-2.55-3.05h0c-1.57-3.34-2.86-5.49-3.87-6.45h0c-.1-.1-.21-.19-.31-.28h0c-.5-.4-1.11-.61-1.74-.61-.28,0-.56,.04-.83,.13-4.46,1.4-7.78,2.23-9.95,2.48-.12,.01-.24,.03-.35,.06-.91,.23-1.89,.56-2.93,1.01h0c-.12-.2-.26-.42-.41-.68h0c-.76-2.37-1.48-4.1-2.15-5.2h0l.29-5.75c.01-.21,0-.43-.04-.64l-.72-3.95h0c1.15-.41,2.92-.98,5.31-1.71h0c3.27-.31,5.75-.46,7.43-.46,.97,0,1.67,.05,2.11,.15,.08,.02,.17,.03,.25,.05,9.4,1.28,15.39,2.33,17.97,3.14,.22,.07,.44,.11,.67,.12,2.76,.16,4.6,.37,5.53,.63h0l7.48,3.38h0c.27,.15,.57,.27,.9,.36h0c.62,.17,1.83,.34,3.61,.51,.09,0,.18,.01,.27,.01,1.41,0,2.61-1.07,2.75-2.5,.15-1.52-.96-2.87-2.48-3.02-1.27-.12-2.12-.23-2.55-.31h0l-.03-.02-7.83-3.54c-.1-.04-.2-.08-.3-.12-1.28-.41-3.5-.7-6.67-.9h0c-3.01-.88-9.15-1.96-18.42-3.22h0c-.77-.16-1.87-.24-3.31-.24Z"/><path d="M106.18,17.83c-.06,.15-.1,.3-.14,.45h0c.02-.15,.07-.3,.13-.45h0ZM83.55,0c-.6,0-1.18,.04-1.73,.12-.19,.03-.37,.07-.55,.14-2.41,.89-4.03,1.62-4.85,2.21h0c-.19,.14-.36,.28-.51,.42h0c-2.67,2.03-5.36,4.66-8.08,7.9h0c-.09,.07-.18,.15-.26,.24h0c-1.07,1.03-2.58,3.56-4.55,7.6l-.02,.05-2.34,5.05-.03,.06c-.03,.07-.06,.15-.09,.22h0c-.64,1.66-.4,3.06,.72,4.2,.54,.55,1.26,.83,1.97,.83s1.4-.26,1.94-.79c.73-.72,.98-1.75,.74-2.68h0l2.11-4.56h0c1.62-3.32,2.73-5.3,3.33-5.93h0c.21-.14,.39-.31,.55-.51,2.57-3.1,5.08-5.56,7.53-7.39,.1-.07,.19-.15,.27-.23h0c.42-.28,1.49-.74,3.2-1.38h0c.23-.02,.47-.04,.72-.04,1.64,0,3.73,.52,6.27,1.57h0c3.16,1.96,5.73,3.38,7.72,4.25h0c2.84,2.76,5.12,4.6,6.85,5.5h0c.79,.88,1.31,1.53,1.57,1.96h0c-.05,1.3-.12,2.13-.22,2.5h0c-1.43,3.62-2.21,6.1-2.34,7.44h0l-1.67,4.33h0l-4.14,6.87c-.09,.15-.17,.31-.23,.47l-1.66,4.51h0c-3.11,5.43-4.86,8.65-5.24,9.66h0c-.05,.13-.09,.26-.13,.39h0c-.46,1.3,.11,2.77,1.38,3.4,.4,.2,.82,.29,1.23,.29,1.02,0,2-.56,2.48-1.54l.05-.09c.08-.17,.15-.35,.2-.53h0c.34-.84,2.01-3.86,4.99-9.05,.08-.14,.14-.28,.2-.42l1.63-4.45,4.13-6.85c.08-.14,.15-.28,.21-.43l1.92-5c.13-.33,.19-.68,.18-1.03h0c.05-.75,.74-2.79,2.05-6.1,.03-.07,.05-.14,.07-.21,.01-.04,.02-.08,.04-.12h0c.2-.7,.33-1.83,.41-3.39h0c.21-.76,.13-1.58-.24-2.47h0c-.44-1.06-1.47-2.48-3.11-4.26-.27-.29-.59-.52-.95-.67-1.22-.52-3.25-2.19-6.11-5.01-.25-.25-.55-.45-.88-.58-1.81-.75-4.35-2.15-7.61-4.18-.13-.08-.26-.15-.39-.2-3.29-1.38-6.17-2.07-8.64-2.07Z"/><path d="M89.96,54.19c-.75,.08-1.46,.48-1.93,1.12,.54-.74,1.18-1.11,1.92-1.12h0ZM54.96,21.28c-.23,0-.46,.03-.68,.09-1.48,.38-2.38,1.88-2,3.36,.62,2.45,1.65,5.03,3.09,7.74h0l1.16,5.93h0c.05,.29,.14,.59,.27,.9,.41,.95,1.64,2.84,3.7,5.67,.13,.18,.28,.34,.44,.48l2.97,2.53c.28,.24,.6,.42,.95,.53,2.46,.79,4.6,1.84,6.43,3.15,.22,.16,.47,.29,.73,.38l4.96,1.67h0c.91,.42,2.18,1.34,3.81,2.76,.24,.21,.51,.37,.81,.49,3.94,1.54,6.49,2.44,7.66,2.68h0c.49,.38,1.09,.58,1.69,.58,.53,0,1.08-.15,1.55-.48,1.16-.79,1.54-2.31,1.29-2.32h0s-.04,.01-.07,.03h0l-.48-1.55c-.5-.74-1.18-1.26-2.03-1.56-.3-.11-.62-.16-.92-.16-.04,0-.08,0-.13,0h0c-.85-.21-2.88-.94-6.09-2.19h0c-1.97-1.68-3.64-2.81-5-3.4-.07-.03-.14-.06-.21-.08l-4.65-1.57h0c-2.08-1.44-4.44-2.61-7.08-3.51h0l-2.29-1.95h0c-1.58-2.17-2.52-3.57-2.84-4.2h0l-1.22-6.27c-.05-.28-.15-.54-.28-.79-1.32-2.44-2.25-4.71-2.79-6.83-.32-1.25-1.44-2.09-2.68-2.09Z"/><path d="M95.29,33.93h0Zm-9.72,10.02h0s.04,.08,.06,.13h-.03s-.02-.08-.04-.12h0Zm-1.03-3.08c.2,.07,.41,.14,.64,.21h0c.15,.04,.3,.07,.46,.09,2.01,.23,3.48,.34,4.4,.34,.21,0,.4,0,.55-.02h0c.22-.02,.43-.05,.62-.09h0l2.54-.5h0c-.35,.17-.68,.43-.94,.75-1.06,1.32-1.95,2.08-2.66,2.26h0c-1.22,.19-2.25,.28-3.09,.28-.51,0-.95-.04-1.32-.11h0c-.08-.1-.14-.19-.19-.26h0l-.95-2.83h0l-.03-.13h0Zm1.09,3.27l.05,.03h0c.41,1.05,.07,1.99-1.02,2.84h0c.87-.68,1.25-1.81,.97-2.87h0Zm12.39-12.98c-.1,0-.2,0-.31,.02-1.45,.16-2.51,1.41-2.46,2.84h0c-.16,.25-.53,.59-1.11,1.01h0c-.21,.12-.45,.22-.73,.31h0l-3.29,.64h-.03s-.1,0-.15,0c-.56,0-1.69-.09-3.39-.28h0s-.09-.03-.12-.05h0l-3.81-2.16c-.12-.07-.24-.12-.36-.17-.09-.04-.19-.07-.28-.1h0c-.56-.19-1.08-.28-1.54-.28-1.21,0-2.07,.65-2.58,1.95h0c-.03,.08-.06,.16-.08,.25-.18,.6-.14,1.24,.09,1.82,.24,.6,.69,2.37,1.33,5.31,.02,.1,.05,.2,.08,.3l.87,2.59h0c.08,.42,.26,.87,.54,1.34h0c.19,.31,.53,.78,1.01,1.41,.05,.07,.11,.13,.16,.19,.04,.04,.08,.09,.12,.13h0c.44,.45,.91,.76,1.4,.93h0c1.02,.37,2.26,.55,3.75,.55,1.19,0,2.52-.12,4-.35,.05,0,.11-.02,.16-.03,2-.44,3.95-1.84,5.85-4.21,.96-1.19,.76-2.93-.43-3.89-.49-.4-1.08-.59-1.67-.61h0c.81-.25,1.54-.59,2.2-1.01,.04-.02,.07-.05,.11-.07,1.5-1.08,2.51-2.21,3.03-3.4h0c.36-.83,.5-1.66,.4-2.52-.16-1.42-1.35-2.46-2.75-2.46Z"/><path d="M89.19,22.51c-.49,0-.97,.13-1.39,.37h0c-1.44,.02-2.63,1.15-2.72,2.6-.05,.88,.17,1.65,.66,2.32h0c.35,.48,.8,.84,1.34,1.09l.28,.11-.12-.04h0c.37,.15,.75,.22,1.15,.22h0c.11,0,.21,0,.32-.02h.07c.11-.02,.21-.04,.31-.06,.41-.1,.8-.28,1.14-.53,.06-.05,.12-.09,.18-.15l.06-.06c.05-.05,.1-.09,.15-.14,.19-.19,.36-.41,.5-.65l.03-.04c.23-.38,.4-.73,.53-1.04h0c.05-.13,.1-.26,.14-.39,.46-1.46-.35-3.01-1.81-3.47-.28-.09-.56-.13-.83-.13Z"/><path d="M77.03,17.5h.48c1.53,0,2.77,1.23,2.77,2.76,0,1.53-1.23,2.77-2.76,2.77h-.48c-1.53,0-2.77-1.23-2.77-2.76s1.23-2.77,2.76-2.77Z"/></g></g></svg>