<?xml version="1.0" encoding="UTF-8"?><svg id="Layer_2" xmlns="http://www.w3.org/2000/svg" viewBox="0 0 149.4 135.84"><g id="Layer_1-2"><g id="layer2"><path d="M9.54,25.65h0c.19,.16,.4,.3,.64,.4,1.62,.65,2.33,1.72,2.11,3.19h0c-.52,1.31-1.01,2.15-1.48,2.52-.05,.04-.1,.09-.15,.13-.48,.46-1.5,.85-3.05,1.18h-.06s-.08,.03-.12,.03c-.35,0-.86-.31-1.53-.92h0c-.69-.89-1.15-2.02-1.39-3.39h0c-.01-.33,.1-.8,.35-1.43h0c.1-.23,.18-.38,.26-.45l.19-.17-.13,.12c.1-.08,.27-.15,.53-.21h0s.05,0,.08,0c.17,0,.45,.04,.83,.12h0c.16,.03,.32,.05,.48,.05,.06,0,.11,0,.17,0,.14,0,.26-.02,.38-.04h0c.48-.07,.89-.22,1.23-.44h0c.28-.18,.51-.42,.68-.69h0Zm1.48-3.94c-.76,0-1.49,.39-1.91,1.05h0c-.42-.37-.95-.56-1.49-.56-.19,0-.39,.02-.58,.08h0c-.48-.08-.92-.12-1.32-.12-.19,0-.36,0-.53,.03h0c-.15,.02-.3,.04-.44,.07h0c-1,.22-1.84,.62-2.51,1.19h0c-.67,.55-1.19,1.29-1.57,2.22v.02C.15,26.99-.07,28.16,.02,29.2c0,.06,.01,.12,.02,.18,.37,2.27,1.18,4.19,2.44,5.74,.06,.08,.13,.15,.21,.22,1.6,1.51,3.19,2.27,4.75,2.27,.37,0,.74-.04,1.11-.13h0c2.31-.49,4.02-1.24,5.13-2.24h0c1.12-.91,2.09-2.45,2.92-4.62,.05-.13,.09-.26,.11-.39,.74-3.98-.87-6.76-4.83-8.36-.28-.11-.56-.16-.84-.16Z"/><path d="M85.05,0c-1.07,0-2.02,.77-2.21,1.85-.18,1,.33,1.96,1.19,2.4h0c.45,.59,1.13,2.09,2.04,4.5h0c1.23,4.6,1.85,7.33,1.85,8.18h0c0,.05-.01,.1-.02,.15-.1,1.25-.31,2.15-.64,2.69h0c-1.45,1.74-2.74,2.94-3.87,3.58h0c-.2,.07-.45,.1-.74,.1-.76,0-1.82-.23-3.17-.7h0c-.57-.52-1.01-1.38-1.33-2.6h0c-.04-.21-.04-.56,0-1.05,0-.02,0-.05,0-.07h0c.03-.22,.16-.89,.4-2,.02-.1,.04-.2,.04-.3,.12-1.51,.29-2.79,.49-3.83h0c.82-1.68,1.81-4,2.98-6.99h0c.04-.1,.13-.25,.27-.44,.72-1.01,.48-2.42-.53-3.14-.4-.28-.85-.42-1.3-.42-.7,0-1.4,.33-1.84,.95-.34,.49-.6,.95-.78,1.38h0c-1.18,3.03-2.16,5.33-2.95,6.9-.09,.17-.15,.36-.19,.55-.26,1.24-.46,2.76-.61,4.55h0c-.25,1.15-.4,1.9-.44,2.24h0c-.01,.12-.02,.24-.02,.35h0c-.07,.86-.04,1.6,.08,2.2l.02,.1c.62,2.47,1.72,4.27,3.28,5.41,.17,.12,.36,.22,.55,.29,1.96,.71,3.67,1.07,5.12,1.07,.95,0,1.79-.15,2.52-.46,.07-.03,.15-.07,.21-.1,1.68-.92,3.48-2.54,5.4-4.86,.05-.07,.1-.13,.15-.21,.74-1.13,1.2-2.69,1.38-4.67h0c.03-.19,.05-.38,.06-.6h0c.02-1.24-.66-4.44-2.05-9.6-.02-.07-.04-.14-.07-.21-1.21-3.23-2.26-5.3-3.13-6.22-.52-.54-1.09-.86-1.71-.98-.13-.02-.27-.04-.4-.04Z"/><path d="M58.34,29.55c.24,0,.48,.04,.71,.12h0c-.23-.08-.47-.12-.72-.12-.14,0-.28,.01-.42,.04h0c.15-.03,.29-.04,.43-.04Zm1.08,.28c1.03,.52,1.41,1.31,1.13,2.35h0c.11-.67-.08-1.36-.54-1.88-.17-.19-.38-.35-.6-.47h0ZM76.42,4.55c-.27,0-.55,.05-.82,.16l-7.12,2.81c-.09,.04-.18,.08-.26,.13-.62,.35-1.14,.75-1.53,1.22h0c-.27,.32-.49,.67-.65,1.04-.07,.16-.12,.33-.15,.51-.26,1.48-.59,2.59-.98,3.33l-.03,.07c-.68,1.41-2.26,4.16-4.75,8.26-.05,.08-.09,.16-.13,.25-2.28,5.07-3.53,7.96-3.76,8.66h0c-.05,.16-.09,.32-.12,.47h0c-1.73,5.62-3.18,12.33-4.36,20.12-.19,1.23,.66,2.38,1.89,2.56,.11,.02,.23,.03,.34,.03,1.09,0,2.05-.8,2.22-1.91,1.16-7.7,2.6-14.29,4.3-19.75,.02-.07,.04-.13,.05-.2h0c.26-.72,1.42-3.37,3.48-7.97h0c2.5-4.11,4.12-6.94,4.87-8.49h0c.55-1.05,.99-2.43,1.32-4.13h0s.04-.03,.07-.05h0l6.98-2.75c1.16-.46,1.72-1.76,1.27-2.92-.35-.88-1.2-1.42-2.09-1.42Z"/><path d="M27.11,17.13c-.37,.77-.92,1.15-1.66,1.15-.29,0-.6-.06-.95-.18h0c.22,.07,.45,.1,.68,.1,.43,0,.86-.12,1.23-.37,.28-.19,.52-.43,.69-.71h0Zm-19.24,3.4h0c-.3,.52-.84,.82-1.61,.89h0c.19-.03,.37-.08,.55-.15,.37-.15,.68-.39,.92-.7h.04l.1-.05h0Zm-2.79,.74c.19,.08,.4,.13,.6,.16h0c-.21-.02-.41-.08-.61-.16h0Zm15.49-8.91c-.17,0-.33,.02-.5,.06-4.04,.91-8.61,2.2-13.71,3.87h0c-.37,.12-.69,.25-.97,.4h0c-.4,.22-.74,.47-1,.76h0c-.44,.38-.69,.98-.74,1.79-.02,.33-.01,.9,.03,1.71h0c-.48,1-.15,2.23,.8,2.86,.38,.25,.8,.36,1.22,.36,.74,0,1.46-.36,1.89-1.02,.33-.51,.53-1.09,.59-1.73,.01-.11,.01-.22,0-.33-.01-.24-.02-.46-.03-.65h0c4.67-1.52,8.86-2.71,12.57-3.56h0l1.96,.17h0c-.1,.73-.2,1.69-.33,2.89-.01,.13-.02,.26,0,.38,.1,1.39,.14,3.2,.15,5.44v.12c.29,5.21,.68,9.43,1.16,12.66h0c.49,4.15,2.01,10.56,4.57,19.21,.29,.98,1.19,1.61,2.16,1.61,.21,0,.43-.03,.64-.09,1.19-.35,1.87-1.6,1.52-2.8-2.5-8.46-3.97-14.63-4.42-18.53v-.07c-.47-3.07-.83-7.11-1.11-12.12h0c0-2.22-.05-4.07-.14-5.52h0c.18-1.75,.32-2.88,.4-3.37h0c.1-.24,.17-.49,.18-.76,.04-.73-.14-1.4-.55-2h0c-.52-.76-1.24-1.22-2.18-1.38-.06-.01-.13-.02-.19-.02l-3.75-.32c-.06,0-.13,0-.19,0Z"/><path d="M49.21,39.74c-.13,0-.26,.01-.39,.03l-9.73,1.71-.16,.03h.05c-1.25,.25-2.16,.51-2.73,.78h0c-.22,.11-.42,.23-.59,.36l-.09,.07-8.38,6.92c-.08,.06-.15,.13-.24,.23h0c-1.35,1.46-2.68,3.11-3.99,4.96h0c-.05,.06-.1,.11-.15,.17h0c-1.09,1.33-2.14,4.62-3.15,9.88-.23,1.22,.57,2.4,1.79,2.63,.14,.03,.29,.04,.43,.04,1.06,0,2-.75,2.21-1.83,.85-4.45,1.58-7.06,2.18-7.83h0c.11-.1,.2-.21,.29-.33,1.2-1.69,2.41-3.2,3.62-4.53h0l8.11-6.7h0c.27-.11,.8-.25,1.61-.41h0l9.3-1.63h0l9.33,1.92h0c3.46,1.42,5.43,2.49,5.91,3.22h0c.78,1.31,2.8,3.64,6.04,7h0c.41,.62,1.3,2.66,2.65,6.11h0c1.77,7.31,.93,13.67-2.51,19.06-.67,1.05-.36,2.44,.69,3.11,.38,.24,.79,.35,1.21,.35,.74,0,1.47-.37,1.9-1.04,4.16-6.52,5.18-14.1,3.05-22.74-.02-.1-.05-.19-.09-.28-1.56-3.98-2.65-6.4-3.27-7.26h0c-.08-.11-.16-.21-.24-.3l-.07-.07c-3.09-3.19-4.92-5.28-5.49-6.27l-.04-.06s-.04-.07-.06-.1h0c-1-1.51-3.72-3.17-8.15-4.98-.13-.05-.26-.09-.4-.12l-9.95-2.05c-.15-.03-.3-.05-.45-.05Z"/><path d="M11.04,59.79c-1.22,0-2.22,.97-2.25,2.2-.11,4.42,.05,7.25,.48,8.49h0c.04,.11,.08,.22,.13,.32h0c1.53,5.37,4.03,12.06,7.5,20.08,.06,.14,.13,.27,.22,.4l5.25,7.52c.1,.15,.22,.28,.36,.4,1.57,1.38,4.06,2.55,7.47,3.5h0c1.62,.58,4.09,.96,7.41,1.15h0c1.85,.51,3.24,.81,4.16,.92h.05l5.02,.49h0c.1,.01,.21,.02,.32,.02h0s.09,0,.14,0c1.16,0,3-.47,5.54-1.41,.04-.02,.08-.03,.12-.05,.85-.37,1.54-.79,2.06-1.26,.07-.07,.14-.14,.21-.21,1.85-2.15,3.37-3.6,4.57-4.37h0c2.1-1.27,4.78-2.67,8.06-4.19,.05-.02,.1-.05,.16-.08h0c1.12-.64,2.21-1.43,3.28-2.37h0c3.43-2.97,4.94-6.19,4.52-9.64-.14-1.14-1.11-1.98-2.23-1.98-.09,0-.18,0-.27,.02-1.23,.15-2.11,1.27-1.97,2.5,.23,1.88-.78,3.78-3,5.71l-.02,.02c-.81,.72-1.63,1.33-2.47,1.8h0c-3.38,1.57-6.17,3.03-8.38,4.37h0l-.03,.02c-1.56,.98-3.4,2.69-5.51,5.13h0c-.17,.12-.41,.26-.74,.4h0c-1.98,.73-3.25,1.1-3.82,1.1h-.08l-4.97-.49h0c-.74-.09-1.98-.37-3.73-.86-.16-.04-.32-.07-.49-.08-3.05-.16-5.19-.46-6.41-.92-.06-.02-.12-.04-.19-.06-2.62-.73-4.48-1.53-5.57-2.4h0l-4.95-7.08h0c-3.39-7.85-5.81-14.36-7.27-19.53-.04-.12-.08-.25-.14-.36h0c-.25-.74-.33-3.04-.23-6.91,.03-1.24-.95-2.27-2.2-2.3h-.06Z"/><path d="M124.44,58.78c-.09,.23-.13,.48-.14,.74,0,.4,.09,.79,.28,1.14h0c-.41-.53-.46-1.15-.15-1.88h0Zm-27.91-19.59c-.25,0-.51,.03-.78,.08h0c-.53,.11-1.12,.33-1.79,.68-.04,.02-.09,.05-.13,.07l-5.18,3.14c-.21,.13-.4,.29-.55,.47-1.86,2.2-5.29,5.44-10.3,9.71-.1,.09-.2,.18-.28,.29-1.57,1.93-2.14,3.86-1.68,5.81,.24,1.04,1.17,1.74,2.19,1.74,.17,0,.34-.02,.51-.06,1.21-.28,1.96-1.49,1.68-2.7-.11-.47,.11-1.07,.66-1.78h0c4.91-4.19,8.38-7.46,10.41-9.81h0l4.79-2.9h0c.16-.08,.3-.15,.41-.19h0l9.14,2.86h0l3.16,1.72h0c3.23,2.17,7.11,5.49,11.64,9.95,.15,.15,.32,.27,.54,.39h0c1.95,1.06,3.2,1.79,3.75,2.17h0c.08,.12,.17,.23,.27,.33h0c.34,.44,1.07,1.77,2.21,4h0c.27,.53,.73,.92,1.29,1.11h0c1.21,.62,3.84,4.07,7.87,10.33h0c4.29,7.94,6.63,12.96,7,15.06h0c-.55,3.39-1.07,5.47-1.56,6.22h0c-.18,.11-.34,.25-.48,.41-.32,.36-.55,.61-.7,.74h0l-2.43,.93c-.2,.08-.39,.18-.55,.31-1.84,1.4-3.23,2.29-4.15,2.65h0c-3.27,.55-5.96,.84-8.07,.86-.19,0-.37,.03-.55,.07l-4.13,1.08h0c-1.2-.04-2.35-.06-3.45-.06-5.53,0-9.84,.49-12.95,1.47h0c-1.73-.33-3.28-.5-4.65-.5-.46,0-.9,.02-1.32,.06-.07,0-.13,.02-.2,.03l-3.99,.72h0l-5.69-2.44h0c-1.63-1.72-3.38-3.1-5.26-4.15h0c-3.55-3.78-6.24-7.26-8.04-10.44-.41-.73-1.17-1.14-1.96-1.14-.38,0-.76,.1-1.11,.3-1.08,.61-1.46,1.99-.84,3.07,2.03,3.56,5,7.41,8.92,11.56,.17,.18,.36,.32,.57,.44,1.68,.9,3.26,2.15,4.73,3.77,.22,.24,.48,.42,.77,.55l6.76,2.89c.28,.12,.58,.18,.88,.18,.13,0,.27-.01,.4-.04l4.55-.83h0c.27-.02,.55-.03,.84-.03,1.2,0,2.64,.18,4.31,.53,.15,.03,.31,.05,.46,.05,.25,0,.51-.04,.75-.13,2.66-.94,6.66-1.41,11.98-1.41,1.17,0,2.41,.02,3.71,.07,.03,0,.05,0,.08,0,.19,0,.38-.02,.57-.07l4.18-1.1h0c2.35-.05,5.26-.37,8.73-.96,.13-.02,.25-.05,.37-.1,1.31-.46,3.06-1.52,5.26-3.17h0l2.38-.91c.05-.02,.11-.04,.16-.07,.19-.09,.38-.2,.57-.34h0c.36-.26,.78-.65,1.26-1.18h0c.31-.21,.59-.47,.84-.8h0c1-1.28,1.86-4.19,2.58-8.73,.03-.2,.04-.4,.01-.6-.28-2.52-2.82-8.22-7.62-17.09-.03-.05-.06-.1-.09-.15-4.19-6.51-7.28-10.41-9.27-11.71h0c-.95-1.83-1.67-3.1-2.16-3.82h0c-.17-.37-.45-.73-.86-1.08h0c-.59-.5-2.08-1.41-4.48-2.72h0c-4.69-4.6-8.75-8.05-12.18-10.34-.06-.04-.11-.07-.17-.1l-3.41-1.87c-.13-.07-.27-.13-.41-.17l-9.69-3.03h0c-.3-.1-.62-.15-.96-.15Z"/><path d="M79.08,98.61c-.45,0-.9,.13-1.29,.41-.93,.65-1.21,1.88-.71,2.86h0c-.01,.08-.04,.18-.07,.3-.03,.1-.05,.21-.07,.31h0c-.11,.41-.47,1.53-1.08,3.37-.02,.05-.03,.1-.04,.15-.26,1-.65,2.4-1.2,4.21l-.02,.07c-.36,1.35-.7,2.86-1.02,4.53h0c-.16,.85-.3,1.82-.43,2.9h0c-.08,.7-.17,1.81-.27,3.34h0l-.19,1.36c0,.07-.02,.13-.02,.2-.06,1.15-.15,2.07-.29,2.77-.23,1.22,.57,2.4,1.79,2.63,.14,.03,.28,.04,.42,.04,1.06,0,2-.75,2.21-1.83,.16-.87,.28-1.94,.35-3.22h0l.21-1.46c0-.06,.01-.11,.02-.17,.1-1.46,.18-2.5,.25-3.12h0c.12-.98,.25-1.85,.39-2.6h0c.29-1.53,.6-2.91,.93-4.15h0c.54-1.79,.94-3.2,1.21-4.25h0c.7-2.13,1.11-3.4,1.21-3.82h0s.01-.06,.02-.09h0c.18-.62,.26-1.2,.24-1.74h0c-.02-.79-.24-1.47-.66-2.06h0c-.44-.62-1.13-.95-1.84-.95Z"/><path d="M123.58,116.42c-.05,1.08-.6,1.73-1.66,1.96h0c.9-.24,1.57-1.02,1.66-1.96h0Zm-4.43,.3c.24,1,1.13,1.72,2.16,1.73h0s-.09,0-.13,0c-1.13,0-1.81-.58-2.03-1.73h0Zm.45,8.29c.06,.36,.21,.7,.42,.99h0c-.23-.3-.37-.63-.42-.99h0Zm4,1.01h0c-.59,.78-1.19,1.18-1.78,1.18-.56,0-1.12-.35-1.69-1.05h0s-.05-.07-.08-.1h0l.19,.22h0c.2,.2,.44,.36,.71,.47,.26,.11,.53,.16,.81,.16,.61,0,1.25-.27,1.83-.87h0Zm-4.05-21.48c-.53,0-1.06,.19-1.49,.57-.93,.83-1.01,2.25-.19,3.18,.44,.5,.81,1.98,1.09,4.45h0c.08,.69,.12,1.11,.12,1.26h0v.56h.01c-.02,.9-.02,1.48,0,1.76h0c0,.28,.05,1.23,.13,2.84h0c.01,.38,.1,1.38,.27,3.01h0c.04,.5,.05,.84,.06,1.03v.05h0c.02,.44,.02,.91,.02,1.4,0,.06,0,.13,0,.19h0c0,.36-.03,1.36-.07,3v.03c0,.34,0,.67,.02,.98,0,.05,0,.11,.02,.16,.33,2.4,.63,4.12,.9,5.16,.27,1.01,1.18,1.68,2.17,1.68,.19,0,.38-.02,.57-.07,1.2-.32,1.92-1.55,1.6-2.75-.22-.85-.48-2.34-.78-4.48h0c-.01-.19-.02-.38-.02-.59h0c.05-1.94,.07-3.03,.07-3.26h0v-.02h0c0-.55,0-1.08-.02-1.59v-.02h0c0-.28-.03-.71-.07-1.28v-.07c-.16-1.54-.25-2.44-.25-2.69h0v-.08c-.07-1.38-.11-2.24-.13-2.59h0c0-.08,0-.17,0-.25,0-.18,0-.7,0-1.54h0v-.63h-.01v-.05h0c0-.27-.06-.81-.15-1.62h0c-.39-3.42-1.12-5.72-2.2-6.93-.44-.5-1.06-.76-1.68-.76Z"/><path d="M114.87,106.88c-1.15,0-2.13,.88-2.24,2.05-.08,.94-.15,1.52-.2,1.74h0s-.02,.07-.03,.1c-.05,.18-.11,.36-.18,.56h0c-.19,.52-.51,1.27-.95,2.28l-.04,.1c-.13,.34-.24,.69-.34,1.05l-.03,.12c-.18,.91-.3,1.44-.33,1.59h0c-.51,1.78-.81,2.9-.89,3.36h0c-.55,2.35-.95,4.21-1.19,5.6h0c-.14,.58-.29,1.08-.43,1.51-.4,1.18,.23,2.45,1.4,2.86,.24,.08,.48,.12,.73,.12,.94,0,1.81-.59,2.13-1.53,.2-.6,.4-1.28,.58-2.05,.01-.05,.02-.1,.03-.15,.22-1.31,.61-3.13,1.16-5.44l.02-.11c.06-.32,.32-1.29,.79-2.92h0c.01-.05,.02-.09,.03-.13h0c.05-.21,.17-.77,.36-1.69h0c.04-.16,.09-.32,.15-.48h0c.47-1.08,.82-1.92,1.04-2.51h0c.1-.29,.19-.56,.26-.82h0c.04-.12,.08-.25,.11-.39h0c.1-.42,.2-1.21,.3-2.36h0c.11-1.24-.8-2.33-2.04-2.44-.07,0-.14,0-.2,0Z"/><path d="M108.55,29.92c-.09,.01-.18,.02-.29,.02-.04,0-.08,0-.12,0h0s.07,0,.1,0c.1,0,.2,0,.3-.02h0Zm19.72,.48c-.36,.23-.73,.34-1.09,.34-.17,0-.34-.02-.52-.07h0c.15,.03,.31,.05,.46,.05,.4,0,.79-.11,1.14-.31h0Zm0,.82h0Zm-25.25,8.69c-.12,.5-.46,.92-1.03,1.25h0c.39-.23,.7-.56,.9-.97l.13-.28h0Zm16.84-15.49s-.05,0-.07,0l-7.3,.24c-.11,0-.22,.02-.32,.03l-4.18,.75h0c-.45,.04-.89,.2-1.34,.48h0c-.73,.45-1.78,1.45-3.17,3.01-.09,.1-.16,.2-.23,.31-.58,.94-1.29,1.91-2.13,2.92-.17,.2-.3,.43-.39,.67-.54,1.49-.93,2.78-1.15,3.87h0l-.61,1.26h0c-.31,.46-.43,1.04-.37,1.73h0c.04,.41,.16,1.02,.36,1.85,.25,1.02,1.17,1.71,2.18,1.71,.18,0,.36-.02,.54-.07,1.21-.3,1.94-1.52,1.64-2.72-.08-.32-.14-.58-.18-.78h0l.63-1.31c.09-.18,.15-.37,.19-.57,.15-.82,.44-1.84,.88-3.06h0c.82-1,1.53-1.98,2.14-2.95h0c.9-1,1.53-1.65,1.91-1.94h0l3.96-.71h0l6.92-.23h0c1.16,.2,3.42,.77,6.8,1.71h.05c.29,.15,.89,.45,1.79,.93h0c.05,.35,.07,.88,.06,1.58h0c-.67,2.71-1.16,4.5-1.46,5.36h0l-1.74,2.92c-.06,.11-.12,.22-.17,.34-.72,1.86-1.22,3.02-1.5,3.48h0l-2.12,3.54c-.09,.15-.16,.3-.21,.47-.4,1.23-1.14,3.07-2.23,5.52h0c-.62,.34-1.06,.97-1.14,1.73-.03,.33-.05,.6-.05,.82h0c0,1.1,.44,1.86,1.32,2.29h0c.42,.21,.82,.31,1.18,.31,.81,0,1.47-.51,1.99-1.52,.01-.03,.03-.06,.04-.09l.02-.05c1.49-3.26,2.51-5.71,3.07-7.37h0l2-3.34h0c.4-.66,.98-1.98,1.76-3.97h0l1.78-2.99c.07-.11,.13-.23,.17-.36,.37-.98,.95-3.08,1.74-6.29,.04-.16,.06-.32,.06-.48,.05-1.69-.09-2.96-.4-3.81h0c-.29-.8-.76-1.38-1.39-1.74l-.05-.03c-1.53-.82-2.51-1.32-2.94-1.49h0c-.19-.07-.37-.13-.55-.16h0c-3.66-1.02-6.11-1.62-7.37-1.81-.11-.02-.22-.02-.33-.02Z"/><path d="M144.08,48.95c.15,.11,.32,.2,.49,.27h0c-.19-.08-.36-.17-.5-.27h0Zm-7.67-11.28c-.18,0-.35,.01-.52,.03h-.06l-7.33,1.21c-1.23,.2-2.06,1.36-1.86,2.58,.18,1.1,1.14,1.89,2.22,1.89,.12,0,.24,0,.37-.03l7.21-1.18h0c.38,.05,1.07,.37,2.07,.98,.14,.09,.29,.16,.45,.21h0c.72,.47,2.28,2.19,4.68,5.17,.05,.07,.11,.13,.17,.19h0c.22,.45,.56,1.41,1.01,2.9h0c.09,.32,.11,.6,.05,.86h0c-.17,.59-.77,2.17-1.79,4.76h0c-.44,.75-.74,1.24-.89,1.46h0c-1.08,1-2.65,2.92-4.7,5.75h0c-.97,1.21-1.69,2.51-2.16,3.91h0c-.37,.37-.61,.87-.64,1.43,0,.13-.01,.25-.01,.36h0c0,.91,.31,1.61,.94,2.09h0c.52,.4,1.02,.6,1.49,.6,.63,0,1.22-.35,1.77-1.05h0l-.02,.03,.07-.08c.22-.28,.36-.61,.43-.96,.24-1.3,.81-2.49,1.7-3.57,.03-.03,.06-.07,.08-.11,1.98-2.73,3.39-4.46,4.22-5.18,.04-.03,.07-.06,.11-.1,.1-.1,.2-.22,.3-.35h0c.23-.32,.67-1.03,1.32-2.13,.06-.1,.11-.2,.15-.31,1.18-2.99,1.86-4.82,2.04-5.49l.02-.1c.22-1.01,.18-2.05-.14-3.12v-.02c-.63-2.04-1.14-3.4-1.55-4.07h0c-.17-.28-.36-.52-.57-.71h0c-2.76-3.4-4.7-5.43-5.84-6.09h0c-.17-.1-.34-.18-.5-.25h0c-1.57-.93-2.89-1.44-3.95-1.51h0c-.09,0-.19,0-.28,0Z"/><path d="M101.46,39.74c-1.01,0-1.92,.68-2.18,1.7-.46,1.83-1.48,4.96-3.06,9.39-.02,.06-.04,.12-.05,.17l-2.92,10.89v.05c-.22,.84-.98,2.51-2.32,5.01-.11,.21-.19,.44-.23,.67-.52,3.03-.81,5.74-.87,8.13h0c-.07,.45-.33,1.71-.8,3.8h0l-3.84,8.84c-.05,.12-.09,.25-.12,.37-.38,1.62-.92,3.17-1.61,4.65h0c-.1,.19-.18,.4-.24,.63h0c-.23,.8-.31,2.07-.23,3.8h0c-.03,.1-.07,.2-.13,.3-.59,1.09-.19,2.46,.9,3.05,.34,.19,.71,.27,1.07,.27,.8,0,1.57-.42,1.98-1.17,.33-.61,.55-1.25,.66-1.92,.03-.16,.03-.32,.03-.48-.07-1.3-.06-2.16,.03-2.56h0l.02-.05c.78-1.69,1.4-3.45,1.85-5.28h0l3.87-8.91c.06-.13,.1-.27,.13-.41,.56-2.51,.87-4.01,.93-4.51,.01-.12,.02-.23,.02-.33h0c.05-2.08,.3-4.45,.74-7.12h0c1.39-2.63,2.23-4.53,2.52-5.7h0l2.88-10.75h0c1.63-4.55,2.69-7.81,3.18-9.78,.3-1.21-.43-2.43-1.63-2.73-.18-.05-.37-.07-.55-.07Z"/><path d="M111.84,74.03h0Zm-4.81,32.54h0Zm9.37-58.9c-.3,0-.6,.06-.89,.18-1.14,.49-1.67,1.81-1.18,2.95,.15,.36,.22,.84,.19,1.44h0l-.33,1.79c-.02,.09-.03,.18-.03,.27-.1,1.6-.24,2.85-.41,3.75v.08c-.1,.55-.38,1.59-.85,3.14-.02,.06-.03,.12-.05,.18-.12,.54-.2,1.07-.26,1.6h0l-.56,5.11c0,.08-.01,.17-.01,.25,.01,3.1-.05,4.96-.17,5.57h0c-.03,.09-.06,.18-.08,.28-1.04,4.64-1.69,7.27-1.96,7.91-.04,.1-.08,.2-.1,.31-.18,.69-1,2.52-2.45,5.49-.04,.08-.08,.17-.11,.26l-1.19,3.43c-.05,.16-.09,.32-.11,.48l-.55,4.84s0,.1-.01,.14c-.09,1.83-.2,3.34-.34,4.51v.02c-.04,.34-.11,.68-.21,1.03h0c-.14,.45-.33,.91-.56,1.4h0c-.97,.26-1.67,1.15-1.66,2.2,0,.35,.02,.64,.05,.88h0c.12,.93,.54,1.59,1.24,1.98h0c.47,.27,.91,.4,1.31,.4,.75,0,1.38-.45,1.91-1.35h0c.92-1.47,1.59-2.87,2-4.18h0l.02-.08c.17-.6,.29-1.2,.36-1.8h0c.14-1.24,.26-2.8,.35-4.66h0l.52-4.6,1.05-3.03h0c1.46-2.98,2.35-5,2.67-6.04h0c.37-.97,1.08-3.75,2.11-8.35h0c.05-.14,.09-.29,.13-.44h0c.2-.88,.29-3.03,.29-6.44h0l.55-5.04h0c.03-.33,.08-.65,.15-.98h0c.51-1.67,.83-2.89,.96-3.65h0c.2-1.05,.36-2.43,.47-4.13h0l.35-1.88c.02-.1,.03-.19,.03-.29,.07-1.35-.11-2.54-.55-3.56-.37-.85-1.2-1.36-2.07-1.36Z"/><path d="M127.81,60.26c-.53,0-1.06,.18-1.48,.56-.91,.8-1.55,1.98-1.91,3.54h0s-.02,.06-.03,.09h0c-.17,.6-.34,1.84-.51,3.73h0l-.93,3.87c-.02,.06-.03,.13-.04,.19-.4,2.65-.66,4.21-.79,4.67h0l-3.26,10.91c-.06,.2-.09,.41-.09,.61-.01,.85-.66,3.71-1.96,8.57-.03,.11-.05,.22-.06,.33h0c-.11,.91-1.37,3.45-3.75,7.63-.62,1.08-.24,2.45,.84,3.07,.35,.2,.74,.3,1.11,.3,.78,0,1.54-.41,1.96-1.13,2.57-4.5,4-7.54,4.28-9.11h0c1.25-4.69,1.94-7.76,2.07-9.19h0l3.21-10.72v-.03c.19-.63,.49-2.32,.9-5.07h0l.97-4.03c.03-.11,.04-.21,.05-.32,.14-1.6,.26-2.6,.36-2.99h0c.04-.1,.07-.21,.09-.31,.14-.64,.31-1.04,.5-1.21,.93-.82,1.03-2.24,.2-3.18-.44-.51-1.07-.76-1.69-.76Z"/><path d="M126.73,105.27c.26,.49,.33,.99,.18,1.48h0c.1-.49,.05-1.01-.19-1.48h0Zm9.57-36.44c-.93,0-1.8,.58-2.13,1.51-.01,.04-.03,.08-.04,.13h0c-.19,.61-.52,2.36-1.01,5.27h0l-3.49,10.85h0c-.02,.05-.04,.1-.05,.16h0c-.16,.52-.53,2.29-1.11,5.29h0l-1.49,5.72h0c-.25,.81-.5,1.41-.73,1.79-.04,.07-.08,.14-.12,.22-.25,.51-.8,1.27-1.67,2.26-.1,.11-.19,.24-.26,.37-.82,1.45-1.32,2.4-1.5,2.84h0c-.35,.85-.29,1.61,.17,2.29,.43,.64,1.14,.99,1.87,.99,.43,0,.87-.12,1.26-.38,.47-.32,.78-.77,.91-1.28h0c.14-.31,.51-.99,1.1-2.04h0c.99-1.15,1.69-2.14,2.11-2.95h0c.44-.72,.84-1.68,1.21-2.89l.03-.09,1.52-5.85s.02-.09,.03-.14c.52-2.66,.85-4.25,.98-4.76h0c.02-.06,.04-.11,.06-.17l3.56-11.04c.03-.1,.06-.21,.08-.32,.46-2.75,.76-4.35,.89-4.8h0c.41-1.17-.21-2.46-1.39-2.86-.24-.08-.49-.12-.74-.12Z"/><path d="M35.48,69.56c-.84,0-1.65,.48-2.03,1.29-.53,1.12-.05,2.46,1.07,3l3.81,1.81h0l2,1.92c.11,.1,.22,.19,.35,.27l2.56,1.63,.08,.05c.4,.23,.82,.41,1.27,.55,.07,.02,.14,.04,.21,.05,.6,.12,2.04,.53,4.3,1.21,.06,.02,.12,.03,.18,.05,.8,.17,1.76,.29,2.88,.35h0c.26,.01,.5,.02,.75,.02,.78,0,1.49-.07,2.12-.2l.35-.11-.34,.1c1.08-.23,1.9-.5,2.46-.8h0c.44-.23,.79-.52,1.05-.85h0c.77-.97,.61-2.39-.37-3.16-.41-.33-.91-.49-1.4-.49-.55,0-1.09,.2-1.51,.58h0c-.22,.09-.62,.2-1.2,.33h-.01c-.31,.07-.7,.1-1.14,.1-.17,0-.34,0-.53-.01h0c-.83-.04-1.52-.12-2.07-.23h0c-2.21-.67-3.7-1.09-4.48-1.26h0c-.07-.02-.14-.05-.2-.09h0l-2.35-1.49h0l-2.11-2.02c-.17-.17-.37-.3-.59-.41l-4.14-1.96c-.31-.15-.64-.22-.96-.22Z"/><path d="M52.79,61.74c-.78,0-1.54,.41-1.96,1.14-.61,1.08-.24,2.45,.82,3.05h.03c.05,.05,.09,.07,.11,.08h0s.05,.05,.07,.08c.45,.52,1.08,.79,1.72,.79,.51,0,1.03-.18,1.46-.54,.95-.8,1.06-2.22,.26-3.17-.16-.19-.33-.36-.51-.52h0l.05,.04-.12-.11c-.09-.08-.19-.15-.28-.22h0c-.07-.05-.15-.11-.23-.16h0c-.07-.04-.16-.1-.26-.16h-.02c-.35-.21-.73-.31-1.11-.31Z"/><path d="M40.47,59.25h0l.49,.4c.96,.78,1.11,2.2,.32,3.17-.78,.96-2.2,1.11-3.17,.32h0l-.49-.4c-.96-.78-1.11-2.2-.32-3.17,.78-.96,2.2-1.11,3.17-.32Z"/></g></g></svg>