<?xml version="1.0" encoding="UTF-8"?><svg id="Layer_2" xmlns="http://www.w3.org/2000/svg" viewBox="0 0 123.28 122.15"><g id="Layer_1-2"><g id="layer1"><path d="M77.69,35.98c-.68,0-1.39,.25-2.03,.78h0l.08-.07h0c-.11,.1-.22,.21-.33,.32h0c-.66,.7-1.32,1.81-1.97,3.31v.04l-2.8,6.72c-.04,.1-.08,.21-.11,.31l-1.29,4.58h0c-.85,1.39-1.38,2.36-1.61,2.9-.09,.21-.16,.42-.21,.63h0c-.37,1.06-.8,3.13-1.3,6.21h0c-1.04,2.62-1.77,5.03-2.2,7.25h0c-1.49,7.35-2.35,12.43-2.6,15.26h0c-.1,.97-.7,3.34-1.8,7.12-.01,.05-.03,.1-.04,.16-.16,.69-.33,1.66-.5,2.9h0c-.17,1.26-.26,2.26-.27,3,0,.16,.01,.31,.04,.46h0c.07,.68,.06,3.16-.03,7.46h0c-.07,1.87-.59,5.24-1.57,10.1-.02,.08-.03,.16-.04,.24-.18,1.62-.14,3.04,.12,4.28,.27,1.31,1.42,2.2,2.71,2.2,.19,0,.38-.02,.57-.06,1.5-.31,2.46-1.78,2.15-3.27-.13-.62-.15-1.41-.06-2.36h0c1.03-5.16,1.59-8.82,1.66-10.97v-.04c.1-4.36,.1-7.06,0-8.11h0c.01-.5,.08-1.22,.21-2.16h0c.14-.98,.27-1.75,.38-2.28h0c1.21-4.14,1.88-6.87,2-8.17v-.02c.23-2.62,1.07-7.51,2.52-14.67v-.02c.38-1.96,1.06-4.14,2.04-6.55,.08-.19,.13-.39,.17-.6,.5-3.1,.86-4.95,1.1-5.54h0c.06-.13,.1-.27,.14-.4h0c.17-.37,.64-1.18,1.4-2.41h0c.13-.22,.24-.45,.3-.7l1.34-4.76,2.72-6.56h0c.36-.84,.65-1.38,.86-1.63h0l.19-.18h0c1-.99,1.09-2.6,.18-3.71-.52-.64-1.27-.98-2.07-.98Z"/><path d="M98.89,72.23c.1,0,.2,0,.3,.02h0c-.1-.01-.21-.02-.31-.02-.08,0-.16,0-.23,0,.09,0,.17-.01,.25-.01Zm-27.56-5.69c-.79,0-1.57,.33-2.12,.98-.99,1.17-.84,2.91,.33,3.9,.09,.08,.19,.15,.28,.22h0c.78,.58,1.6,.88,2.46,.88h.05c.4,0,.78-.1,1.14-.26h0c.21-.03,.48-.04,.82-.04,1.62,0,4.74,.31,9.36,.92h0c3.06,1.35,6.59,2.31,10.57,2.87h0c1.79,.87,2.99,1.4,3.59,1.59,.2,.06,.39,.11,.58,.14h0c1.22,.31,2.9,.58,5.04,.81h0c.44,.12,.88,.3,1.33,.54h0c5.83,3.98,7.89,8.52,6.18,13.61h0c-.37,.89-.67,1.45-.91,1.7h0c-.13,.09-.26,.2-.37,.31h0c-.48,.29-1.6,.83-3.36,1.62-.2,.09-.38,.2-.56,.33l-1.83,1.4h0c-4.72,2.23-7.7,3.34-8.96,3.34-.05,0-.1,0-.14,0h0c-.05,0-.11,0-.16-.01l-7.03-.29h0c-9.96-1.18-15.67-1.99-17.14-2.44h0s-.09-.05-.14-.07c-2.81-1.38-4.51-2.4-5.09-3.06h0c-.4-1.09-1.45-1.81-2.59-1.81-.2,0-.4,.02-.61,.07-1.49,.33-2.43,1.81-2.09,3.31,.13,.57,.39,1.12,.79,1.65h0c1,1.33,3.35,2.91,7.03,4.74h0c.21,.13,.45,.24,.71,.33h0c1.6,.58,7.81,1.51,18.61,2.79,.07,0,.14,.01,.21,.02l7.1,.29h0c.12,0,.26,.01,.39,.01,2.25,0,6.19-1.33,11.81-4,.18-.08,.35-.19,.5-.31l1.78-1.37h0c2.11-.95,3.48-1.65,4.11-2.09h0c.17-.12,.32-.24,.46-.37h0c.18-.13,.35-.28,.52-.45h0c.78-.78,1.53-2.01,2.22-3.72,.02-.05,.04-.11,.06-.17,2.62-7.79-.2-14.48-8.47-20.05-.07-.05-.14-.09-.21-.13-.96-.53-1.94-.92-2.94-1.15-.11-.03-.23-.05-.35-.06-2.03-.21-3.53-.45-4.52-.71h0l.06,.02-.11-.03c-.07-.02-.15-.04-.22-.05h0c-.45-.16-1.49-.64-3.13-1.45h0c-.27-.13-.56-.22-.86-.26-3.78-.5-7.05-1.38-9.81-2.64-.25-.11-.52-.19-.79-.23-4.89-.65-8.43-.98-10.64-.98-.65,0-1.19,.03-1.61,.09h0c-.38-.18-.78-.27-1.19-.27Z"/><path d="M74.71,48.95h0c.67,0,1.25,.4,1.74,1.17h0c-.41-.62-1.05-1.02-1.75-1.17h0Zm20.95-7.47c-2.06,0-6.18,.85-12.37,2.55-.06,.02-.11,.03-.17,.05-1.88,.65-3.18,1.18-3.88,1.58-.08,.05-.16,.1-.24,.15-1.38,1-2.98,2.03-4.8,3.08h-.05c-.4,0-.81,.09-1.19,.27-1.38,.66-1.96,2.31-1.3,3.69,.03,.07,.07,.14,.11,.21h0c.64,1.13,1.46,1.69,2.44,1.69,.59,0,1.25-.2,1.96-.61h0c2.24-1.27,4.21-2.51,5.91-3.73h0c.42-.23,1.33-.58,2.73-1.07h0c5.71-1.57,9.25-2.35,10.63-2.35,.09,0,.17,0,.24,0,.04,0,.08,0,.12,0,.49,.02,.86,.08,1.09,.16h0l9.95,3.78h0l7.81,4.2h0c2.97,2.74,3.68,5.26,2.15,7.56-.04,.06-.08,.13-.12,.2-.24,.43-.5,.77-.79,1.03h0c-2.66,1.39-5.61,3.33-8.85,5.83h0c-1.32,.1-2.72,.47-4.2,1.12-1.4,.61-2.04,2.24-1.43,3.64,.45,1.04,1.47,1.66,2.54,1.66,.37,0,.74-.07,1.1-.23,1.03-.45,1.92-.68,2.67-.69,.26,0,.51-.04,.76-.12,.59-.18,1.14-.44,1.64-.77,.05-.03,.1-.07,.15-.11,3.15-2.45,5.97-4.3,8.44-5.56,.15-.08,.3-.17,.43-.27,.9-.7,1.66-1.58,2.29-2.66h0c3.34-5.03,2.24-10.03-3.32-14.98-.16-.14-.34-.27-.53-.37l-8.25-4.44c-.11-.06-.22-.11-.33-.15l-10.16-3.86-.04-.02c-.75-.27-1.63-.43-2.65-.48h0c-.14-.01-.29-.02-.45-.02Z"/><path d="M66.34,65.45c1.39,0,2.19,.79,2.39,2.38h0c-.17-1.26-1.18-2.24-2.45-2.38h.06ZM29.93,30.68c-.14,0-.27,.01-.41,.03-6.9,1.04-11.32,2.75-13.24,5.14-.04,.05-.08,.1-.11,.15-2.53,3.61-3.83,6.91-3.89,9.91,0,.14,0,.28,.02,.42,.3,2.27,.67,4.07,1.11,5.4,.08,.23,.18,.45,.32,.65l3.78,5.72c.07,.1,.14,.2,.22,.29l4.11,4.73c.27,.31,.6,.56,.98,.72l4.74,2.07c.07,.03,.14,.06,.22,.08,3.34,1.14,5.93,1.8,7.76,1.99h0c1.75,.73,2.97,1.16,3.64,1.31h0c.22,.05,.43,.08,.63,.09h0c5.64,.56,8.88,.98,9.73,1.27h0c.32,.13,.67,.19,1.01,.19,.06,0,.12,0,.17,0l7.05-.45h0l7.42,.51h0c.25,.05,.52,.08,.82,.08,.15,0,.31,0,.48-.02h0c.06,0,.12-.01,.19-.02h0c.83-.1,2.79-.5,5.89-1.21,1.49-.34,2.42-1.83,2.08-3.32-.29-1.28-1.43-2.15-2.69-2.15-.2,0-.41,.02-.62,.07-2.68,.61-4.39,.98-5.13,1.09h0l-8.22-.56c-.06,0-.13,0-.19,0-.06,0-.12,0-.18,0l-6.72,.43h0c-1.55-.4-5.07-.87-10.55-1.41h0c-.43-.11-1.44-.49-3.04-1.17h0c-.29-.12-.6-.19-.91-.21-1.34-.08-3.55-.64-6.65-1.7h0l-4.09-1.79h0l-3.58-4.12-3.45-5.23h0c-.28-.92-.52-2.19-.74-3.79h0c.09-1.82,1.02-4.01,2.79-6.57h0c1.01-1.24,4.14-2.27,9.39-3.08h0c4.79,.52,8.27,.78,10.43,.78,.29,0,.56,0,.8-.01h0l11.71,2.14h0c4.33,1.43,6.84,2.37,7.53,2.8h-.01c.08,.06,.16,.12,.25,.18,4.97,3.12,7.88,5.21,8.73,6.27,.55,.68,1.35,1.04,2.16,1.04,.61,0,1.21-.2,1.72-.6,1.19-.95,1.39-2.69,.44-3.89-1.22-1.53-4.53-4-9.92-7.39h0c-.12-.1-.26-.19-.4-.28h0c-1.08-.69-4.07-1.84-8.96-3.45-.12-.04-.24-.07-.37-.09l-12.2-2.23c-.16-.03-.33-.05-.5-.05-.06,0-.12,0-.18,0-.25,.02-.55,.02-.9,.02-1.94,0-5.31-.26-10.11-.79-.1-.01-.2-.02-.3-.02Z"/><path d="M29.17,64.33c-.09,0-.18,0-.27,0-.14,0-.28,.02-.42,.05-1.4,.28-3,.46-4.82,.52-.15,0-.3,.02-.45,.05-2.34,.47-4.14,1-5.39,1.59l-.08,.04c-3.72,1.89-7.04,4.08-9.96,6.6h0c-1.27,.84-2.61,2.27-4.03,4.28l-.03,.04c-2.59,3.8-3.8,7.5-3.64,11.12h0c-.06,.32-.08,.65-.07,1H0c.07,1.95,1.54,5.51,4.41,10.69,.06,.11,.13,.21,.2,.31,1.88,2.53,3.29,4.14,4.25,4.83h0c.14,.1,.28,.19,.42,.27h0l.07,.05h0c.76,.53,2.17,1.17,4.24,1.91h0c1.58,1.5,3.84,2.97,6.8,4.4h0s.07,.04,.1,.05h0c.54,.27,1.27,.51,2.19,.73l.07,.02,8.05,1.7c.13,.03,.26,.04,.39,.05,.27,.02,.53,.03,.79,.03,.82,0,1.57-.09,2.26-.27,.05-.01,.1-.03,.15-.04l3.3-1.07h0l12.46-2.73c.1-.02,.2-.05,.3-.08,3.51-1.2,5.94-2.97,7.31-5.33,.77-1.32,.32-3.01-1-3.78-.44-.26-.92-.38-1.39-.38-.95,0-1.88,.49-2.39,1.38-.66,1.14-2.06,2.08-4.19,2.83h0l-12.42,2.72c-.09,.02-.18,.04-.26,.07l-3.36,1.09h0c-.21,.05-.46,.07-.75,.07-.08,0-.16,0-.24,0h0l-7.85-1.66h0c-.46-.11-.78-.21-.94-.28h0c-.05-.03-.11-.06-.16-.08-2.67-1.29-4.56-2.53-5.68-3.71-.31-.32-.68-.57-1.1-.72-1.83-.64-2.97-1.1-3.42-1.39h0c-.15-.13-.31-.23-.47-.33h0c-.49-.37-1.45-1.52-2.89-3.45h0c-2.29-4.14-3.5-6.78-3.64-7.93h0c.08-.3,.11-.6,.08-.91-.19-2.47,.69-5.14,2.65-8.01h0c1.07-1.52,1.95-2.48,2.64-2.9,.13-.08,.26-.17,.37-.27,2.59-2.25,5.56-4.22,8.9-5.92h0c.82-.38,2.12-.76,3.91-1.13h0c1.57-.06,3.02-.2,4.35-.41h0c.42,.25,.91,.39,1.41,.39,.25,0,.51-.04,.77-.11,1.47-.42,2.32-1.96,1.89-3.42-.49-1.69-1.6-2.54-3.34-2.54Z"/><path d="M28.34,44.96c-1.38,0-2.57,1.02-2.74,2.42l-.2,1.56h0c-.02,.18-.04,.37-.05,.55h0v.84c.03,.37,.09,.74,.18,1.1,.3,1.27,1.44,2.13,2.69,2.13,.21,0,.43-.02,.64-.08,1.49-.35,2.4-1.85,2.05-3.33-.01-.05-.02-.1-.03-.15h0v-.29h0s0-.05,0-.08h0l.2-1.56c.19-1.52-.89-2.9-2.4-3.09-.12-.01-.23-.02-.35-.02Z"/><path d="M46.39,49.47c-.42,0-.84,.09-1.23,.29-1.37,.68-1.92,2.35-1.53,2.48h0l.29,1.24c.43,.86,1.08,1.47,1.97,1.85h0c.25,.11,.52,.19,.8,.25l.12,.02,.16,.03,.11,.02,.74,.09c.12,.01,.23,.02,.35,.02,1.38,0,2.57-1.02,2.74-2.42,.19-1.52-.89-2.9-2.4-3.09l-.2-.03h0c-.51-.48-1.19-.74-1.89-.74Z"/><path d="M27.11,80.51c-.72,0-1.45,.28-1.99,.84-1.06,1.1-1.03,2.85,.15,3.99h0c.13,.12,.25,.23,.38,.33h0c.08,.07,.17,.13,.26,.2h0c.11,.08,.26,.18,.43,.29l.23,.13h0c.36,.19,.73,.34,1.1,.44,.24,.06,.47,.09,.71,.09,1.23,0,2.35-.82,2.67-2.06,.38-1.45-.46-2.93-1.88-3.35h-.01l-.04-.03s-.06-.05-.09-.08l-.08-.08h0c-.52-.47-1.18-.7-1.84-.7Z"/><path d="M44.27,84.45h0l-.08,.61c-.19,1.52-1.57,2.59-3.09,2.4-1.52-.19-2.59-1.57-2.4-3.09h0l.08-.61c.19-1.52,1.57-2.59,3.09-2.4,1.52,.19,2.59,1.57,2.4,3.09Z"/><path d="M29,96.33c-.79,0-1.56,.34-2.09,.95h0c-.1-.01-.21-.02-.32-.02-.15,0-.31,.01-.47,.04-1.51,.26-2.52,1.69-2.26,3.19,.14,.84,.28,1.46,.41,1.87h0c.04,.11,.07,.22,.11,.32,.02,.04,.03,.08,.05,.13,.29,.64,.71,1.13,1.24,1.46h0c.44,.32,.96,.47,1.54,.47,.31,0,.63-.04,.98-.13,.11-.03,.22-.07,.33-.11,.81-.32,1.44-.88,1.89-1.67h0c.11-.2,.22-.41,.3-.64,.02-.05,.03-.09,.05-.14,.12-.38,.22-.64,.29-.8,.01-.02,.02-.05,.03-.07h0c.04-.1,.18-.39,.41-.88,.66-1.38,.09-3.03-1.29-3.69-.39-.19-.8-.28-1.2-.28Z"/><path d="M77.73,76.59c-.46,0-.93,.12-1.36,.36-1.33,.75-1.79,2.44-1.04,3.77,.07,.13,.15,.25,.25,.39h0c.14,.19,.32,.42,.54,.67h0c.06,.07,.12,.14,.19,.21h0c.13,.14,.34,.33,.63,.59h0s.03,.07,.05,.11c.47,1.01,1.47,1.6,2.51,1.6,.39,0,.79-.08,1.17-.26,1.38-.65,1.98-2.29,1.34-3.68-.12-.26-.24-.48-.35-.67h0c-.12-.2-.24-.37-.37-.53h0c-.13-.16-.26-.31-.4-.46-.05-.05-.09-.09-.14-.14-.21-.19-.36-.32-.44-.4h0c-.07-.08-.12-.14-.16-.19h0c-.51-.87-1.44-1.36-2.39-1.36Z"/><path d="M72.38,84.54c-1.52,0-2.76,1.23-2.77,2.75v.83c.02,.14,.03,.28,.04,.41v.19l.02,.02c.01,.14,.03,.27,.04,.41,.17,1.4,1.36,2.44,2.74,2.44,.11,0,.22,0,.33-.02,1.52-.18,2.6-1.56,2.42-3.08,0-.07-.02-.14-.02-.21h0v-.16h-.01c0-.07,0-.14-.01-.21h0v-.57c0-1.53-1.23-2.78-2.76-2.79h-.02Z"/><path d="M89.97,81.51c-.11,0-.23,0-.35,.02-1.52,.19-2.59,1.57-2.4,3.09l.02,.15c.02,.13,.04,.27,.08,.4l.04,.13c.04,.15,.1,.3,.16,.44l.06,.12c.07,.16,.16,.31,.27,.45l.07,.1c.11,.15,.23,.28,.36,.4l.09,.08c.13,.12,.27,.22,.41,.31l.11,.07c.13,.08,.27,.15,.42,.21l.13,.05c.12,.05,.25,.09,.38,.12l.15,.04c.11,.03,.22,.05,.33,.06l.17,.02c.11,.01,.23,.02,.34,.02,1.38,0,2.57-1.03,2.74-2.43,.14-1.11-.41-2.15-1.31-2.7h0c-.51-.71-1.34-1.17-2.25-1.17Z"/><path d="M96.18,55.74c-.35,0-.7,.06-1.04,.2-1.42,.57-2.1,2.18-1.53,3.6,.18,.44,.36,.91,.56,1.4h0c.09,.23,.2,.45,.32,.66h0c.11,.18,.23,.36,.39,.54h0c.06,.07,.13,.15,.21,.24,.04,.04,.08,.09,.13,.13,.37,.35,.79,.62,1.27,.83,.35,.15,.72,.22,1.08,.22,1.08,0,2.1-.63,2.55-1.68,.52-1.21,.1-2.59-.93-3.33h0c-.15-.38-.29-.73-.43-1.08-.44-1.08-1.47-1.73-2.57-1.73Z"/><path d="M86.61,53.8c-.8,0-1.6,.35-2.15,1.02-.37,.46-.65,.96-.81,1.48-.02,.05-.03,.1-.04,.15l-.04,.15c-.03,.1-.05,.2-.06,.31l-.02,.15c-.01,.11-.02,.21-.03,.32v.15c0,.11,0,.21,0,.32v.15c.02,.07,.03,.14,.04,.2,.04,.26,.11,.51,.19,.74h0c.14,.4,.33,.74,.57,1.03,.13,.16,.29,.31,.46,.43l.04,.03c.48,.36,1.07,.56,1.66,.56,.11,0,.22,0,.33-.02h.04c.36-.05,.7-.16,1.02-.34,.57-.32,.99-.79,1.27-1.43h0c.08-.19,.14-.39,.2-.61h0l.02-.08c.11-.45,.1-.9,0-1.32h0c.23-1-.1-2.08-.95-2.77-.51-.42-1.13-.62-1.74-.62Z"/><path d="M98.27,29.24c-1.45,0-2.67,1.13-2.76,2.6v.17c-.02,.13-.02,.27,0,.4v.15c.03,.15,.05,.3,.09,.45l.04,.14c.04,.16,.1,.32,.17,.47l.06,.13c.07,.15,.16,.3,.25,.44l.08,.12c.09,.13,.2,.26,.31,.37l.11,.11c.1,.1,.21,.2,.33,.28l.13,.09c.05,.04,.11,.08,.16,.11,.28,.17,.58,.31,.91,.42,.29,.1,.59,.14,.88,.14,1.16,0,2.24-.73,2.62-1.89,.36-1.08,.02-2.23-.79-2.94h0c-.38-.97-1.3-1.69-2.41-1.76-.06,0-.11,0-.17,0Z"/><path d="M77.87,16.7c-.48,0-.96,.12-1.4,.38-.05,.03-.11,.06-.16,.1h0c-1.22,.77-1.8,1.78-1.74,3.02,0,.06,0,.13,.02,.19,.21,1.76,1.1,2.64,2.66,2.64,.18,0,.38-.01,.58-.04h0c.66-.08,1.29-.38,1.88-.9h0s.07-.06,.1-.09c.75-.69,1.03-1.7,.83-2.63h0c-.02-.44-.14-.89-.38-1.3-.52-.88-1.44-1.37-2.39-1.37Z"/><path d="M80.04,0c-1.39,0-2.82,.13-4.29,.39-.22,.04-.43,.1-.63,.19-2.99,1.32-7.3,4.22-12.92,8.69h0c-1.46,1.16-2.65,2.67-3.57,4.53-.05,.09-.09,.19-.12,.28l-3.75,10.32c-.07,.2-.12,.42-.15,.63-.21,1.89,.45,3.81,1.98,5.77,.23,.29,.51,.53,.84,.71,1.69,.94,3.49,2.24,5.39,3.91,.25,.22,.54,.4,.86,.51l13.27,4.96h0c.58,.22,1.57,.5,2.97,.82,.21,.05,.42,.07,.62,.07,1.26,0,2.4-.87,2.69-2.15,.34-1.49-.59-2.97-2.08-3.32-1.17-.27-1.91-.47-2.22-.59l-.05-.02-12.78-4.78h0c-1.87-1.61-3.68-2.93-5.43-3.95h0c-.31-.44-.48-.81-.53-1.1h0l3.53-9.71h0c.55-1.08,1.22-1.94,2.02-2.58h0c5.04-4.02,8.85-6.62,11.41-7.82h0c1.03-.17,2.03-.25,3-.25,.87,0,1.71,.07,2.53,.2,.04,0,.09,.01,.13,.02,.39,.05,.81,.13,1.28,.25h0c2.4,1.04,4.66,1.77,6.78,2.19h0l6.24,3.81h0c6.32,6.59,10.28,11.3,11.88,14.13h0c.43,.86,.54,1.83,.34,2.92-.01,.06-.02,.12-.03,.18h0c-.32,.83-1.43,2.9-3.33,6.21l-.04,.07c-.81,1.5-1.74,2.79-2.8,3.87h0c-.38-.18-.79-.28-1.21-.28s-.83,.09-1.23,.29c-1.37,.68-1.93,2.34-1.25,3.71,.19,.39,.39,.73,.61,1.02h0c.83,1.15,1.77,1.73,2.82,1.73,.51,0,1.05-.14,1.62-.42h0c.28-.14,.55-.32,.8-.54h0c2.19-1.73,4.02-3.96,5.49-6.68h0c2.24-3.91,3.53-6.4,3.86-7.47h0c.08-.26,.14-.51,.16-.76h0c.42-2.35,.11-4.51-.94-6.49l-.04-.07c-1.85-3.28-6.17-8.45-12.97-15.52-.16-.17-.35-.32-.55-.44l-6.97-4.25c-.3-.18-.63-.3-.97-.36-1.88-.33-3.96-.99-6.22-1.98-.12-.05-.25-.1-.45-.15h0c-.74-.2-1.44-.34-2.1-.43h0c-1.11-.18-2.24-.27-3.4-.27Z"/></g></g></svg>