<?xml version="1.0" encoding="UTF-8"?><svg id="Layer_2" xmlns="http://www.w3.org/2000/svg" viewBox="0 0 244.62 224.21"><g id="Layer_1-2"><g id="layer1"><path d="M99.28,24.63c.54,0,1.07,.28,1.57,.84h0c-.43-.46-1.03-.72-1.65-.72-.13,0-.27,.01-.41,.04-.22,.04-.44,.12-.64,.22h0c.38-.25,.76-.38,1.12-.38Zm-22.26,9.92h0c-.2,0-.4,.03-.59,.08h0c.17-.05,.36-.08,.58-.08Zm13.84,9.77h0Zm1.78,.54c.17,.17,.3,.38,.39,.64h0c-.09-.24-.23-.45-.39-.64h0Zm8.15-31.76c-.22,0-.44,.03-.65,.09-.71,.21-1.92,.39-3.63,.53h0c-1.04-.19-1.98-.28-2.8-.28-.71,0-1.34,.07-1.89,.21-.14,.04-.28,.09-.42,.16l-2.81,1.38c-.5,.24-.89,.67-1.1,1.18-.62,1.54-1.77,3.77-3.44,6.71h0c-.73,1.09-1.51,2.09-2.32,2.99-.09,.1-.17,.21-.24,.33l-4.64,7.61h0c-.29,.34-.5,.58-.66,.72h0c-.8,.33-1.36,1.11-1.38,2.03-.02,1.24,.96,2.27,2.21,2.29h.05c.59,0,1.17-.21,1.74-.64h0c.43-.33,.97-.88,1.62-1.66h0c.07-.09,.14-.18,.2-.27l4.61-7.55h0c.93-1.06,1.82-2.21,2.65-3.46,.03-.04,.06-.09,.08-.13,1.52-2.66,2.65-4.82,3.38-6.47h0l1.82-.89h0c.17-.03,.37-.04,.59-.04,.57,0,1.31,.09,2.23,.27,.14,.03,.29,.04,.43,.04,.06,0,.12,0,.17,0,1.19-.09,2.22-.21,3.08-.34h0l-1.8,3.65c-.12,.24-.2,.51-.22,.78-.18,1.87-.32,3.09-.42,3.66h0c-.04,.08-.08,.17-.11,.26-.54,1.5-1.09,2.69-1.65,3.55-.15,.23-.26,.48-.31,.75l-.55,2.56h0l-2.58,4.36s-.06,.1-.08,.15c-.4,.81-.74,1.87-1.01,3.17h0c-.65,.87-1.13,1.69-1.46,2.46-.04,.09-.07,.19-.1,.28-.22,.79-.38,1.46-.48,2h0c-.11,.28-.17,.6-.15,.92,0,.07,0,.14,.01,.19h0c.11,1.46,.83,2.19,2.16,2.19,.06,0,.12,0,.19,0h0c1.07-.04,1.76-.58,2.08-1.61,.05-.17,.08-.34,.09-.51,.02-.29,.15-.89,.4-1.79h0c.23-.51,.62-1.11,1.15-1.78,.23-.29,.38-.62,.45-.98,.2-1.07,.43-1.87,.68-2.43h0l2.74-4.63c.12-.21,.21-.44,.26-.67l.54-2.52h0c.61-1.01,1.19-2.24,1.74-3.71h0c.15-.24,.26-.51,.34-.81h0c.16-.59,.34-1.99,.56-4.19h0l2-4.05c.07-.14,.12-.29,.16-.43v-.05h.01c.16-.67,.21-1.58,.14-2.74h0c-.03-.87-.39-1.56-1.07-2.08-.07-.05-.14-.1-.21-.14-.36-.22-.77-.37-1.21-.47h0c-.34-.07-.7-.11-1.08-.11h0Z"/><path d="M27.28,23.75h0l-.06,.07c-.1,.11-.18,.23-.25,.36h0c.09-.17,.19-.31,.31-.43h0Zm17.76,7.45c.61,0,1.15,.35,1.6,1.04h0c-.43-.65-1.13-1.01-1.86-1.02h0c.09-.01,.18-.02,.26-.02Zm-2.25,1.73h0Zm-.21-32.93c-.77,0-1.5,.39-1.91,1.07l-1.14,1.85c-.1,.16-.18,.33-.23,.51-.15,.48-.75,1.71-1.79,3.71h0s-.04,.08-.07,.12h0c-.33,.63-.78,1.96-1.33,3.97h0c-.15,.29-.52,.91-1.11,1.85h0c-.46,.73-.8,1.23-1.04,1.52v.02h-.02l-.02,.03c-1.93,2.45-3.4,4.18-4.4,5.21-.21,.22-.38,.47-.48,.75-.45,1.16-.95,2.11-1.5,2.85h0c-1.08,.23-1.85,1.22-1.77,2.35,.08,1.19,1.07,2.1,2.24,2.1,.05,0,.1,0,.15,0,.22-.02,.43-.04,.63-.08h0c.92-.17,1.59-.58,2.01-1.22h0c.86-1.05,1.62-2.36,2.27-3.93h0c1.08-1.15,2.54-2.88,4.38-5.21h0c.36-.44,.81-1.09,1.37-1.97h0c.77-1.23,1.26-2.06,1.46-2.51h0c.04-.09,.07-.17,.1-.26h0c.02-.05,.04-.11,.05-.16,.07-.27,.14-.52,.21-.76h0c.04,.85,.06,1.66,.05,2.43,0,.1,0,.2,.02,.3,.29,2.27,.52,4.49,.67,6.67v.05c.06,.64,.04,1.5-.06,2.57-.01,.12-.01,.25,0,.37,.11,1.62,.53,3.57,1.25,5.85h0c.15,1.2,.24,1.98,.26,2.32h0c-.4,.71-.41,1.61,.07,2.34,.54,.83,1.16,1.24,1.86,1.24,.44,0,.91-.16,1.41-.49h0c.61-.4,.98-1.02,1.11-1.87h0c.04-.24,.06-.54,.07-.9h0c.01-.12,.01-.25,0-.38-.02-.38-.13-1.4-.33-3.06-.02-.14-.05-.28-.09-.42-.62-1.9-.98-3.49-1.09-4.76h0c.11-1.25,.13-2.32,.05-3.19h0c-.15-2.21-.38-4.46-.67-6.76h0c0-2.29-.17-4.87-.53-7.73h0c.13-1.35,.19-2.73,.19-4.15,0-1.01-.67-1.89-1.64-2.16-.2-.06-.41-.08-.61-.08Z"/><path d="M8.29,37.69c.11,.21,.18,.41,.21,.61h0c-.04-.21-.11-.42-.21-.61h0Zm100.41,27.99c-.36,.13-.68,.36-.93,.65h0c.2-.29,.51-.5,.92-.65h0ZM12.87,88.23c.19,0,.4,.03,.61,.1h0c-.12-.02-.24-.03-.36-.03-.08,0-.15,0-.23,.01-.71,.07-1.35,.48-1.71,1.1,.46-.79,1.03-1.18,1.7-1.18ZM16.7,13.17h0c-1.24,0-2.25,1.01-2.25,2.25,0,3.46-.28,5.81-.84,7.06h0c-5.86,8.29-9.03,13.35-9.5,15.18-.1,.38-.14,.74-.11,1.07h0L.19,59.08v.02c-.26,1.41-.25,2.75,0,4.01v.04c.4,1.72,1.42,4.98,3.06,9.79h0c.04,.13,.1,.25,.16,.36l4.03,7.28h0c1.69,6.15,2.83,9.76,3.43,10.84h0c.26,.47,.59,.83,.98,1.07h0l14.51,16.16h0c1.2,1.42,3.11,4.87,5.73,10.35,.04,.07,.07,.14,.12,.21,1,1.62,2.13,2.78,3.38,3.48,.06,.04,.13,.07,.19,.1,.78,.34,1.55,.51,2.33,.51,.68,0,1.35-.13,2.02-.39l.08-.03,21.71-9.33c.13-.06,.26-.13,.38-.21,3.46-2.36,8.68-5.03,15.68-8.01,.34-.14,.64-.37,.87-.66,1.26-1.56,5.55-4.22,12.88-7.98,.22-.11,.42-.26,.59-.43,8.56-8.8,13.2-14.32,13.92-16.54h0s.03-.1,.04-.15h0l5.05-10.41h0c.24-.29,.42-.66,.56-1.1,.39-1.3,.55-4.84,.48-10.61,0-.26-.05-.52-.14-.76l-6.58-17.49c-.02-.06-.05-.12-.07-.17-.99-2.08-3.03-4.31-6.12-6.71h0c-4.99-4.69-16.17-8.32-33.54-10.9-.11-.02-.22-.02-.33-.02-.09,0-.17,0-.26,.01l-16.46,1.88h0c-.06,0-.13,0-.2,0-.24,0-.48,.03-.73,.08h0c-2.25,.45-8.34,4.35-18.28,11.7-.05,.03-.09,.07-.13,.11-4.89,4.23-7.7,7.09-8.43,8.58h0c-.14,.28-.23,.56-.29,.83h0c-2.27,6.88-3.35,11.76-3.24,14.63,.05,1.21,1.04,2.16,2.25,2.16,.03,0,.06,0,.09,0,1.24-.05,2.21-1.1,2.16-2.34-.09-2.35,.93-6.75,3.07-13.21,.02-.05,.03-.1,.04-.15h0c.52-.97,2.93-3.3,7.21-7.01h0c9.15-6.76,14.59-10.38,16.33-10.84h0s.1,0,.15,0c.09,0,.17,0,.26-.01l16.43-1.88h0c16.34,2.44,26.63,5.69,30.87,9.72,.06,.05,.12,.11,.18,.15,2.56,1.97,4.2,3.68,4.9,5.13h0l6.4,16.99h0c.06,4.69-.02,7.56-.23,8.62h0c-.06,.09-.11,.18-.16,.27l-5.34,11c-.09,.18-.15,.38-.19,.57h0c-.57,1.6-4.77,6.42-12.59,14.48h0c-7.13,3.67-11.66,6.51-13.58,8.52h0c-6.93,2.97-12.2,5.67-15.81,8.11h0l-21.46,9.22h0c-.11,.04-.23,.06-.35,.06-.14,0-.29-.03-.43-.08h0c-.51-.32-1.04-.89-1.57-1.73h0c-2.79-5.84-4.91-9.6-6.37-11.29l-.03-.04-14.92-16.6c-.05-.05-.1-.1-.15-.15h0c-.5-1.2-1.48-4.45-2.93-9.76-.05-.17-.12-.34-.2-.5l-4.05-7.31h0c-1.54-4.52-2.5-7.56-2.85-9.12h0c-.14-.69-.14-1.46,0-2.29h0l3.88-20.78c.03-.18,.04-.35,.04-.53h0c.56-1.54,3.52-6.1,8.88-13.7,.07-.1,.13-.2,.18-.31,.91-1.84,1.36-4.9,1.36-9.18,0-1.24-1.01-2.25-2.25-2.25Z"/><path d="M36.82,71.6s-.08,0-.13,0c-1.24,.07-2.19,1.13-2.12,2.37,.13,2.39,.7,4.35,1.7,5.87h0c1.2,2.26,3.96,5.55,8.28,9.87h0c2.66,3.13,6.42,5.3,11.29,6.51h0c.32,.12,.66,.2,1.03,.24h0c.15,.02,.31,.02,.47,.02,1.06,0,2.39-.33,3.97-.99h0c2.29-.71,4.46-1.78,6.51-3.22h0c1.23-.4,3.41-1.29,6.54-2.68h0l2.34-.78c.2-.07,.38-.16,.56-.27,.97-.66,1.66-1.38,2.09-2.16h0c.66-1.22,.69-2.45,.08-3.7h0s-.05-.1-.07-.15h0c-.41-.76-1.18-1.19-1.98-1.19-.36,0-.72,.09-1.06,.27-1.01,.54-1.44,1.74-1.04,2.78h0c-.07,.07-.17,.16-.3,.25h0l-2.1,.7c-.07,.02-.14,.05-.21,.08-3.37,1.5-5.51,2.37-6.42,2.63-.26,.07-.51,.19-.72,.35-1.77,1.28-3.63,2.22-5.59,2.82l-.06,.02h0l-.18,.06c-1.09,.46-1.83,.69-2.25,.69h-.03c-.1-.04-.21-.08-.32-.1-4.05-.97-7.1-2.69-9.16-5.16-.04-.05-.09-.1-.14-.15-4.11-4.1-6.63-7.08-7.57-8.92-.04-.08-.09-.16-.14-.24-.57-.85-.9-2.07-.99-3.68-.07-1.2-1.06-2.13-2.24-2.13Z"/><path d="M42.23,57.02c.2,.04,.38,.09,.53,.17h0c-.17-.08-.35-.14-.54-.17h0Zm1.02,.48h0s.08,.08,.13,.12h0s-.08-.08-.12-.11h0Zm-2.87,.33l1.03,.6h-.02l-.99-.57h0l-.02-.03h0Zm1.62,.94l.32,.18h0l-.32-.18h0Zm-1.57-6.6c-.47,0-.94,.15-1.34,.45-.93,.69-1.17,1.97-.59,2.95h0c.03,.08,.08,.22,.15,.39h0c-.36,.75-.29,1.62,.17,2.28h0c.03,.22,.08,.43,.13,.63,.01,.04,.03,.09,.04,.13,.08,.23,.15,.42,.22,.57h0c.1,.24,.22,.45,.36,.63h0c.31,.45,.68,.78,1.1,1h0c.37,.26,.75,.39,1.15,.39,.56,0,1.14-.26,1.76-.79,.02-.02,.04-.04,.07-.06,.09-.08,.18-.17,.26-.27,.18-.22,.33-.47,.46-.75h0c.12-.25,.22-.54,.31-.85v-.04c.08-.25,.12-.49,.15-.73h0c0-.06,.01-.12,.02-.18v-.35s0-.09,0-.13c-.03-.66-.21-1.27-.54-1.84h0c-.38-.67-.88-1.14-1.49-1.4h0c-.09-.24-.17-.44-.24-.58h0c-.09-.2-.2-.38-.31-.53h0c-.44-.59-1.12-.91-1.81-.91Z"/><path d="M71.42,53.07c-.66,0-1.31,.29-1.75,.84-.78,.96-.63,2.38,.33,3.16h0v.03h0s.02,.1,.02,.17h0c0,.3,0,.6-.03,.91v.07c-.01,.21-.04,.47-.09,.79h0c-.43,.24-.78,.62-.99,1.11-.21,.51-.35,1.02-.42,1.54v.08l-.04,.25v.08c-.03,.27-.03,.54,0,.8h0c0,.1,.01,.2,.03,.31h0c.03,.19,.07,.44,.14,.75h0s.02,.09,.03,.13c.13,.46,.34,.84,.61,1.15h0c.24,.26,.52,.46,.84,.59h0c.4,.17,.77,.25,1.11,.25,.89,0,1.58-.57,2.05-1.72l.03-.09c.2-.55,.47-1.63,.82-3.23v-.03c.21-1.03,.33-1.85,.37-2.48h0c.04-.48,.05-.95,.04-1.41h0v-.15c-.03-.32-.07-.64-.15-.94h0c-.09-.36-.21-.7-.37-1.02h0c-.26-.51-.6-.95-1.03-1.33h0s-.1-.08-.14-.12h0c-.42-.34-.92-.5-1.41-.5Z"/><path d="M117.22,139.93c.29,.47,.31,1.05,.06,1.72h0c.21-.56,.19-1.18-.06-1.72h0Zm47.9-83.79c-.6,0-1.16,.24-1.58,.65h0c-1.53,.88-8.07,2.06-19.6,3.54-.13,.02-.26,.04-.38,.08-10.45,3.26-16.36,4.9-17.72,4.91h-.02c-.15,0-.31,.02-.46,.05-3.33,.69-6.81,2.24-10.43,4.66h0c-1.46,.55-2.88,.98-4.25,1.29h0c-1.69,.15-3.1,.22-4.23,.22-1.56,0-2.58-.14-3.05-.43h0c-.39-.28-.84-.41-1.29-.41-.71,0-1.41,.33-1.84,.96-.71,1.02-.47,2.42,.55,3.13,.07,.05,.14,.09,.21,.14h0c1.15,.71,3.12,1.06,5.94,1.06,1.25,0,2.67-.07,4.26-.21,.1,0,.19-.02,.29-.04,1.71-.38,3.47-.92,5.27-1.61,.16-.06,.31-.14,.45-.23,3.14-2.12,6.1-3.48,8.87-4.09h0c2.07-.14,8.27-1.82,18.61-5.04h0c11.88-1.53,18.93-2.9,21.14-4.11h0c8.06,.25,13.84,1.53,17.33,3.86,.06,.04,.13,.08,.2,.12,1.67,.89,2.93,1.94,3.77,3.16h0l2.81,7.63c.05,.13,.1,.25,.17,.36l7.2,12.25h0l5.88,18.91h0c1.43,11.2,2.72,18.08,3.87,20.65h0c.02,.45-.03,.78-.17,.99h0c-1.35,2-4.2,4.39-8.54,7.15h0c-4.68,1.02-10.3,3.87-16.86,8.55h0c-10.11,3.31-19.37,6.9-27.79,10.76-.09,.04-.18,.09-.26,.14h0c-.51,.2-1.52,.31-3.04,.31-2.11,0-5.2-.2-9.27-.59h0l-13.74-6.41h-.02c-1.62-.75-3.65-2.74-6.08-5.98-.18-.24-.41-.44-.67-.59-1.8-1.05-2.95-1.78-3.46-2.18h0s-.03-.05-.04-.07l-10.89-17.3h0c-2.41-4.52-5.67-12.64-9.78-24.36h0c-.47-1.76-2.14-3.58-5.04-5.46-.38-.25-.8-.36-1.22-.36-.74,0-1.46,.36-1.89,1.03-.68,1.04-.38,2.44,.66,3.11,1.94,1.26,2.98,2.2,3.14,2.83,.02,.07,.04,.14,.06,.2,4.22,12.03,7.59,20.42,10.12,25.16,.03,.05,.05,.09,.08,.14l10.74,17.07h0c.15,.38,.4,.74,.76,1.09h0c.58,.57,1.96,1.49,4.13,2.77h0c2.78,3.65,5.3,5.99,7.55,7.01h0l14.06,6.56c.23,.11,.48,.18,.73,.2,3.97,.39,7.19,.59,9.67,.59s4.34-.21,5.31-.63h0c.15-.06,.28-.13,.41-.21h0c8.32-3.82,17.5-7.36,27.54-10.64,.22-.07,.43-.18,.62-.31,6.35-4.57,11.62-7.26,15.81-8.08,.27-.05,.53-.16,.77-.3,5.12-3.22,8.54-6.13,10.27-8.74l.14-.24-.1,.18c.72-1.16,.98-2.58,.78-4.27-.04-.31-.14-.62-.3-.89-.91-1.52-2.1-8.07-3.57-19.65-.02-.13-.04-.26-.08-.38l-6-19.31c-.05-.16-.12-.32-.21-.47l-7.23-12.3-2.84-7.71c-.06-.16-.13-.31-.22-.45-1.24-1.92-3.05-3.52-5.43-4.8h0c-4.33-2.86-11.13-4.39-20.41-4.59h-.05Z"/><path d="M134.35,150.2c-.51,.43-.8,1.05-.8,1.72h0c-.05-.68,.22-1.26,.8-1.72h0Zm5.27,23.97c.89,0,1.53,.46,1.92,1.39-.36-.85-1.19-1.38-2.07-1.38-.04,0-.08,0-.12,0h0c.09,0,.19-.01,.27-.01Zm-.83,.12h0c-.94,.3-1.57,1.17-1.57,2.14h0c-.07-1.14,.45-1.85,1.57-2.14h0Zm1.61,17.77c-.04,.14-.06,.28-.07,.42h0c0-.14,.03-.27,.07-.42h0Zm-6.48-53.2h-.04c-1.24,.02-2.23,1.05-2.21,2.29,.04,2.25,.1,3.66,.19,4.23h0c.03,.2,.07,.37,.13,.53h0c.94,3.47,1.46,5.51,1.57,6.11h0c.07,1.64,.65,5.43,1.76,11.38h0l.7,5.94s.01,.08,.02,.13c.74,4.24,1.15,6.61,1.21,7.1h0s0,.08,.01,.12l.87,7.25v.1c.22,1.23,.44,2.36,.69,3.39,.01,.05,.02,.09,.02,.09h0l.02,.06c.88,2.81,1.38,4.5,1.49,5.09h0s0,.09,0,.13l.7,9.5v.09c.57,4.87,1.2,9.21,1.92,13h0c.15,1.2,.52,2.46,1.08,3.79h0c-.19,.71-.04,1.49,.48,2.09l1.9,2.17c.44,.5,1.06,.76,1.69,.76,.48,0,.96-.15,1.36-.46,.94-.72,1.17-2.04,.52-3.03-1.53-2.32-2.39-4.32-2.58-6,0-.05-.01-.11-.02-.16-.69-3.66-1.31-7.86-1.85-12.59h0l-.69-9.29h0c0-.19,0-.38-.03-.58-.11-.72-.65-2.65-1.64-5.8h0c-.21-.87-.4-1.83-.57-2.88h0l-.84-7h0c0-.1-.01-.2-.02-.31h0c-.06-.48-.47-2.9-1.23-7.28h0l-.71-6.09s-.01-.1-.02-.15c-1.01-5.47-1.57-8.99-1.67-10.54h0c0-.19,0-.4-.03-.61h0c-.1-.66-.67-2.92-1.71-6.78h0c-.06-.38-.1-1.58-.14-3.58-.02-1.23-1.02-2.21-2.25-2.21Z"/><path d="M199.02,125.22c-.31,0-.62,.06-.92,.2-1.13,.51-1.64,1.84-1.14,2.97l2.34,5.24h0c.68,2.23,2.92,8.61,6.72,19.13h0c.89,2.5,1.99,5.11,3.29,7.86h0c1.53,3.98,2.36,6.27,2.48,6.85h0c.02,.14,.06,.27,.1,.4,.5,1.4,.84,5.34,1.03,11.83,0,.16,.03,.31,.06,.46l.52,2.16h0c-.09,.05-.19,.11-.27,.17-1,.74-1.22,2.14-.48,3.15,1.06,1.44,1.83,2.38,2.31,2.82h0c.55,.5,1.14,.75,1.77,.75,.08,0,.16,0,.25-.01h0c1.54-.16,2.23-1.03,2.07-2.63h0c-.01-.1-.03-.2-.05-.3l-1.67-6.9h0c-.2-6.64-.6-10.91-1.23-12.84h0c-.18-.82-1.09-3.38-2.74-7.67h0c-.02-.06-.04-.11-.07-.16-1.24-2.61-2.29-5.1-3.13-7.46h0c-3.88-10.76-6.11-17.11-6.69-19.07-.03-.1-.06-.19-.1-.28l-2.39-5.34c-.37-.84-1.2-1.33-2.06-1.33Z"/><path d="M210.21,58.41c-.22,0-.41,0-.57,.02h0c-.18,.02-.34,.05-.5,.08h0c-.8,.12-1.42,.28-1.87,.45h0l-.05,.02h0s-.1,.04-.14,.06c-.83,.41-3.15,1.21-6.94,2.42-.05,.02-.1,.03-.15,.05-1.84,.74-3.26,1.58-4.25,2.52h0c-1.82,1.63-3.17,3.21-4.06,4.75-.06,.1-.11,.21-.15,.32l-2.4,6.35c-.44,1.16,.15,2.46,1.31,2.9,.26,.1,.53,.15,.8,.15,.91,0,1.76-.55,2.1-1.45l2.33-6.15h0c.66-1.1,1.7-2.29,3.14-3.56l.06-.05c.56-.53,1.46-1.05,2.72-1.56h0c3.83-1.22,6.28-2.08,7.38-2.59h0c.17-.06,.52-.13,1.04-.21,.07-.01,.14-.02,.21-.04h0c.06,0,.13,0,.2,0,.76,0,2.43,.19,5.03,.58,.11,.02,.21,.02,.32,.02,4.42,.03,6.89,.07,7.41,.13h0c.07,.01,.13,.02,.2,.02,1.63,.11,2.64,.24,3.04,.41,.14,.06,.28,.1,.43,.13h0c.8,.27,3.37,1.66,7.73,4.17h0l6.56,4.72c.4,.29,.86,.42,1.31,.42,.7,0,1.39-.33,1.83-.94,.73-1.01,.5-2.41-.51-3.14l-6.68-4.8c-.06-.04-.12-.08-.19-.12-4.78-2.76-7.7-4.31-8.78-4.63h0c-.07-.02-.13-.04-.19-.05h0c-.86-.3-2.24-.52-4.14-.65h0s-.05,0-.08,0h0c-.67-.08-3.24-.13-7.72-.15h0c-2.69-.4-4.59-.6-5.69-.6Z"/></g></g></svg>