<?xml version="1.0" encoding="UTF-8"?><svg id="Layer_2" xmlns="http://www.w3.org/2000/svg" viewBox="0 0 302.78 326.08"><g id="Layer_1-2"><g id="layer2"><path d="M274.4,174.98c-.4,.16-.79,.24-1.17,.24-.24,0-.48-.03-.71-.1h0c.23,.05,.46,.07,.69,.07,.4,0,.79-.07,1.17-.21h0Zm-76.84,22.02h0c1.05,.45,1.67,1.17,1.83,2.14h0c-.27-.95-.94-1.73-1.84-2.14h0Zm9.23,25.96h0Zm.31,.66c.06,.23,.1,.48,.1,.75h0c0-.25-.04-.51-.1-.75h0Zm19.77-70.06h-.05c-8.58,.13-14.72,2.2-18.43,6.2h0c-6.41,6.51-10.99,14.08-13.73,22.71-.06,.19-.1,.38-.13,.58-1.26,9.64-1.85,15.25-1.78,16.81h0c.02,.46,.09,.88,.22,1.26h0l1.96,10.92c.05,.26,.12,.5,.22,.74l5.55,12.79h0c.14,.45,.38,.89,.7,1.33h0c.75,1.03,2.65,2.81,5.69,5.37,.13,.11,.26,.2,.4,.29l7.65,4.67c.2,.12,.42,.23,.65,.3l11.47,3.99c.36,.12,.73,.19,1.1,.19,.24,0,.49-.03,.73-.08,3.84-.86,10.14-1.29,18.9-1.29h0c3.21,.56,8.78,.87,16.69,.94h.03c.08,0,.16,0,.23,0,.79-.05,1.56-.32,2.33-.81,1.02-.65,2.2-1.83,3.53-3.55h0l18.54-11.34s.07-.04,.11-.07c2.45-1.63,4.03-2.8,4.73-3.49h0c.17-.17,.33-.35,.46-.53h0c1.91-2.29,3.29-7.55,4.14-15.79h0c1.25-5.81,.33-11.55-2.75-17.21-.07-.12-.14-.24-.22-.35l-6.23-8.7c-.2-.28-.44-.53-.71-.73-7.74-5.8-12.34-9.05-13.8-9.76h0c-.4-.19-.78-.32-1.16-.39h0c-7.55-2.22-13.55-3.33-18-3.33-.63,0-1.22,.02-1.79,.07h0c-4.09-1.6-6.86-2.46-8.32-2.58h0c-.16-.01-.32-.02-.47-.02-.08,0-.16,0-.23,0h0c-1.46-.15-2.9-.23-4.31-.23-6.24,0-11.97,1.49-17.19,4.47-1.61,.92-2.16,2.96-1.25,4.57,.62,1.08,1.75,1.69,2.91,1.69,.56,0,1.13-.14,1.66-.44,4.19-2.39,8.83-3.59,13.91-3.59,1.26,0,2.55,.07,3.87,.22,.12,.01,.25,.02,.37,.02,.1,0,.19,0,.29-.01h0c.95,.12,3.3,.93,7.05,2.42h0c.4,.16,.82,.24,1.24,.24,.14,0,.28,0,.43-.03,.59-.08,1.25-.11,1.96-.11,3.76,0,9.18,1.05,16.27,3.16l.06,.02h0c1.32,.74,5.36,3.64,12.11,8.69h0l5.82,8.13h0c2.22,4.18,2.87,8.35,1.95,12.5-.03,.13-.05,.25-.06,.38-.72,7.07-1.6,11.21-2.64,12.41-.05,.05-.09,.11-.14,.17h0c-.47,.42-1.68,1.28-3.62,2.58h0l-18.95,11.6c-.37,.22-.69,.52-.94,.86-.8,1.08-1.41,1.81-1.84,2.19h0c-7.38-.08-12.4-.38-15.09-.88-.2-.04-.41-.06-.61-.06h-.21c-8.64,0-15.14,.42-19.5,1.26h0l-10.26-3.57h0l-7.11-4.34h0c-2.3-1.93-3.73-3.22-4.28-3.87h0l-5.49-12.65h0l-1.97-11.02s-.02-.09-.03-.14h0c.01-1.5,.58-6.52,1.69-15.08h0c2.43-7.54,6.47-14.15,12.1-19.85l.07-.08c2.41-2.6,6.96-3.95,13.63-4.06,1.85-.03,3.32-1.55,3.29-3.4-.03-1.83-1.52-3.29-3.35-3.29Z"/><path d="M209.8,192c-.27,0-.54,.03-.82,.1-1.51,.38-2.53,1.74-2.53,3.23h0c-.72,1.12-.73,2.62,.1,3.77,.65,.91,1.68,1.4,2.72,1.4,.68,0,1.36-.2,1.95-.63,.37-.27,.7-.57,.98-.91,.05-.07,.1-.13,.15-.2l.12-.17c.1-.14,.19-.3,.27-.45l.09-.19c.08-.16,.14-.33,.19-.5l.06-.2c.05-.17,.09-.34,.11-.51l.03-.21c.02-.16,.03-.32,.03-.48v-.23c0-.14-.01-.29-.03-.43l-.03-.24c-.02-.12-.04-.25-.07-.37l-.06-.25c-.38-1.52-1.75-2.53-3.24-2.53Z"/><path d="M255.13,180.72c-1.65,0-3.09,1.23-3.31,2.91-.23,1.77,.96,3.39,2.69,3.72h0c.65,.66,1.51,1,2.38,1,.78,0,1.57-.27,2.21-.83,1.39-1.22,1.52-3.34,.3-4.72-.44-.5-.94-.92-1.5-1.25h0c-.29-.17-.59-.31-.9-.43-.04-.02-.09-.03-.13-.05l-.21-.07s-.09-.03-.13-.04c-.31-.09-.63-.16-.95-.2-.15-.02-.3-.03-.44-.03Z"/><path d="M240,210.12c1.06,.89,1.27,2.08,.62,3.57h0c.51-1.21,.26-2.61-.63-3.57h0Zm-7.6-10.21c-.36,0-.73,.06-1.09,.18-1.75,.6-2.68,2.51-2.07,4.26l1.81,5.24c.09,.25,.2,.48,.34,.71,1.13,1.78,2.32,3.21,3.55,4.29h0c.27,.3,.61,.58,1.01,.85,.79,.52,2.86,1.55,6.19,3.07h0c.17,.08,.36,.14,.54,.19l7.55,1.98c.08,.02,.17,.04,.25,.06,3.41,.62,6,.92,7.76,.92,.58,0,1.06-.03,1.46-.1h0c.33-.06,.65-.13,.93-.23h0l6.83-2.1h0c.2-.06,.4-.13,.61-.22h0c.92-.4,2.39-1.35,4.42-2.84h0c.13-.07,.26-.12,.38-.15l.09-.02h0c1.74-.5,2.77-2.29,2.32-4.05-.38-1.5-1.73-2.5-3.26-2.5-.29,0-.6,.04-.9,.11h0c-.74,.2-1.44,.5-2.12,.89-.1,.06-.21,.13-.3,.2-1.68,1.25-2.76,1.98-3.26,2.21h0l-6.81,2.09s-.05,.02-.07,.02h0c-.14,.02-.3,.03-.49,.03-1.11,0-3.18-.27-6.22-.82h0l-7.14-1.87h0c-2.49-1.14-4.09-1.91-4.78-2.3h0c-.09-.09-.18-.17-.28-.24-.75-.58-1.53-1.49-2.34-2.71h0l-1.68-4.87c-.48-1.39-1.78-2.26-3.16-2.26Z"/><path d="M167.09,181.72h0c-.11,.26-.25,.51-.44,.74h0c.18-.22,.32-.47,.44-.74h0Zm-5.56,.92h0c.64,.71,1.54,1.1,2.48,1.1,.24,0,.48-.03,.72-.08,.37-.08,.71-.22,1.02-.41h0c-.66,.46-1.29,.68-1.89,.68-.83,0-1.61-.43-2.34-1.3h0Zm-1.91,9.08h0Zm19.79-96.51c-1.69,0-3.14,1.27-3.32,2.98-.21,1.94-.44,3.27-.67,4h0c-.71,1.15-2.81,5.7-6.29,13.64l-.02,.04c-.99,2.34-1.66,4.51-1.99,6.5h0c-.38,2.21-.74,4.69-1.08,7.45h0v.03h0c-.12,.83-.37,4.23-.74,10.2h0l-1.91,15.23h0c-.23,1.5-.3,4.94-.2,10.34h0c-.03,.78-.09,1.6-.19,2.46v.08c-.18,2.07-.9,5.82-2.16,11.25h0c-.07,.23-.13,.47-.16,.72h0c-.11,.78-.25,3.33-.41,7.62h0c-.11,.99-.24,1.9-.37,2.71h0c-.17,.34-.28,.72-.32,1.12-.03,.32-.05,.58-.06,.76h0c-.1,2.06,.81,3.26,2.75,3.62h0c.31,.06,.61,.09,.88,.09,1.57,0,2.57-.91,3.02-2.73h0c.06-.25,.14-.66,.25-1.24v-.02c.2-1.11,.37-2.36,.53-3.76,0-.08,.01-.16,.02-.24,.14-3.67,.25-5.93,.33-6.77h0s.02-.09,.03-.13c1.35-5.81,2.14-9.92,2.35-12.35h0c.12-1.09,.19-2.14,.23-3.13,0-.06,0-.11,0-.17-.09-5.19-.05-8.26,.13-9.21,.01-.06,.02-.12,.03-.18l1.93-15.42c0-.07,.02-.14,.02-.21,.35-5.54,.57-8.73,.67-9.56h0c.02-.1,.04-.2,.05-.3,.33-2.66,.67-5.04,1.04-7.14v-.02c.25-1.46,.76-3.11,1.54-4.95h0c3.24-7.39,5.17-11.62,5.79-12.7h0c.19-.24,.35-.5,.47-.79,.52-1.24,.93-3.28,1.24-6.12,.2-1.84-1.13-3.49-2.96-3.69-.12-.01-.25-.02-.37-.02Z"/><path d="M195.38,117.78h0c-.09,.22-.16,.45-.2,.69-.18,1.03,.14,2.08,.85,2.85,.04,.05,.09,.1,.13,.14h0c-1.21-.95-1.48-2.17-.79-3.68h0Zm-11.05-13.05c-.63,0-1.26,.18-1.82,.54-1.55,1.01-1.99,3.08-.98,4.63,.96,1.48,2.32,2.93,4.06,4.35,.04,.03,.07,.06,.11,.09,2.08,1.55,4.16,3.15,6.25,4.82,.17,.13,.35,.25,.6,.38h0c1.92,1.01,3.16,1.67,3.71,2h0c1.74,1.83,3.85,3.57,6.34,5.22,.11,.07,.23,.14,.34,.2,3.74,1.88,6.66,3.21,8.75,3.98h0c1.32,.55,4.26,1.49,8.81,2.83h0c.5,.16,1.43,.52,2.76,1.07,.42,.17,.85,.25,1.27,.25,1.32,0,2.56-.78,3.1-2.07,.7-1.71-.11-3.67-1.82-4.37-1.57-.65-2.69-1.08-3.38-1.29h-.05c-4.45-1.32-7.18-2.2-8.18-2.63-.06-.03-.12-.05-.18-.07-1.82-.66-4.44-1.86-7.87-3.58h0c-1.83-1.23-3.39-2.49-4.68-3.79h0c-.29-.43-.72-.83-1.28-1.2h0c-.54-.36-1.96-1.14-4.27-2.36h0c-2.03-1.62-4.05-3.18-6.07-4.69h0c-1.2-.98-2.09-1.91-2.68-2.8-.64-.98-1.71-1.52-2.81-1.52Z"/><path d="M253.84,110.83h0c-.18,.96,.06,1.95,.67,2.71h0c-.72-.64-.94-1.55-.67-2.71h0Zm26.01-15.97c1.51,0,2.56,.13,3.14,.39h0c.32,.27,.7,.47,1.1,.6,1.9,.62,3.13,1.12,3.69,1.51h0c2.57,4.73,4.84,8.24,6.79,10.52h0c.75,1.82,1.26,4.72,1.53,8.72h0c-.51,2.32-4.71,7.19-12.58,14.63l-.03,.03c-2.55,2.47-4.34,3.74-5.37,3.8-.09,0-.17,.01-.26,.03-.07,.01-.15,.02-.22,.02-.55,0-1.09-.28-1.62-.85h0c-4.68-6.12-7.63-11.39-8.85-15.82-.13-.48-.37-.92-.69-1.3l-6.19-7.18h0c-.34-.72-.97-1.33-1.91-1.85h0c-.85-.47-2.41-1.04-4.67-1.69h0c-.94-.27-2.02-.57-3.24-.89h0c-1.64-1.05-3.27-1.99-4.88-2.84h0l7.38-2.44h0l6.31-1.11c.2-.03,.39-.09,.58-.16,2.96-1.09,6.91-2.24,11.86-3.46h0c3.52-.43,6.26-.65,8.22-.65Zm-.47-6.61c-2.4,0-5.32,.21-8.75,.64-.13,.02-.26,.04-.38,.07-5.14,1.26-9.3,2.46-12.5,3.63h0l-6.25,1.1c-.16,.03-.32,.07-.47,.12l-20.33,6.71h0c-7.72,.44-15.08,1.4-22.06,2.87-.02,0-.05,.01-.07,.02h0c-.4,.05-1.2,.08-2.41,.08-1.59,0-3.89-.05-6.9-.14-.03,0-.07,0-.1,0-.05,0-.1,0-.16,0-1.88,.09-3.65,.3-5.32,.65h0c-1.81,.37-2.98,2.14-2.6,3.95,.33,1.59,1.74,2.69,3.22,2.69,.2,0,.4-.02,.61-.06h0l.13-.02c1.29-.27,2.67-.44,4.15-.51h0c2.72,.08,4.93,.13,6.64,.13,1.89,0,3.16-.05,3.82-.15h0c.14-.02,.27-.05,.39-.07h0c6.78-1.43,13.94-2.35,21.49-2.76,.3-.02,.59-.07,.87-.16l3.7-1.22h0c.16,.09,.32,.16,.5,.23,3.43,1.23,6.98,3.03,10.65,5.41,.3,.2,.64,.34,.99,.43,1.38,.36,2.58,.68,3.59,.97h0c1.39,.4,2.36,.72,2.92,.95h0l6.2,7.18h0c1.55,5.1,4.83,10.91,9.82,17.42,.04,.06,.09,.11,.14,.17,1.9,2.18,4.11,3.26,6.62,3.26,.37,0,.75-.02,1.14-.07h0c2.66-.21,5.82-2.09,9.48-5.64h0c9.36-8.84,14.26-15.17,14.68-19,.02-.19,.03-.39,.01-.58-.34-5.34-1.13-9.31-2.37-11.91-.14-.29-.32-.56-.53-.8-1.73-1.92-3.87-5.25-6.43-10-.03-.05-.05-.1-.08-.14-.29-.47-.67-.91-1.15-1.31h0c-1.06-.89-2.89-1.78-5.49-2.66h0c-.22-.15-.46-.28-.71-.41h0c-1.38-.68-3.59-1.02-6.62-1.02Z"/><path d="M224.19,3.62c-.01,.23,0,.47,.03,.69h0c-.04-.23-.05-.46-.04-.69h0Zm.72,2.26c.59,.75,1.48,1.21,2.44,1.26,.1,0,.19,.01,.29,.02h0c-.16,.03-.32,.04-.47,.04-.89,0-1.64-.44-2.26-1.32h0Zm26.84,4.73c-.22,.04-.44,.07-.64,.07-.16,0-.31-.01-.45-.04h.09c.12,.02,.25,.03,.37,.03,.21,0,.42-.02,.62-.06h0Zm-41.14,10.04c-.49,.5-1.1,.75-1.81,.75-.27,0-.55-.04-.85-.11h0c.18,.03,.36,.05,.55,.05h.04c.75,0,1.47-.25,2.05-.7h0Zm-18.74,26.84h0c-.29,.85-.58,1.77-.88,2.76h0c-.07-.34-.1-.65-.1-.93h0c.12-.42,.3-.84,.54-1.26h0c.15-.19,.29-.39,.44-.57h0ZM237.62,6.79c4.89,2.09,9.17,3.36,12.84,3.82h0c.79,.39,2.61,1.49,5.44,3.31,.26,.17,.55,.3,.85,.39l10.17,3.05h0c-.43,4.95,.53,13.71,2.86,26.29h0c-.08,.15-.21,.34-.38,.57l-.04,.05c-10.48,14.35-16.56,22.25-18.25,23.71-.06,.05-.12,.11-.18,.17l-10.44,10.46h0l-5.24,3.44h0c-.19,0-.45-.03-.76-.08h0c-16.83-6.54-29.75-14.4-38.78-23.6h0c1.51-5.81,2.84-10,3.99-12.58h0l5.43-10.48c.07-.13,.12-.26,.17-.39,2.94-8.06,4.82-12.9,5.63-14.51h0c.18-.17,.34-.36,.48-.57,.49-.75,.95-1.34,1.35-1.77h0c2.36-1.17,5.51-3.82,9.47-7.94h0c2.87-1.56,4.77-2.55,5.7-2.97h0c.92,.04,1.83,.06,2.73,.06,2.38,0,4.72-.15,7.01-.44h0Zm.47-6.79c-.16,0-.33,.01-.49,.04-2.27,.33-4.6,.5-6.99,.5-.65,0-1.3-.01-1.96-.04h0c-.29-.1-.61-.14-.94-.14-.49,0-1.03,.1-1.62,.31-.99,.35-3.51,1.63-7.56,3.83-.31,.17-.59,.38-.83,.64-3.84,4.04-6.56,6.39-8.15,7.03-.36,.14-.69,.35-.97,.61-.76,.68-1.53,1.56-2.31,2.66h0c-.31,.29-.6,.65-.86,1.08h0c-.8,1.3-2.63,5.8-5.47,13.49h0c.05-.47,.09-.96,.12-1.46,.13-1.84-1.26-3.44-3.1-3.57-.08,0-.16,0-.24,0-1.74,0-3.21,1.35-3.34,3.11-.24,3.45-.75,5.94-1.51,7.48-.1,.19-.17,.39-.23,.6h0c-.45,1-2.31,3.65-5.59,7.95-.06,.08-.12,.16-.17,.24-.76,1.2-1.28,2.46-1.57,3.77l.03-.13-.03,.13c-.03,.16-.06,.32-.07,.48-.21,3.04,1.15,6.9,4.08,11.6h0c-.89,3.58-1.82,7.63-2.8,12.14-.02,.08-.03,.15-.04,.23-.53,3.65-.79,6.05-.78,7.2,0,.09,0,.18,.01,.27l1.07,11.9c.16,1.74,1.62,3.05,3.33,3.05,.1,0,.2,0,.3-.01,1.84-.17,3.2-1.79,3.03-3.63l-1.05-11.69h0c0-.83,.23-2.81,.68-5.93h0c.61-2.79,1.19-5.4,1.76-7.82h0c9.53,8.72,22.38,16.21,38.54,22.45,.21,.08,.43,.14,.65,.18,.86,.14,1.63,.22,2.31,.22,.36,0,.69-.02,1-.06h0c.7-.09,1.32-.29,1.87-.58h0c.08-.04,.16-.09,.23-.14l6-3.94c.19-.13,.37-.27,.53-.43l10.56-10.59h0c2.14-1.89,8.53-10.13,19.19-24.73h0c.79-1.04,1.32-2.05,1.6-3.03h0c.12-.43,.2-.86,.22-1.28h0c.02-.28,0-.56-.05-.83-2.47-13.19-3.41-21.81-2.83-25.86,.05-.33,.05-.67,0-1.01-.13-.83-.32-1.54-.55-2.13h0c-.51-1.27-1.31-2.14-2.39-2.61h0c-.12-.05-.24-.09-.36-.13l-11.22-3.37h0c-3.26-2.08-5.37-3.32-6.35-3.72h0c-.48-.2-.94-.31-1.39-.34h0c-3.25-.39-7.22-1.62-11.93-3.69-.43-.19-.89-.28-1.35-.28Z"/><path d="M223.97,120.5c.17,0,.34,.01,.52,.04h0s-.07,0-.11,0c-.82,0-1.63,.3-2.26,.87-.3,.27-.54,.59-.72,.93h0c.58-1.23,1.44-1.85,2.56-1.85Zm6.52,6.62h0s.04,.1,.05,.15h0s-.04-.1-.06-.15h0Zm-22.13,18.46h0c.77,.67,1.02,1.63,.77,2.88,.21-1.04-.09-2.11-.78-2.88h0Zm4.44-27.96c-1.71,0-3.17,1.3-3.33,3.03-.17,1.84,1.18,3.47,3.02,3.64,2.53,.24,4.2,.45,5.01,.64h0c3.04,1.24,4.96,1.97,5.75,2.18h0c.36,.09,.69,.15,1.01,.17h0c.52,.08,1.25,.12,2.18,.12,.9,0,1.99-.04,3.27-.11h0c.48,.28,.86,.52,1.13,.69h0c.43,1.02,.86,1.82,1.29,2.41h0c.48,.65,1.03,1.14,1.64,1.46h0c3.2,2.19,6.41,3.84,9.63,4.96h0c.17,.14,.41,.37,.72,.7l.05,.05c.35,.36,.78,1.13,1.28,2.3,.14,.32,.32,.61,.55,.87l.53,.6h0c-2.05,2.23-3.4,3.81-4.08,4.73-.04,.05-.08,.11-.11,.16l-1.64,2.58h0c-.77-.52-1.55-.9-2.33-1.15h0c-1.98-.68-3.92-1.11-5.82-1.29h0c-.26-.03-.54-.04-.85-.04-.48,0-1.02,.03-1.63,.1-.11,.01-.23,.03-.34,.05-2.85,.6-6.81,1.12-11.9,1.56h0c-.4,.03-.78,.04-1.14,.04-.4,0-.77-.02-1.11-.06h0c-3.92-1.28-6.37-2.16-7.37-2.64h0c-.11-.1-.22-.2-.35-.29-.84-.62-1.37-1.95-1.6-4,0-.07-.02-.14-.03-.22h0c-.2-1.21-.28-7.06-.22-17.55,0-1.85-1.48-3.35-3.33-3.36h-.02c-1.84,0-3.34,1.49-3.35,3.33-.06,10.87,.05,17.1,.31,18.69h0c.42,3.57,1.64,6.24,3.65,8.02h0c.32,.37,.73,.71,1.25,1.01h0c1.15,.68,4.24,1.84,9.26,3.48h.04c.16,.06,.33,.1,.5,.13,.73,.11,1.52,.16,2.36,.16,.53,0,1.09-.02,1.67-.07h.04c5.25-.46,9.42-1.01,12.51-1.64h0c.32-.03,.57-.05,.75-.05,.07,0,.13,0,.18,0h.05c1.37,.13,2.81,.45,4.29,.96,.05,.02,.09,.03,.14,.04,.43,.13,.98,.52,1.66,1.19,.25,.25,.55,.46,.87,.61,.13,.06,.26,.12,.39,.18h0c.69,.29,1.35,.43,1.98,.43,.43,0,.86-.07,1.27-.2h0c1.01-.31,1.88-.94,2.59-1.9h0l.03-.04h0c.04-.06,.09-.13,.13-.19l2.64-4.14h0c.6-.82,2.02-2.45,4.28-4.89,.03-.03,.06-.07,.09-.1,.25-.3,.48-.6,.67-.91h0c.31-.5,.54-1,.68-1.52h0c.02-.08,.04-.17,.06-.25,.29-1.48,.04-2.76-.75-3.84-.06-.08-.11-.15-.18-.22l-1.33-1.53h0c-.75-1.65-1.53-2.9-2.35-3.76h0c-.78-.85-1.51-1.48-2.19-1.91h0c-.18-.12-.37-.22-.55-.31h0c-.13-.07-.27-.12-.41-.17-2.8-.94-5.62-2.39-8.48-4.36h0c-.16-.28-.36-.74-.6-1.39h0c-.23-.67-.67-1.26-1.32-1.78h0c-.48-.39-1.37-.96-2.67-1.73-.12-.07-.25-.13-.38-.19-.16-.07-.32-.13-.49-.19h0c-.66-.22-1.36-.35-2.1-.37h0s-.08,0-.11,0c-.07,0-.14,0-.2,0-1.38,.08-2.45,.13-3.19,.13-.43,0-.76-.01-.97-.04h0c-.22-.07-.44-.11-.67-.13h0c-.73-.24-2.35-.88-4.87-1.91h-.03c-.12-.06-.25-.1-.38-.14-1.1-.3-3.2-.59-6.29-.88-.11,0-.21-.01-.32-.01Z"/><path d="M131.76,167.96h0c-.11,.34-.26,.63-.45,.88h0l.3-.57c.05-.1,.1-.2,.14-.31h0Zm-15.37,50.83c-.65,1.07-1.45,1.6-2.41,1.6-.25,0-.5-.04-.77-.11h.06c.1,.02,.2,.02,.3,.02,1.13,0,2.18-.57,2.8-1.52h0Zm13.12-55.69c-.25,0-.48,0-.66,.02h0c-1.89,.16-3.04,1-3.43,2.53h0l-3.35,6.32c-.06,.11-.11,.22-.16,.34l-8.56,21.69c-.07,.19-.13,.39-.17,.59l-3.29,16.81-.02,.11c-.36,2.22-.18,4.4,.54,6.52,.22,.67,.65,1.23,1.19,1.63h0c.83,1.63,2.44,5.81,4.82,12.53,.14,.4,.36,.77,.64,1.1,1.72,1.95,3.06,4,4.04,6.15,.12,.27,.28,.52,.47,.75,.61,.73,1.29,1.32,2.04,1.75h0c.8,.46,1.66,.74,2.58,.83h0c.16,.03,.32,.04,.49,.06h0c.14,.01,.32,.02,.52,.02,2.32,0,8.58-.65,18.79-1.95h0c1.03-.07,2.15-.1,3.36-.1,3.17,0,6.98,.23,11.42,.69,.1,.01,.21,.02,.31,.02,.27,0,.54,0,.79,0,1.93,0,3.37-.07,4.31-.22,.12-.02,.24-.04,.36-.08h0c9.38-2.54,14.68-3.86,15.92-3.98h0c.06,0,.13,0,.19-.01,10.27-1.04,17.07-1.85,20.39-2.43h0c3.95-.59,7.92-1.86,11.91-3.81,1.66-.81,2.35-2.82,1.54-4.48-.58-1.19-1.77-1.88-3.01-1.88-.49,0-.99,.11-1.47,.34-3.37,1.65-6.69,2.72-9.97,3.21h-.08c-3.13,.56-9.77,1.35-19.92,2.38h0s-.08,0-.12,0h0c-1.6,.13-7.24,1.51-16.93,4.13h0c-.63,.08-1.64,.12-3.04,.12-.21,0-.43,0-.65,0h0c-4.59-.47-8.58-.71-11.96-.71-1.4,0-2.69,.04-3.88,.12-.07,0-.13,.01-.2,.02-10.04,1.28-15.97,1.92-17.78,1.92-.09,0-.17,0-.24,0h0c-.09-.02-.19-.03-.28-.04h0c-1.13-2.37-2.6-4.62-4.41-6.75h0c-2.8-7.86-4.69-12.52-5.68-13.99h0c-.11-.16-.22-.31-.34-.45h0c-.14-.74-.15-1.49-.04-2.25h0l3.23-16.51,8.37-21.23h0l2.71-5.1h0c.86,.07,2.06,.21,3.6,.4h0l25.48,7.09h.04s.1,.04,.15,.05h0c1.27,.3,5.8,.76,13.58,1.38h0c6.89,1.89,11.18,2.84,12.87,2.86h.1c.52,.07,1.1,.11,1.74,.11,1.54,0,3.44-.2,5.68-.61,1.82-.33,3.02-2.07,2.69-3.89-.29-1.62-1.7-2.75-3.29-2.75-.2,0-.4,.02-.6,.05-1.9,.35-3.37,.52-4.42,.52-.4,0-.74-.03-1.01-.08-.2-.04-.4-.06-.6-.06-.09,0-.18,0-.27,.01h0c-1.17-.03-4.98-.93-11.42-2.7-.2-.06-.41-.09-.66-.11h0c-7.5-.59-11.76-1.01-12.8-1.23h0l-25.69-7.15c-.15-.04-.31-.07-.35-.08h0l-.12-.02c-2.75-.36-4.73-.54-5.95-.54Z"/><path d="M197.88,233.93c-.29,0-.59,.04-.89,.12-1.78,.49-2.83,2.33-2.34,4.11,.09,.32,.16,.67,.22,1.07h0c.14,1.18,.24,1.92,.28,2.2h0c.4,2.45,.62,3.86,.65,4.24h0s0,.09,0,.13c.04,.47,.07,.76,.07,.87h0c.01,1.17,.08,2.75,.19,4.71h0c.02,.68,.02,1.39,0,2.13h0c-.07,3.03-.28,6.23-.6,9.61h0c-.04,.44-.13,1.19-.27,2.28h0l-1.61,12.28c-.24,1.83,1.05,3.51,2.88,3.75,.15,.02,.29,.03,.44,.03,1.65,0,3.09-1.23,3.31-2.91l1.61-12.29h0c.15-1.16,.24-1.99,.29-2.49h0c.34-3.54,.56-6.91,.63-10.1h0c.02-.9,.02-1.76-.01-2.6v-.09c-.12-1.87-.18-3.33-.19-4.4h0c0-.06,0-.13,0-.2h0c0-.19-.03-.52-.07-.98h0c0-.1,0-.21-.02-.32h0c-.05-.55-.28-2.12-.71-4.72h0c-.03-.2-.12-.89-.26-2.04v-.1c-.11-.66-.24-1.27-.4-1.84-.41-1.49-1.76-2.46-3.23-2.46Z"/><path d="M199.26,307h0c1.62,.12,2.59,1.02,2.91,2.71-.28-1.47-1.48-2.55-2.92-2.71h0Zm-.82,0h0c-1.51,.2-2.69,1.4-2.88,2.89h0c.13-1.77,1.09-2.73,2.88-2.89h0Zm-1.06-35.4c-.2,0-.4,.02-.6,.05-1.82,.33-3.03,2.07-2.75,3.29h0l.05,.59c.09,.51,.15,1.26,.18,2.26h0c0,.33,.01,.68,0,1.03h0c-.04,2-.05,3.56-.04,4.67h0c0,2.24,.02,3.66,.06,4.26h0l.34,5.95s0,.1,.01,.15c.54,5.36,.83,8.3,.85,8.82h0s0,.08,0,.12c.02,.35,.03,.7,.03,1.05h0c-.01,1.18-.02,1.87-.01,2.07h0s0,.08,0,.11h0c.04,2.41,.05,3.78,.04,4.1h0s0,.06,0,.1c-.03,1.09-.13,2.05-.32,2.87h0c-1.46,4.65-2.29,7.72-2.48,9.19-.24,1.83,1.06,3.51,2.89,3.75,.15,.02,.29,.03,.43,.03,1.66,0,3.1-1.23,3.31-2.92,.14-1.1,.9-3.84,2.28-8.23,.03-.08,.05-.16,.07-.24,.28-1.19,.44-2.5,.5-3.93h0c.01-.13,.02-.27,.02-.41h0c.01-.39,0-1.88-.04-4.47v-.03h0c0-.16,0-.81,.02-1.97v-.06c0-.41-.01-.83-.04-1.25h0c0-.06,0-.11,0-.17h0c-.03-.64-.32-3.65-.86-9.04h0l-.34-5.97h0c-.03-.49-.04-1.78-.04-3.9v-.03c0-1.06,0-2.57,.04-4.53v-.05c0-.42,0-.83-.01-1.23h0c-.04-1.32-.13-2.39-.27-3.22h0v-.06c-.3-1.62-1.71-2.75-3.3-2.75Z"/><path d="M113.47,206.17c.17,0,.33,.02,.49,.05h0c-.16-.02-.32-.04-.49-.04-.27,0-.55,.03-.82,.1h0c.29-.08,.57-.12,.82-.12Zm11.86,3.9c-.19,.02-.38,.06-.58,.11,.2-.06,.39-.1,.57-.11h0Zm-44.65-20.71c-.53,0-1.06,.13-1.55,.38l-4.04,2.11h0l-7.93,2.15h0c-7.47,1.49-11.75,2.25-12.83,2.26h-.07c-.27,0-.53,.03-.79,.09-6.22,1.51-10.94,2.45-14.17,2.85-.18,.02-.35,.06-.52,.1-3.47,.99-9.54,2.54-18.2,4.63h0c-1.17,.27-2.75,.52-4.76,.75h0c-5.36,.28-9.69,.67-12.98,1.17-1.83,.28-3.08,1.99-2.8,3.81,.25,1.66,1.68,2.84,3.3,2.84,.17,0,.34-.01,.51-.04,3.09-.47,7.24-.84,12.43-1.11,.07,0,.15,0,.22-.02,2.32-.27,4.19-.57,5.61-.9h.04c8.54-2.07,14.62-3.61,18.22-4.64h0c3.41-.43,8.19-1.39,14.34-2.87h0c1.79-.11,6.42-.91,13.89-2.4,.07-.01,.15-.03,.22-.05l8.38-2.27c.23-.06,.46-.15,.67-.26l2.95-1.54h0c1.52,.6,3.41,1.2,5.67,1.81h0c5.13,2.48,9.59,4.31,13.37,5.49h0c1.41,.75,2.82,1.61,4.23,2.58h0c3.59,3.34,6.01,5.35,7.27,6.03h0c.41,.22,.81,.37,1.2,.47h0c1.32,.54,3.81,1.23,7.47,2.06h0l3.16,1.41c.13,.06,.26,.11,.4,.15,.4,.12,.74,.21,1.05,.26h0c.32,.06,.63,.09,.93,.09,.37,0,.72-.05,1.05-.14h0c1.78-.51,2.81-2.36,2.3-4.14-.42-1.46-1.74-2.42-3.19-2.43h0l-3.26-1.46c-.2-.09-.41-.16-.63-.21-3.76-.85-6-1.44-6.72-1.79h0c-.25-.14-.51-.24-.78-.31h0c-.9-.59-2.85-2.28-5.83-5.07-.12-.11-.24-.21-.38-.3-1.78-1.24-3.58-2.33-5.4-3.28-.18-.1-.38-.17-.57-.23-3.59-1.09-7.92-2.87-12.99-5.34-.19-.09-.4-.17-.6-.22-2.87-.76-4.99-1.48-6.38-2.14-.46-.22-.96-.33-1.45-.33Z"/><path d="M35.92,154.09c-2.19,0-4.35,.31-6.49,.93-1.78,.51-2.8,2.37-2.29,4.14,.42,1.47,1.76,2.42,3.21,2.42,.31,0,.62-.04,.93-.13,1.52-.44,3.06-.66,4.63-.66,2.11,0,4.27,.4,6.46,1.19,.07,.03,.15,.05,.22,.07,3.29,.94,6.55,2.07,9.79,3.4h0c7.51,3.13,14.56,6.4,21.16,9.81h0c1.04,.56,4.31,1.78,9.8,3.66h0c1.09,.38,2.52,.76,4.27,1.14,.05,0,.09,.02,.14,.03,14.58,2.52,22.69,4.09,24.32,4.71,.2,.08,.4,.13,.61,.17,.83,.15,1.49,.23,2,.24h0c.05,0,.11,0,.16,0,.25,0,.48-.02,.7-.05h0c1.83-.26,3.1-1.95,2.84-3.78-.24-1.67-1.67-2.88-3.31-2.88-.09,0-.18,0-.27,.01h0c-.14,0-.37-.04-.68-.09h0c-2.55-.83-10.92-2.47-25.13-4.92h0c-1.47-.32-2.62-.62-3.45-.91h-.01c-5.14-1.76-8.08-2.84-8.81-3.23h0l-.08-.04c-6.77-3.5-13.99-6.86-21.68-10.05l-.16-.06,.15,.06c-3.43-1.41-6.89-2.61-10.37-3.61h0c-2.91-1.04-5.79-1.56-8.63-1.56Z"/></g></g></svg>