<?xml version="1.0" encoding="UTF-8"?><svg id="Layer_2" xmlns="http://www.w3.org/2000/svg" viewBox="0 0 175.99 405.8"><g id="Layer_1-2"><g id="layer3"><path d="M84.1,274.68h0c-.36,.23-.68,.52-.93,.87h0c.24-.38,.54-.67,.92-.87h0Zm3.72,.1c.73,.41,1.18,1.1,1.34,2.07h0c-.17-.85-.66-1.58-1.34-2.07h0Zm-28.46-135.85c-1.75,0-3.22,1.36-3.34,3.13l-.56,8.53c-.02,.35,0,.7,.09,1.03,.63,2.51,.98,4.08,1.06,4.69h0c0,.11,0,.22,0,.33,.07,1.02,0,3.27-.17,6.75,0,.14,0,.29,0,.43,1.22,15.85,1.79,25.68,1.7,29.48v.12c.03,2.3-.35,4.56-1.14,6.77h0c-.82,1.72-1.57,3.06-2.24,4.03h0c-4.73,5.02-7.49,8.34-8.29,9.93h0c-.03,.05-.05,.1-.07,.16h0c-9.5,15.99-15.69,25.34-18.58,28.05-.4,.37-.7,.84-.87,1.36-2.58,7.55-6.57,16.1-11.98,25.65-.1,.17-.18,.36-.25,.55-1.57,4.49-2.38,7.52-2.42,9.08,0,.28,0,.55,.03,.8h0c.32,6.75,3.1,11.03,8.33,12.83h0c4.7,2.79,13.96,4.97,27.8,6.55,.13,.01,.25,.02,.38,.02,.08,0,.16,0,.24,0,21.05-1.53,34.17-7.91,39.38-19.14h0c.41-.48,.7-1.14,.85-1.99h0c.17-.95,.48-4.41,.91-10.38,.02-.22,0-.45-.02-.67-.69-5.37-.67-10.69,.05-15.96,.03-.25,.04-.51,.02-.76-1.08-11.8-1.62-23.52-1.61-35.15,0-.19-.02-.38-.05-.57l-1.86-10.9h0l2.57-30.61h0c4.19-10.28,6.63-19.4,7.32-27.36,.16-1.84-1.21-3.46-3.05-3.62-.1,0-.2-.01-.29-.01-1.72,0-3.18,1.32-3.33,3.06-.64,7.39-2.98,16.01-7.03,25.84-.13,.32-.21,.65-.24,.99l-2.65,31.57c-.02,.28-.01,.57,.04,.84l1.9,11.08h0c0,11.62,.54,23.32,1.61,35.1h0c-.73,5.62-.75,11.29-.04,17h0c-.33,4.57-.57,7.48-.72,8.74h0c-3.73,9.37-15.03,14.77-33.89,16.19h0c-13.02-1.5-21.37-3.41-25.04-5.75-.25-.16-.52-.28-.8-.37-2.54-.8-3.89-3.15-4.05-7.07,0-.04,0-.08,0-.12h0c.02-.85,.67-3.1,1.94-6.76h0c5.37-9.51,9.4-18.11,12.1-25.8h0c3.52-3.71,9.94-13.41,19.26-29.12,.07-.12,.14-.25,.19-.38h0c.51-1.03,2.96-3.87,7.35-8.52,.1-.11,.2-.23,.29-.35,.96-1.34,1.97-3.14,3.05-5.42,.05-.1,.09-.2,.12-.3,1.07-2.96,1.59-5.99,1.57-9.09h0c.09-4-.47-13.97-1.69-29.88h0c.17-3.35,.23-5.69,.18-7.03h0c.01-.24,.01-.48-.01-.74h0c-.07-.83-.44-2.59-1.11-5.27h0l.53-8.03c.12-1.84-1.27-3.44-3.12-3.56-.08,0-.15,0-.22,0Z"/><path d="M32.25,280.16c-1.16,0-2.28,.6-2.9,1.68-5.73,9.94-9.06,16.66-10,20.16h0c-.81,2.32-1.52,4.83-2.13,7.52v.02l-4.82,21.82h0c-.28,.97-.72,2.28-1.33,3.93h0c-3.46,8.42-5.35,13.36-5.67,14.82h0c-.02,.08-.03,.16-.05,.24h0c-1.97,7.13-3.26,13.53-3.88,19.23h0c-.36,3.35-.16,5.97,.59,7.86,.18,.44,.44,.84,.78,1.17,.97,.93,1.91,1.4,2.84,1.4s1.79-.45,2.65-1.34h0c.52-.54,.89-1.24,1.12-2.09h0c.2-.78,.32-1.83,.33-3.16,.02-1.25-.66-2.35-1.66-2.94h0c0-.06,.01-.12,.02-.18h0c.58-5.39,1.83-11.52,3.74-18.39,.03-.11,.06-.23,.08-.35h0c.24-1.09,2.03-5.7,5.38-13.84l.04-.11c.71-1.92,1.23-3.47,1.55-4.64,.02-.06,.03-.11,.04-.17l4.81-21.82h0c.57-2.51,1.23-4.82,1.98-6.95,.03-.09,.06-.18,.08-.27,.76-2.91,3.88-9.1,9.34-18.58,.92-1.6,.37-3.65-1.23-4.57-.53-.3-1.1-.45-1.67-.45Z"/><path d="M45.5,387.3c.07,.18,.12,.35,.15,.53h0c-.04-.18-.09-.36-.15-.53h0Zm16.65-112.19c-.32,0-.65,.05-.97,.14-1.77,.54-2.77,2.4-2.23,4.17,.28,.92,.42,1.55,.42,1.92h0v.13c.11,2.36,.06,4.18-.14,5.46h0c-.79,4.78-2.75,13.69-5.87,26.75-.02,.09-.04,.19-.06,.29l-4.66,31.24h0c-1.61,8.71-2.87,14.93-3.79,18.67v.04c-.77,3.31-2.11,7.78-4.01,13.39-.02,.06-.04,.11-.06,.18h0c-.5,1.79-.88,3.49-1.14,5.11v.05c-.43,2.88-.64,4.73-.64,5.54h0c0,.43,.05,.82,.15,1.19h0l.81,4h0c-.64,.49-1.1,1.21-1.25,2.06-.59,3.28-.84,5.54-.73,6.77,.04,.42,.11,.8,.22,1.14h0c.23,.71,.68,1.31,1.29,1.73,.41,.28,.84,.48,1.31,.59h0c.38,.1,.75,.14,1.1,.14,1.41,0,2.57-.76,3.5-2.29h0c.54-.88,1.02-2.18,1.44-3.89,.01-.05,.02-.1,.03-.15,.31-1.53,.34-3.27,.09-5.21-.01-.08-.02-.16-.04-.25l-1.21-5.96h0c.03-.62,.22-2.09,.56-4.4h0c.22-1.37,.54-2.82,.98-4.36h0c1.94-5.73,3.31-10.34,4.11-13.83h0c.95-3.87,2.24-10.26,3.89-19.15l.02-.12,4.63-31.02h0c3.16-13.18,5.14-22.24,5.96-27.16h0c.28-1.72,.35-3.96,.23-6.73h0c0-1.01-.24-2.27-.71-3.8-.44-1.45-1.77-2.38-3.2-2.38Z"/><path d="M121.35,111.13c-.08,.06-.16,.13-.23,.2l-.18,.17h0c.11-.13,.25-.25,.4-.36h0Zm-10.61,18.45c.77,0,1.54,.38,2.32,1.15h0c-.63-.62-1.48-.96-2.35-.96-.25,0-.51,.03-.76,.09-.34,.08-.66,.21-.95,.38h0c.58-.44,1.16-.66,1.74-.66Zm-31.86-77.39c2.17,0,4.59,.03,7.25,.08h0c.03,1.67,1.3,3.09,3,3.26,3.16,.33,5.5,1.26,7.02,2.8h0c8.8,9.7,13.58,15.2,14.35,16.5h0c.04,.08,.08,.15,.12,.22,.32,.53,.55,1.05,.68,1.57h0l4.78,19.78c.02,.08,.04,.17,.07,.25l3.23,9.9h0c.66,2.58,1.02,4.38,1.09,5.4h0l-3.66,3.43c-.43,.4-.75,.92-.92,1.48h0c-.33,1.04-2.1,3.73-5.33,8.09-.21,.28-.37,.59-.48,.93-.86,2.55-1.46,4.21-1.8,4.99h0c-.07,.08-.14,.16-.2,.25h0c-.67,.56-2.48,1.78-5.45,3.65h0c-.47,.3-.86,.7-1.13,1.19-1.92,3.4-3.22,5.44-3.9,6.12h0c-3.29,1.77-6.17,3.82-8.64,6.15h0c-7.22,2.53-12.65,3.8-16.28,3.8-.63,0-1.2-.04-1.72-.11h-.06c-.87-.12-2.41-.92-4.62-2.4-.35-.23-.74-.4-1.15-.49-2.91-.64-5.01-1.24-6.31-1.8h0c-3.97-4.06-7.5-6.71-10.6-7.94h0l-9.78-12.37c-.11-.14-.23-.27-.36-.39l-3.29-3.02h0c-2.95-3.16-3.68-10.17-2.21-21.04h0c1.47-5.74,6.43-17.58,14.88-35.5h0c5.16-6.45,10.83-10.91,17-13.39,.2-.08,.39-.18,.57-.3h0c1.43-.72,6.09-1.08,13.97-1.08Zm1.31-6.68c-9.84,0-15.94,.59-18.29,1.78h0c-.12,.06-.23,.12-.34,.18h0c-7.24,2.97-13.8,8.17-19.67,15.6-.16,.2-.29,.42-.4,.65-8.8,18.65-13.97,31.06-15.52,37.22-.03,.12-.05,.24-.07,.36-1.81,13.16-.49,22.11,3.98,26.83,.05,.06,.11,.11,.17,.16l3.23,2.97h0l10.21,12.92c.42,.54,1,.93,1.66,1.13,2.33,.7,5.4,3.04,9.21,7,.26,.27,.57,.5,.91,.67,1.64,.83,4.23,1.64,7.76,2.44h0c2.84,1.85,5.17,2.89,6.98,3.12h0c.75,.11,1.57,.16,2.46,.16,4.65,0,11.11-1.47,19.38-4.41,.46-.16,.87-.42,1.22-.76,2.18-2.13,4.78-4.01,7.81-5.63h0c.37-.19,.73-.45,1.09-.77h0c1.14-1.02,2.77-3.4,4.92-7.15h0c3.17-2.02,5.14-3.4,5.92-4.14h0c.15-.13,.29-.26,.44-.41h0c.27-.27,.51-.6,.73-1h0c.47-.85,1.23-2.82,2.27-5.9h0c2.95-4,4.84-6.92,5.68-8.76h0l3.62-3.39h0c.92-.69,1.46-1.73,1.61-3.1h0c.18-1.63-.26-4.5-1.31-8.61-.02-.07-.04-.14-.06-.2l-3.19-9.78-4.75-19.68v-.03c-.29-1.11-.73-2.18-1.34-3.22h0c-.06-.11-.12-.23-.19-.34-1-1.7-6.08-7.6-15.25-17.7-.03-.04-.07-.07-.1-.1-2.58-2.61-6.16-4.18-10.73-4.72h0c-.01-1.81-1.46-3.29-3.27-3.33-2.4-.05-4.63-.08-6.7-.08Z"/><path d="M69.6,180.92c-.56,0-1.13,.14-1.65,.44-3.93,2.23-7.47,5.08-10.65,8.55h0c-1.44,1-2.48,1.63-3.1,1.9h0c-5.32,.73-10.5,1.71-15.56,2.93h0c-3.22-.06-6.07-.34-8.53-.87-.2-.04-.41-.07-.62-.07-.06,0-.11,0-.16,0-.06,0-.12,0-.18,0h0c-1.15,.03-2.1,.35-2.86,.97-.06,.05-.12,.1-.17,.15-9.65,9-18.12,18.2-25.4,27.6-1.13,1.46-.87,3.56,.6,4.7,.61,.47,1.33,.7,2.05,.7,1,0,1.99-.45,2.65-1.3,6.84-8.83,14.77-17.49,23.8-25.99h0c2.73,.5,5.79,.76,9.16,.8h.04c.27,0,.53-.03,.79-.1,5.08-1.24,10.3-2.22,15.66-2.95,.2-.03,.4-.07,.59-.14,1.25-.41,3.05-1.44,5.4-3.08,.21-.15,.4-.31,.57-.5,2.76-3.06,5.83-5.55,9.24-7.48,1.61-.91,2.17-2.96,1.26-4.56-.62-1.09-1.75-1.69-2.91-1.69Z"/><path d="M97.44,203.71c.06,1.78-.88,2.83-2.82,3.13h0c1.37-.22,2.46-1.26,2.75-2.62,.04-.17,.06-.35,.07-.52h0Zm-10.1-9.08c-1.52,0-2.9,1.05-3.26,2.59-.32,1.39,.01,2.73,1.01,4.01,.36,.47,.83,.94,1.39,1.4,.11,.09,.22,.17,.33,.24l5.1,3.25h0c.22,.18,.46,.35,.74,.51h0c.96,.53,4.54,2.05,10.75,4.54l.1,.04c2.07,.76,3.92,1.19,5.58,1.3h0c.44,.05,1.02,.08,1.72,.08,1.37,0,3.23-.1,5.58-.3h0c.35,0,1.16,.08,2.42,.22h0c1.83,.37,3.26,1.01,4.31,1.9,.05,.04,.09,.08,.14,.11,4.18,3.2,6.73,6,7.65,8.39,.04,.09,.08,.19,.12,.28,2.13,4.31,3.13,8.79,3,13.44-.05,1.85,1.4,3.39,3.25,3.44,.03,0,.07,0,.1,0,1.8,0,3.29-1.44,3.34-3.25,.16-5.68-1.03-11.14-3.58-16.38h0c-1.38-3.5-4.59-7.21-9.65-11.11h0c-1.96-1.69-4.47-2.82-7.52-3.42-.09-.02-.17-.03-.26-.04-1.61-.18-2.73-.28-3.36-.28-.03,0-.06,0-.09,0h0c-.08,0-.16,0-.23,0h-.11c-2.34,.21-4.03,.31-5.07,.31-.41,0-.72-.02-.93-.05-.1-.02-.21-.03-.31-.03-1-.06-2.23-.35-3.68-.87h0c-5.35-2.15-8.58-3.49-9.69-4.03h0c-.09-.08-.19-.15-.3-.21l-5.25-3.34h0c-.23-1.28-1.2-2.35-2.54-2.66-.25-.06-.51-.09-.76-.09Z"/><path d="M66.55,126.67c.53,.33,.91,.87,1.15,1.6h0c-.24-.56-.63-1.05-1.11-1.4h0c-.01-.06-.02-.13-.04-.19h0Zm1.39,3.33c-.07,1.08-.63,1.9-1.68,2.48h0c.93-.52,1.54-1.45,1.67-2.48h0Zm37.47-20.32c-1.76,0-3.23,1.37-3.34,3.15-.27,4.61-.73,7.39-1.37,8.35h0c-.08,.07-.15,.15-.22,.22h0c-.31,.18-.92,.39-1.81,.63h0l-8.37,2.01h0c-.51,.12-1.72,.31-3.66,.55-.12,.02-.24,.04-.26,.04h0l-.09,.02c-1.75,.41-3.58,.79-5.5,1.12h0c-.77,.13-1.37,.2-1.78,.23-.17,.01-.33,.04-.49,.07h0c-.22,.03-.54,.05-.96,.05-1.28,0-3.51-.14-6.69-.43-.1,0-.2-.01-.3-.01-.06,0-.12,0-.17,0l-2.9,.15c-.13,0-.25,.02-.38,.04-.23,.04-.45,.07-.65,.11h0c-.29-1.6-.48-2.97-.58-4.11-.15-1.74-1.61-3.06-3.33-3.06-.1,0-.19,0-.29,.01-1.84,.16-3.21,1.78-3.05,3.62,.15,1.77,.49,3.95,1.01,6.53,.03,.13,.06,.27,.11,.4,.04,.13,.09,.25,.13,.37h0c.43,1.1,1.06,1.92,1.86,2.45h0c.55,.51,1.32,.77,2.3,.77,.15,0,.31,0,.48-.02h0c.46-.04,1.44-.18,2.93-.43h0l2.47-.13h0c3.08,.28,5.45,.42,7.1,.42,.87,0,1.55-.04,2.02-.12h.05c.59-.06,1.33-.16,2.22-.3h.03c1.99-.35,3.9-.73,5.73-1.16h0c2.09-.26,3.5-.48,4.23-.66h0l8.46-2.03,.08-.02c1.74-.46,3.06-1.01,3.98-1.65h0c.34-.24,.64-.49,.9-.77h0c.31-.28,.6-.61,.87-.98h0c1.41-1.97,2.29-5.93,2.64-11.89,.11-1.85-1.3-3.43-3.14-3.54-.07,0-.13,0-.2,0Z"/><path d="M58.29,80.96c-.47,0-.94,.1-1.39,.3-.18,.08-.37,.18-.56,.3h0c-.23,.14-.48,.31-.76,.52l-.08,.06c-.31,.25-.6,.52-.87,.81-1.25,1.36-1.17,3.48,.19,4.73,.64,.59,1.46,.89,2.27,.89,.9,0,1.8-.36,2.46-1.08,.02-.02,.04-.04,.06-.06h0c.08-.06,.14-.1,.18-.13h0c1.61-.8,2.31-2.74,1.56-4.39-.56-1.23-1.78-1.96-3.05-1.96Z"/><path d="M103.42,76c-.03,.07-.07,.15-.11,.22h0c.04-.07,.07-.14,.1-.22h0Zm-2.29-5.48c-.48,0-.96,.1-1.42,.32-.26,.12-.5,.26-.73,.42-.04,.03-.08,.06-.13,.09l-.11,.08s-.08,.06-.12,.09c-.22,.19-.42,.39-.61,.61h0c-.35,.43-.63,.91-.83,1.44h0l-.04,.11v.03h-.01c-.56,1.69,.3,3.54,1.97,4.18,.39,.15,.79,.22,1.19,.22,1.1,0,2.15-.55,2.8-1.53h0c1.29-.92,1.77-2.66,1.07-4.14-.57-1.21-1.77-1.92-3.03-1.92Z"/><path d="M45.83,100.79h0c-.16,.06-.31,.14-.45,.22h0c.13-.08,.28-.16,.44-.22h0Zm-7.52-37.49c.19,0,.38,.03,.55,.1,.21,.08,.42,.14,.64,.18,3.49,.64,5.37,7.23,5.64,19.79h0c-.21,2.08-.49,3.43-.83,4.06-.03,.05-.05,.09-.07,.14-1.44,3.01-3.95,7.03-7.53,12.06-.17,.24-.31,.5-.41,.77-.33,.88-.64,1.7-.93,2.45h0c-1.56-.79-3.47-1.83-5.73-3.14h0l-6.54-8.71h0c.09-3.61,1.13-8.91,3.12-15.92h0c1.01-2.7,4.43-6.37,10.26-11.03h0c.72-.51,1.34-.77,1.88-.77Zm6.15,38.51c-.26,.33-.46,.7-.59,1.12-.25,.82-.17,1.7,.2,2.45h0c-.73-1.43-.6-2.61,.38-3.56h0Zm-1.08,11.78c.12,.02,.24,.03,.36,.03h0c-.13,0-.25-.01-.37-.03h0Zm-13.21,3.53c-.03,.15-.06,.31-.09,.46h0v.02h0c-.23,1.17-.14,2.28,.28,3.31,.05,.11,.1,.22,.15,.32,1.95,3.61,3.01,5.88,3.18,6.8h0c0,.14,.01,.28,.03,.41,.44,2.99,.71,5.27,.8,6.85h0c-.9-.48-2-1.38-3.31-2.68h0l-1.47-2.46-.14-4.49c-.01-.36-.08-.72-.21-1.06-.91-2.47-2.09-4.22-3.53-5.26h0c-.44-.32-.89-.57-1.36-.76h0c2.17-.52,4.06-1.01,5.67-1.46h0Zm24.44,19.77c-.06,.12-.1,.25-.14,.38h0c.04-.12,.08-.25,.14-.38h0Zm-12.77-23.45c.29,0,.59,.02,.9,.06h0c1.33,1.42,3.77,5.9,7.33,13.44h0c2.59,5.83,4.02,9.45,4.3,10.85h0c-.04,.28-.05,.56-.02,.84h0l-8.52,7.12h0c-2.79,1.52-7.26,3.47-13.42,5.85h0l-.04-.14h0c-.28-3.57-.67-7.04-1.16-10.44h0c1.67,.92,3.27,1.38,4.81,1.38,.26,0,.52-.01,.78-.04h0c.13,.01,.25,.02,.38,.02,.18,0,.37-.01,.56-.04h0c1.75-.26,2.85-1.38,3.29-3.36h0c.4-1.81,.19-5.54-.63-11.21h0c0-.26-.03-.52-.08-.8h0c-.26-1.56-1.46-4.35-3.6-8.36h0c.64-3.45,2.35-5.17,5.14-5.17Zm-21.73,13.63l2.99,5.02,.05,1.57c0,.19,.03,.38,.07,.56,1.16,5.72,1.99,11.72,2.48,18.01,.02,.2,.05,.4,.1,.59,.1,.39,.2,.77,.3,1.15h0l-.14,.05c-.11,.04-.21,.08-.31,.13-5.62,2.75-11.03,5.87-16.22,9.37h0c-.06,.04-.12,.07-.18,.1h0c-.43-2.17,.2-6.81,1.87-13.92,.02-.08,.03-.15,.05-.23,1.01-6.19,3.63-13.15,7.87-20.91h0c.39-.57,.75-1.07,1.09-1.51h0ZM83.54,48.42c-.96,0-1.91,.41-2.58,1.21-4.5,5.41-7.22,9.07-8.17,10.97-.09,.17-.16,.35-.21,.53l-4.6,15.35h0c-.77,1.79-1.88,3.65-3.33,5.59-.13,.17-.23,.35-.33,.53h0c-.96,1.33-5.19,4.91-12.68,10.76l-.03,.02h0c-.2,.16-.39,.35-.55,.56-3.2,4.09-5.15,6.48-5.86,7.18h0c-.22,.15-.42,.33-.6,.53h0c-.37,.24-1,.62-1.9,1.12h0c3.48-4.94,5.99-8.99,7.52-12.17h0c.78-1.45,1.32-3.73,1.62-6.85,.01-.13,.02-.26,.01-.39-.32-16.02-3.92-24.79-10.79-26.3h0c-.93-.33-1.86-.5-2.79-.5-1.89,0-3.79,.68-5.71,2.05-.05,.03-.09,.07-.14,.11-6.91,5.5-11.08,10.2-12.51,14.09-.03,.08-.05,.16-.08,.24-2.42,8.46-3.56,14.85-3.43,19.18,.02,.69,.25,1.36,.67,1.91l7.62,10.14c.27,.36,.61,.66,.99,.88,2.65,1.54,4.97,2.79,6.95,3.76h0s-.05,.06-.07,.09h0c-.15,.16-.27,.32-.38,.5h0c-1.84,.77-6.29,1.95-13.35,3.53-.17,.04-.33,.09-.49,.15-.39,.16-.75,.34-1.08,.57h0c-2.09,1.43-2.59,3.39-1.5,5.87h0c.19,.43,.43,.86,.74,1.31h0l.08,.13h0c-1.02,1.01-2.06,2.29-3.11,3.84-.06,.09-.11,.18-.16,.27-4.66,8.49-7.56,16.23-8.7,23.21h0c-2.33,9.95-2.58,16.46-.77,19.54h0c.54,.92,1.25,1.63,2.12,2.12,.3,.17,.63,.29,.97,.36,.53,.11,1.07,.17,1.6,.17,1.55,0,3.09-.48,4.61-1.43l.09-.06c4.65-3.13,9.49-5.95,14.5-8.45h0c1.2,5.68,1.96,10.9,2.27,15.64,.12,1.77,1.59,3.13,3.34,3.13,.07,0,.15,0,.22,0,1.84-.12,3.24-1.71,3.12-3.56-.35-5.36-1.23-11.25-2.64-17.67h0c7.12-2.74,12.25-4.99,15.39-6.73,.18-.1,.36-.22,.52-.36l9.43-7.89c.09-.07,.17-.15,.25-.23,.84-.86,1.33-1.94,1.47-3.25h0c.04-.37,.05-.75,.03-1.16h0c.06-.4,.06-.83,0-1.29-.21-1.88-1.85-6.25-4.9-13.12l-.03-.07c-4.2-8.9-7.31-14.21-9.32-15.94h0c1.01-.59,1.71-1.03,2.09-1.31h0c.25-.19,.47-.39,.67-.59h0l.05-.05h0c.88-.8,3.04-3.39,6.47-7.77h0c8.02-6.28,12.65-10.33,13.87-12.15,.08-.12,.16-.24,.22-.36h0c1.77-2.4,3.14-4.75,4.1-7.05,.04-.11,.08-.22,.12-.33l4.54-15.14h0c.83-1.52,3.24-4.68,7.22-9.48,1.18-1.42,.99-3.53-.43-4.71-.63-.52-1.38-.77-2.14-.77Z"/><path d="M108.74,26.47h0c-.63,.38-1.11,.96-1.38,1.64h-.1c.17-.63,.67-1.18,1.48-1.64h0Zm-18.22-17.39c8.59,9.58,13.94,15.96,16.05,19.16h0c-.34,.08-.65,.19-.94,.32h0c-2.76,.55-5.54,1.44-8.32,2.67h0c-2.64-7.32-4.91-14.71-6.79-22.15h0Zm18.42,25.57c.51,2.04,.83,4.54,.96,7.51h0c-.94-1.33-1.96-2.66-3.07-3.98-.11-.14-.24-.27-.38-.38-.72-.62-1.42-1.09-2.1-1.41h0c-.3-.14-.59-.26-.88-.35h0c1.33-.43,2.65-.76,3.96-1,.34-.06,.66-.17,.96-.33h0c.16-.02,.34-.04,.56-.05h0Zm6.89,.29c3.48,.29,8.08,.77,13.79,1.45h0c-.44,.8-1.24,1.51-2.41,2.13l-.08,.04c-3.86,2.16-7.36,4.04-10.48,5.64h0c-.06-3.51-.33-6.59-.83-9.25h0Zm-22.66,6.21l1.66,8.39h0c-.26-.13-.5-.26-.75-.39h0c-2.25-1.2-3.82-2.23-4.71-3.1h0c-.13-.65-.25-1.27-.38-1.85h0c1.4-1.12,2.8-2.13,4.18-3.05h0Zm10.25,3.48c1.1,1.45,2.08,2.9,2.94,4.34h0c-.67,.27-1.31,.5-1.9,.71h0c-.29-1.53-.64-3.22-1.03-5.06h0Zm-53.58-2.04c5.14,7.88,10.18,13.77,15.1,17.66h0c-3.55,.91-7.44,1.36-11.67,1.36-4.49,0-9.36-.51-14.6-1.54h0l-14.33-7.38h0c-.02-.27,.04-.68,.19-1.24h0c1.51-2.35,9.95-5.3,25.32-8.87h0Zm60.45,15.77c.54,2.25,.8,4.49,.76,6.72,0,.08,0,.17,0,.25,0,.13,.01,.27,.02,.39h0c.01,.42,0,.81-.03,1.17h0c-1.59-1.68-3.31-3.67-5.15-5.96-.05-.06-.11-.13-.16-.19-.04-.05-.08-.09-.12-.14h0c.03-.14,.05-.28,.07-.42h0c.06-.43,.07-1,.04-1.7h0c.07,0,.15,0,.23,0,1.36,0,2.81-.04,4.35-.13h0Zm14.28,.02c1.91,3.82,.48,8.25-4.3,13.3h0c.19-4.15,1.62-8.58,4.29-13.3h0Zm24.13,46.47c.23,.91,.83,1.7,1.69,2.15-1.09-.57-1.65-1.29-1.69-2.15h0Zm-2.83-2.87c.29,0,.54,.05,.77,.14,.27,.11,.56,.19,.85,.23,.43,.05,.84,.12,1.26,.18h0c.03,.14,.05,.27,.07,.38h0c-.09,.26-.16,.54-.18,.82-.02,.2-.02,.41,0,.6h0c-.62,1.1-1.9,2.85-3.82,5.23h0c-.37,.33-.73,.64-1.08,.92h0c-2.51-1.26-4.77-2.19-6.78-2.81h0c.32-.3,.67-.61,1.07-.94l.05-.04c3.58-3.14,6.19-4.71,7.84-4.71Zm-15.53,13.24c.34,.5,.71,.97,1.09,1.39,2.02,2.25,4.31,3.37,6.86,3.37,1.78,0,3.69-.55,5.73-1.65h0c1.78,1.9,3.66,5.91,5.66,12.01h0c-.22,4.08-.45,7.84-.68,11.29h0c-1.9-3.43-4.3-6.86-7.22-10.28h0c-.48-5.66-3.79-9.48-9.93-11.46-.33-.11-.68-.16-1.03-.16-.27,0-.55,.03-.81,.1h0c-.24-.2-.48-.4-.72-.6h0c-.35-1.05,0-2.39,1.05-4h0Zm25.2-10.78c6.55,2.76,11.08,7.86,13.59,15.3l.02,.04c.81,2.29-.56,6.93-4.11,13.94h0c-4,4.14-7.13,6.95-9.37,8.42h0c.25-3.69,.5-7.72,.73-12.08,.02-.41-.03-.82-.16-1.21-2.18-6.76-4.44-11.58-6.8-14.47h0l.05-.05c.13-.12,.25-.25,.36-.38,2.41-2.98,4.01-5.22,4.8-6.71h0c.22-.42,.39-.8,.52-1.16h0c.21-.59,.33-1.14,.37-1.65h0Zm-26.78,23.17c2.28,2.06,4.36,4.11,6.23,6.16h0c-.03,1.67-.4,3.58-1.1,5.75-.4,1.22-.89,2.52-1.48,3.89h0c-.44,.71-.87,1.4-1.28,2.07h0l-2.2-7.19-.53-10.43h0c.11-.08,.23-.16,.37-.25h0Zm4.96,26.45h0c.16,.08,.3,.18,.43,.28h0c-.14-.1-.28-.2-.43-.28h0Zm-10.52,4.26c.41,0,.85,.11,1.33,.32-.43-.19-.89-.28-1.35-.28-.2,0-.4,.02-.6,.05h0c.2-.06,.4-.09,.62-.09Zm17.34-17.63h0c1.1,1.59,2.07,3.19,2.92,4.77,.09,.17,.19,.33,.31,.48,.16,.2,.32,.39,.51,.58h0c.98,1,2.39,1.77,4.2,2.31h0c-.63,7.85-1.29,13.51-1.99,16.97h0l-12.05-11.23-.03-.03h0c-.13-.19-.3-.49-.52-.9h0c1.32-2.03,2.78-4.35,4.39-6.95,.08-.13,.16-.27,.22-.42,.71-1.64,1.31-3.2,1.79-4.68,.1-.3,.19-.6,.28-.9h0ZM86.87,0c-1.59,0-2.79,.68-3.59,2.03h0c-.54,.9-.72,1.94-.56,3.14h0c.01,.11,.03,.21,.05,.32,0,.05,.02,.1,.03,.15,2.22,9.69,5.06,19.27,8.52,28.75h0c-1.49,.91-2.99,1.93-4.49,3.03h0c-.05-.09-.1-.17-.15-.25-.02-.04-.05-.07-.07-.11-.03-.04-.05-.08-.08-.12h0c-.86-1.21-1.93-1.81-3.2-1.83h-.04s-.08,0-.12,0h0c-2.41-2.6-5.15-5.1-8.22-7.49h0c-.19-.16-.39-.3-.58-.44h0c-1.02-.69-2.08-1.03-3.15-1.03-.66,0-1.32,.13-1.99,.38h0c-.37-.5-.7-1-1.01-1.52-.61-1.03-1.71-1.65-2.88-1.65-.19,0-.38,.02-.56,.05-7.97,1.36-13.12,2.77-15.47,4.23h0c-.38,.17-.73,.36-1.06,.58h0c-1.35,.9-2.21,2.13-2.6,3.7h0c-.24,.95-.27,1.99-.11,3.11h0c.06,.42,.21,.83,.42,1.2,.07,.11,.13,.22,.2,.34h0c-15.98,3.87-25.1,7.69-27.37,11.45h0c-.36,.6-.61,1.22-.74,1.87h0c-.47,1.86-.48,3.5-.04,4.92,.44,1.42,1.27,2.55,2.51,3.38h0c.11,.07,.22,.14,.34,.2l15.21,7.83c.28,.14,.57,.25,.88,.31,5.85,1.17,11.31,1.76,16.38,1.76,9.1,0,16.94-1.88,23.52-5.65,1.6-.92,2.16-2.96,1.24-4.57-.62-1.08-1.75-1.68-2.91-1.68-.56,0-1.14,.14-1.66,.44-.33,.19-.67,.37-1,.55h0c-.42-2.43-2.69-6.17-6.8-11.23-.12-.15-.26-.29-.4-.41-5.4-4.69-9.15-7.72-11.26-9.09h0c-.6-.96-1.2-1.95-1.8-2.97h0c.23-.1,.45-.22,.66-.37,1.16-.84,4.79-1.82,10.88-2.92h0c.55,.76,1.16,1.5,1.82,2.22h0c-.6,3.26,.22,6.76,2.45,10.51h0c4.72,10.51,9.81,15.92,15.25,16.22,.06,0,.12,0,.18,0,.34,0,.68-.05,1-.15,.22-.07,.42-.15,.62-.26h0c1.41-.74,2.11-1.98,2.09-3.72h0l7.21,1.55h0c.62,.26,1.31,.5,2.06,.7h0l.75,3.78h0c.43,2.36,1.62,4.92,3.57,7.7h0c2.29,3.49,3.99,5.69,5.12,6.62h0c.92,.75,1.82,1.13,2.71,1.13,.58,0,1.16-.16,1.74-.49h0c.3-.04,.6-.09,.88-.14h0c1.04,.83,2.04,1.54,3,2.14h0v.04c.04,.12,.07,.24,.11,.36,.28,.81,.67,1.53,1.18,2.17h0c.25,.32,.54,.6,.84,.87h0c1.42,1.22,3.28,1.82,5.59,1.82,.24,0,.49,0,.74-.02h0c.2,.02,.4,.03,.6,.03,.16,0,.32,0,.49-.02h0c1.84-.14,4.31-1.22,7.41-3.23h0c.26-.04,.49-.06,.72-.06,.37,0,.69,.05,.96,.16l.08,.03c6.74,2.33,10.87,6.27,12.4,11.8,.03,.1,.06,.19,.09,.29,.39,1.03,.75,2,1.07,2.89h0c-.11,0-.23,0-.34,0-3.53,0-7.7,2.11-12.5,6.32h0c-2.27,1.92-3.81,3.78-4.61,5.57h0c-.24,.09-.48,.19-.7,.3-.37,.18-.69,.43-.97,.74-4.94,5.43-6.16,10.34-3.65,14.73,.02,.03,.03,.05,.05,.08h0c-.31,.27-.57,.54-.8,.82-1.16,1.4-1.56,2.9-1.18,4.49h0l.54,10.66c.01,.27,.06,.55,.14,.81l3.98,13.03h0c-1.96,2.94-3.36,4.82-4.2,5.63h0c-.11,.04-.22,.08-.33,.13-.56,.25-1.03,.64-1.38,1.13h0c-1.64,.97-6.83,2.28-15.58,3.93-1.82,.34-3.01,2.09-2.67,3.91,.3,1.61,1.71,2.73,3.28,2.73,.21,0,.42-.02,.62-.06,10.17-1.92,16.34-3.67,18.5-5.25h0c.18-.13,.34-.27,.5-.41h0c.29-.15,.58-.34,.88-.57h0c.88-.69,2.18-2.21,3.89-4.57h0c.07,.06,.14,.11,.21,.16h0l14.5,13.52c.17,.16,.36,.3,.57,.42,.23,.14,.46,.25,.69,.35h0c.81,.35,1.56,.53,2.24,.53,1.63,0,2.87-1,3.73-3.01l.02-.04c1.22-2.93,2.31-10.21,3.28-21.83h0c3.84-1.25,8.88-5.12,15.13-11.62,.23-.24,.42-.5,.57-.79,4.56-8.91,6.13-15.45,4.69-19.59h0c-3.7-10.96-10.85-17.88-21.43-20.77h0c-.59-1.84-1.36-4.01-2.3-6.52h0c-2.17-7.74-7.69-13.16-16.57-16.25h0c-1.03-.39-2.13-.58-3.3-.58-.88,0-1.8,.11-2.76,.33-.4,.09-.77,.25-1.11,.48-.91,.61-1.7,1.1-2.38,1.49h0c8.08-8.7,8.94-16.67,2.56-23.91h0c-.51-.58-1.08-1.16-1.69-1.72-.62-.57-1.43-.88-2.27-.88-.13,0-.25,0-.38,.02-.97,.11-1.84,.63-2.38,1.44-1.73,2.53-3.18,5.02-4.34,7.47h0c-.29-1.48-.69-2.97-1.18-4.44h0c.2-.63,.36-1.32,.48-2.07h0c4.1-1.93,8.74-4.35,13.94-7.26h0c5.12-2.7,7.18-6.58,6.18-11.63-.28-1.42-1.44-2.5-2.88-2.67-8.54-1.04-15.1-1.7-19.71-1.98h0c-.06-.27-.15-.55-.26-.84h0c-.11-.29-.24-.59-.41-.92h0c-1.66-3.24-8.03-11.01-19.11-23.3-.22-.25-.48-.46-.77-.63-2.25-1.35-4.06-2.14-5.42-2.36h0c-.37-.06-.73-.09-1.07-.09Z"/></g></g></svg>