<?xml version="1.0" encoding="UTF-8"?><svg id="Layer_2" xmlns="http://www.w3.org/2000/svg" viewBox="0 0 161.56 243.8"><g id="Layer_1-2"><g id="layer3"><path d="M96.28,0c-.58,0-1.16,.18-1.66,.56-1.22,.92-1.47,2.65-.55,3.87l12.87,17.12,5.77,14.9h0l2.71,10.73s.03,.1,.04,.14c.36,1.14,.66,2.96,.9,5.46,0,.08,.02,.16,.04,.24,.33,1.75,.97,3.86,1.91,6.33h0c.65,3.68,1.55,7.44,2.69,11.28h0c.11,.54,.17,.91,.18,1.13h0c-.37,3.6-.58,6.53-.61,8.79h0l-1.12,5.43c-.04,.2-.06,.4-.06,.6,.06,3.42,.3,6.43,.74,9.01h0c.02,.54-.02,1.32-.12,2.34v.11h0c-.05,.6-.09,1.04-.13,1.32h0c-1.06,1.82-1.56,3.55-1.48,5.2,.07,1.48,1.29,2.64,2.76,2.64,.04,0,.09,0,.13,0,1.53-.07,2.71-1.37,2.64-2.89-.03-.63,.28-1.45,.92-2.46,.14-.22,.25-.46,.32-.71,.03-.09,.05-.19,.08-.29h0c.11-.49,.21-1.3,.29-2.44v-.06h0c.13-1.37,.17-2.46,.12-3.28,0-.1-.02-.2-.04-.3-.39-2.25-.62-4.9-.68-7.95h0l1.12-5.45c.04-.18,.06-.35,.06-.53,.02-2.16,.22-5.07,.6-8.72,.01-.1,.02-.19,.02-.29h0c0-.59-.11-1.39-.31-2.4h0l-.02-.12c-.02-.07-.03-.15-.06-.22-1.12-3.75-1.98-7.41-2.61-10.98-.03-.18-.08-.35-.14-.52-.83-2.17-1.4-3.98-1.69-5.42h0c-.27-2.75-.63-4.86-1.07-6.35h0l-2.75-10.9c-.03-.11-.06-.22-.1-.32l-5.97-15.41c-.09-.24-.22-.46-.37-.66L98.5,1.1c-.54-.72-1.37-1.1-2.21-1.1Z"/><path d="M75.08,40.69c.36,0,.75,.08,1.16,.25h0c-.15-.05-.31-.1-.47-.12-.16-.03-.31-.04-.47-.04-.74,0-1.45,.29-1.97,.82h0c.48-.61,1.06-.91,1.75-.91Zm1.93,.67c.4,.3,.7,.71,.89,1.21-.18-.49-.49-.9-.89-1.21h0ZM96.88,1.91c-.29,0-.59,.05-.88,.14-1.35,.45-2.12,1.83-1.83,3.19h0c-.09,.54-.53,1.51-1.32,2.93h0c-3.96,6.22-8.05,12.39-12.29,18.49-.09,.13-.16,.26-.23,.4-4.02,8.55-6.38,13.44-7.09,14.66h0l-.04,.05c-3.51,4.16-7.64,10.08-12.39,17.75-.14,.23-.25,.47-.32,.72-.67,2.44-5.12,11.92-13.36,28.43-.03,.05-.05,.1-.07,.15-.83,1.95-.33,3.31,1.5,4.08h0c.38,.16,.79,.24,1.21,.24,.36,0,.74-.06,1.13-.17,1.42-.42,2.25-1.87,1.91-3.3h0c7.55-15.18,11.85-24.36,12.88-27.54h0c4.37-7.04,8.16-12.5,11.38-16.38h0c.25-.23,.49-.51,.72-.86,.67-1.04,3.16-6.12,7.45-15.25h0c4.27-6.16,8.4-12.38,12.39-18.65,.03-.05,.06-.09,.08-.14,1.24-2.23,1.91-4,2.01-5.3,.05-.63-.01-1.22-.19-1.75-.39-1.16-1.47-1.89-2.62-1.89Z"/><path d="M61.11,88.07c-1.91,0-3.99,.16-6.24,.48h0c-.4-.02-.74-.08-1.02-.17-.29-.09-.58-.14-.86-.14-1.16,0-2.25,.74-2.63,1.91-.48,1.45,.31,3.02,1.77,3.49,.83,.27,1.77,.42,2.81,.45,.02,0,.05,0,.07,0,.13,0,.27,0,.4-.03,2.09-.3,3.99-.46,5.69-.46,.59,0,1.15,.02,1.69,.05h0c7.35,.62,11.55,1.06,12.6,1.32h0c.15,.06,.31,.11,.48,.14,1.7,.35,2.98,.74,3.85,1.16h0l7.19,4.53c.1,.06,.21,.12,.31,.17,1.07,.49,2.61,.86,4.64,1.08h0c.81,.1,1.63,.16,2.48,.16,.37,0,.74,0,1.12-.03,.06,0,.11,0,.16-.01,4.69-.53,7.78-.79,9.27-.79,.09,0,.17,0,.24,0h0c.46,.02,.9,.07,1.33,.15h0l3.95,.89c.08,.02,.16,.03,.3,.05h0c1.28,.17,2.42,.26,3.42,.26,.12,0,.24,0,.36,0h.12l6.3-.42h0l3.25-.04c.09,0,.17,0,.26-.02,1.59-.17,2.68-.96,3.26-2.35,.59-1.41-.07-3.03-1.48-3.62-.35-.15-.71-.22-1.07-.22-.67,0-1.32,.24-1.82,.68h0l-2.54,.03s-.1,0-.14,0l-6.3,.41h0c-.06,0-.12,0-.18,0-.73,0-1.59-.07-2.6-.2h0l-3.91-.88-.09-.02c-.72-.14-1.46-.22-2.21-.25h-.03c-.1,0-.21,0-.32,0-1.73,0-5.01,.27-9.86,.82h0c-.25,.01-.5,.02-.74,.02-.61,0-1.2-.04-1.78-.11h0l.16,.03-.23-.04c-1.31-.15-2.24-.33-2.79-.55h0l-7.15-4.51c-.07-.04-.14-.08-.21-.12-1.26-.64-2.95-1.19-5.07-1.64h0c-.1-.04-.2-.07-.31-.1h0c-1.27-.35-5.84-.85-13.71-1.51h-.05c-.66-.05-1.34-.07-2.05-.07Z"/><path d="M113.71,98.12c-1.37,0-2.56,1.01-2.74,2.4h0v.02h0c-.04,.31-.06,.75-.08,1.32,0,.07,0,.14,0,.21,.05,.97,.06,1.75,.03,2.32h0c-.36,3.98-.53,6.29-.54,6.92h0c-.16,5.31-.22,8.5-.19,9.59h0c-.01,.53-.04,1.07-.08,1.62h0c-.47,4.29-.9,9.25-1.3,14.89h0c-.42,3.05-.65,4.81-.69,5.3h0c0,.1-.01,.2,0,.3h0l-.71,9.67h0c-.11,1.29-.34,3.22-.7,5.77-.01,.07-.02,.15-.02,.22-.03,.59-.02,1.16,.05,1.69,.01,.08,.02,.16,.04,.24l.3,1.37h0c-.54,.66-.76,1.56-.53,2.45,.18,.69,.36,1.24,.54,1.64h0c.54,1.22,1.38,1.88,2.53,2h0c.15,.01,.29,.02,.42,.02,1.48,0,2.41-.86,2.79-2.59h0c.05-.25,.1-.54,.14-.87h0c.03-.19,.04-.4,.04-.63h0c0-.35-.04-.78-.11-1.3h0c0-.07-.02-.14-.04-.21l-.62-2.86h0c-.02-.15-.02-.31-.02-.49h0c.37-2.64,.61-4.65,.72-6.03v-.03l.73-9.87s0-.07,0-.11h0c.03-.37,.25-2.08,.67-5.12,0-.06,.02-.12,.02-.18,.4-5.61,.83-10.55,1.29-14.79v-.11c.06-.68,.09-1.35,.1-2.02,0-.05,0-.09,0-.14-.03-.98,.04-4.08,.19-9.29h0v-.13h0c0-.47,.18-2.65,.52-6.52v-.08c.05-.74,.05-1.67,0-2.77h0c0-.37,.02-.61,.03-.72h0c.2-1.52-.87-2.9-2.39-3.1-.12-.02-.24-.02-.36-.02Z"/><path d="M42.08,147.86h0c.09,.02,.17,.04,.26,.06h0c-.07-.02-.14-.04-.22-.05h-.04Zm13.12-56.96c-1.09,0-2.13,.65-2.57,1.73-2.57,6.34-4.22,11.87-4.95,16.57h0c-1.55,3.14-2.72,5.95-3.51,8.42l-.02,.07-4.71,16.14c-.06,.21-.1,.42-.11,.63-.21,4.1-.62,7.47-1.21,10.1-.04,.18-.06,.37-.07,.55-.05,2.71,.07,4.6,.38,5.65,.41,1.42,1.24,2.25,2.48,2.5h0c2.34,.57,4.83,1.52,7.47,2.86,.21,.1,.43,.18,.65,.23l6.08,1.35h0s.05,.01,.08,.02h0c1.12,.29,3.99,.5,8.62,.64h0c4.26,1.45,6.9,2.25,7.92,2.4h0c.13,.02,.25,.03,.36,.04h0l17.82,2.57c.06,0,.12,.02,.18,.02,.82,.06,1.61,.1,2.38,.1s1.49-.03,2.19-.09c.11,0,.21-.03,.32-.05,4.62-.97,8.47-1.45,11.55-1.45,.11,0,.22,0,.33,0h.03c.27,0,.53-.04,.79-.11,1.97-.58,3.62-2.22,4.95-4.9,.68-1.37,.12-3.03-1.25-3.71-.4-.2-.81-.29-1.23-.29-1.02,0-2,.56-2.48,1.54-.51,1.03-.96,1.68-1.34,1.94h0c-3.39,.02-7.5,.53-12.32,1.53h0c-.49,.04-1,.06-1.54,.06-.59,0-1.2-.02-1.84-.07h0l-17.88-2.58c-.09-.01-.17-.02-.26-.02h0c-.76-.13-3.18-.89-7.27-2.29-.26-.09-.54-.14-.82-.15-4.39-.12-6.98-.28-7.77-.47h0c-.08-.02-.15-.04-.23-.06l-5.8-1.29h0c-2.39-1.19-4.71-2.11-6.94-2.77h0c-.04-.65-.05-1.56-.04-2.74h0c.61-2.82,1.03-6.29,1.26-10.43h0l4.63-15.85h0c.74-2.3,1.87-4.96,3.37-7.98h0c.13-.27,.22-.55,.26-.84,.63-4.35,2.19-9.59,4.67-15.71,.57-1.42-.11-3.03-1.53-3.6-.34-.14-.69-.2-1.04-.2Z"/><path d="M63,123.62c.62,0,1.2,.29,1.74,.86h0c-.1-.09-.2-.17-.31-.24-.47-.31-1-.47-1.54-.47-.6,0-1.19,.19-1.69,.58h0c.63-.49,1.23-.73,1.79-.73Zm2.52,2.01h0c.16,.4,.2,.81,.13,1.23h0c.05-.42,0-.84-.13-1.23h0Zm3.9,7.02c-.57,.59-1.17,.89-1.79,.89-.35,0-.71-.09-1.08-.28h0c.3,.11,.62,.16,.94,.16,.28,0,.56-.04,.83-.13,.41-.13,.78-.35,1.09-.64h0Zm28.16,7.22h0Zm-29.52-29.4c-1.43,0-2.64,1.1-2.76,2.55-.12,1.48-.59,3.29-1.43,5.44h0c-2.06,3.89-3.23,6.19-3.51,6.89h0c-.13,.32-.21,.64-.24,.94h0c-.17,.74-.26,1.4-.25,1.97h0c.02,1.38,.52,2.43,1.5,3.14h0c.32,.23,.69,.39,1.07,.47,1.77,.36,2.96,.73,3.56,1.12,.14,.09,.29,.17,.44,.23h0c.56,.41,1.81,1.46,3.75,3.14,.18,.15,.37,.28,.58,.38l4.67,2.33h0c.56,.35,2.04,1.48,4.42,3.39h.02c.71,.57,1.62,1.02,2.73,1.36,.15,.04,.3,.08,.45,.1,1.89,.25,4.4,.69,7.51,1.33h.05c.15,.04,.31,.06,.47,.06l6.3,.1h0c.07,0,.13,0,.2,0,.39,0,.78-.05,1.18-.14h0c1.6-.39,3.39-1.64,5.37-3.77,1.04-1.12,.98-2.87-.14-3.91-.53-.5-1.21-.74-1.88-.74-.74,0-1.48,.3-2.03,.88-1.18,1.27-2.04,1.99-2.57,2.14h0l-6.07-.1h0c-3-.61-5.47-1.05-7.41-1.31h0c-.32-.11-.56-.21-.7-.32h0c-2.73-2.2-4.48-3.51-5.24-3.94-.04-.02-.09-.05-.13-.07l-4.39-2.19h0c-2.25-1.95-3.69-3.12-4.31-3.52h0c-.25-.16-.49-.29-.73-.39h0c-.74-.4-1.67-.76-2.8-1.08h0c.44-.91,1.49-2.94,3.15-6.09,.05-.09,.09-.18,.13-.28,1.07-2.7,1.68-5.08,1.84-7.14,.12-1.52-1.02-2.85-2.54-2.97-.07,0-.15,0-.22,0Z"/><path d="M99.7,107.82c-.35,0-.71,.07-1.05,.21-.04,.02-.08,.03-.12,.04h0c-.23-.06-.47-.09-.7-.09-1.2,0-2.3,.78-2.65,1.99-.43,1.47,.41,3,1.88,3.43l.18,.05c.09,.03,.18,.05,.27,.06l.19,.04c.09,.02,.17,.03,.26,.04l.19,.02c.08,0,.17,.01,.25,.01h.2c.08,0,.16,0,.24-.01l.21-.02c.07,0,.15-.02,.22-.03l.21-.04c.07-.01,.13-.02,.19-.04l.22-.05,.09-.02c.25-.07,.51-.16,.77-.27,1.41-.58,2.09-2.2,1.5-3.61-.44-1.07-1.47-1.71-2.56-1.71Z"/><path d="M78.58,105.49h1.26c1.53,.02,2.76,1.27,2.74,2.8s-1.26,2.76-2.79,2.74h-1.26c-1.53-.02-2.76-1.27-2.74-2.8,.01-1.53,1.26-2.76,2.79-2.74Z"/><path d="M149.68,119.66c-1.2,.02-2.22,.81-2.58,1.9h0c.25-1.25,1.11-1.88,2.58-1.9h0Zm-2.48,3.9c.29,.63,.8,1.14,1.45,1.42h0c-.73-.25-1.22-.72-1.46-1.42h0Zm-32.42,1.34c.36,.13,.67,.4,.95,.8h0c-.26-.34-.58-.61-.95-.8h0Zm20.28-6.79c-.11,0-.21,0-.32,0h-.02c-2.05,.03-3.73,.19-5.05,.47-.06,.01-.13,.03-.19,.05l-6.4,1.88c-.11,.03-.22,.07-.33,.12l-5.84,2.55c-.08,.04-.17,.08-.29,.15h0c-1.16,.65-1.98,1.1-2.47,1.34h0c-.21-.05-.43-.08-.65-.08-.29,0-.59,.05-.88,.14-1.45,.48-2.23,2.05-1.75,3.5,.05,.14,.1,.27,.17,.41h0c.61,1.25,1.49,1.88,2.66,1.88,.55,0,1.17-.14,1.85-.43h0s.06-.03,.09-.04h0c.06-.02,.13-.05,.19-.07h0c.54-.22,1.67-.81,3.4-1.78h0l5.58-2.44h0l6.11-1.8h0c.95-.2,2.24-.31,3.87-.33h0c.1,0,.2,0,.29,0,.49,0,.87,.01,1.13,.03l-.22-.03,.24,.03,5.61,.4h0c.56,.04,1.72,.23,3.5,.56,.07,.01,.14,.02,.21,.03,1.73,.19,2.85,.32,3.37,.39h0c.14,.04,.28,.07,.42,.09h0c.53,.19,1.63,.83,3.3,1.93,.22,.15,.47,.26,.72,.34,1.92,.57,3.09,1.03,3.52,1.36h0c.53,.51,1.22,.76,1.9,.76s1.42-.27,1.96-.81c1.08-1.08,1.08-2.83,0-3.91-.14-.14-.29-.27-.46-.4h0c-.92-.72-2.56-1.44-4.93-2.17h0c-2.02-1.31-3.5-2.11-4.44-2.39h0s-.08-.02-.12-.04h0c-.19-.06-.39-.11-.61-.15h0c-.41-.07-1.7-.23-3.87-.47h0c-1.94-.37-3.28-.57-4.05-.63h0l-5.61-.4h0c-.41-.03-.93-.05-1.58-.05Z"/><path d="M28.86,100.05h-.1c-1.44,.04-2.48,.08-3.15,.11h0c-.46,.02-1.47,.11-3.01,.27h0c-2.21,.05-3.94,.17-5.17,.33h-.08c-2.77,.46-4.97,.75-6.58,.87-.06,0-.11,.01-.17,.02-.47,.06-.9,.14-1.29,.24l-.07,.02-5.42,1.43,.43-.06-.43,.06c-.39,.1-.77,.26-1.15,.47h0c-.65,.37-1.3,.91-1.95,1.64-1.02,1.14-.92,2.89,.21,3.91,.53,.47,1.19,.71,1.85,.71,.76,0,1.52-.31,2.06-.92,.21-.24,.38-.4,.5-.48h0l5.25-1.38h0c.2-.05,.43-.09,.69-.13h0c1.75-.14,4.06-.44,6.92-.9h0c1.05-.14,2.61-.24,4.67-.29,.07,0,.15,0,.22-.01,1.54-.16,2.48-.25,2.81-.26h.04c.61-.03,1.59-.07,2.95-.11h0c4.37,.05,6.97,.14,7.8,.29,.06,.01,.12,.02,.18,.03,.52,.06,1.05,.24,1.61,.55h0c1.58,1.3,2.9,2.28,3.94,2.96h0c1.44,1.1,2.8,2.57,4.06,4.39,.1,.14,.21,.27,.33,.39,.48,.47,1.01,.85,1.59,1.12h0c.09,.04,.18,.08,.27,.12h0s.06,.02,.09,.03h0c.33,.13,.66,.19,1,.19,1.11,0,2.16-.67,2.58-1.77,.54-1.41-.14-2.99-1.53-3.56h0c-1.57-2.21-3.29-4.02-5.16-5.43-.06-.04-.11-.08-.17-.12-.91-.58-2.12-1.5-3.65-2.76-.11-.09-.22-.17-.34-.24-1.27-.76-2.57-1.22-3.9-1.38h0c-1.19-.19-4.09-.31-8.68-.36Z"/><path d="M86.08,61.29h0c-.23,.53-.64,.94-1.23,1.24h0c.53-.27,.96-.7,1.23-1.24h0Zm-15.62,29.72h0ZM96.73,4.62c-.07,0-.15,0-.22,0-1.22,.1-2.23,.99-2.48,2.19l-5.03,23.82-5.65,20.12,.2-12.85h0c.12-.5,.24-.96,.34-1.4l.02-.09,1.8-9.1c.02-.1,.03-.19,.04-.29,.08-.95,.07-1.75-.04-2.38h0c-.18-1.08-.65-1.89-1.4-2.45h0c-.49-.37-1.07-.55-1.65-.55-.64,0-1.27,.22-1.78,.65-.23,.19-.45,.41-.65,.65h0c-1.3,1.57-2.01,4.4-2.11,8.48v.03l-.09,5.74h0c-.94,3.7-2.45,8.98-4.53,15.84h0c-.13-.03-.27-.04-.4-.05-.04,0-.09,0-.13,0-1.31,0-2.45,.92-2.71,2.22-.41,2.02-.89,4.13-1.45,6.33h0v-.03h0c-.34-1.77-1.31-2.65-2.92-2.66h0c-1.22,0-2.12,.61-2.73,1.82-.16,.32-.26,.67-.28,1.03-1.06,14.53-1.97,22.63-2.72,24.31h0c-.48,.84-.47,1.83-.05,2.64h0c-.28,1.32,.44,2.68,1.75,3.17,.32,.12,.64,.17,.96,.17,.82,0,1.61-.37,2.13-1h0c.01,.34,.04,.64,.08,.9h0c.29,1.84,1.26,2.8,2.9,2.88h0c.05,0,.11,0,.16,0,1.02,0,1.9-.48,2.63-1.45h0c.19-.25,.38-.55,.58-.9h0c.08-.13,.16-.26,.23-.4h0c.82-1.59,1.33-5.25,1.55-10.96h0c1.2-6.89,2.74-14.25,4.62-22.1h0l-.21,13.65h0c-.5,4.8-1.45,8.81-2.85,12.02-.1,.22-.16,.45-.2,.69-.13,.86-.11,1.66,.07,2.41h0c.14,.61,.38,1.18,.72,1.69h0c.51,.79,1.39,1.25,2.31,1.25,.11,0,.22,0,.33-.02,1.04-.13,1.93-.83,2.28-1.83l2.92-8.27c.06-.17,.1-.34,.13-.52,1.64-11.17,2.63-17.47,2.97-18.89h0c.05-.11,.09-.23,.12-.34l8.08-28.75c.02-.06,.03-.12,.04-.18l1.66-7.87h0c-.02,3.33-.2,7.06-.54,11.2h0c-1.33,8.7-2.43,14.68-3.29,17.95h0c-2.78,10.29-4.72,16.66-5.84,19.11-.11,.24-.19,.5-.22,.77-1.2,8.74-2.13,13.76-2.81,15.08h0c-.87,1.11-.77,2.72,.27,3.71,.54,.51,1.22,.77,1.91,.77,.73,0,1.45-.28,1.99-.85l.02-.02h0c2.63-2.77,4.4-5.59,5.32-8.46h0c6-16.74,10.03-27.53,12.11-32.36h0c.23-.5,.48-1.13,.75-1.91h0c-.94,3.75-2.7,9.55-5.28,17.4-.07,.22-.12,.45-.13,.68-.68,10.34-1.22,16.33-1.64,17.98-.05,.22-.08,.44-.08,.67h0c-.14,1-1.07,4.41-2.79,10.24-.33,1.11,.07,2.32,1.01,3.01,.49,.36,1.07,.54,1.65,.54,.53,0,1.06-.15,1.52-.46,2.54-1.67,4.67-5.47,6.41-11.4,.02-.06,.03-.11,.04-.17,1.2-5.33,2.82-11.69,4.88-19.08h0c-.61,8.89-1.56,18.53-2.85,28.91h0c-.14,1.08-.28,2.22-.43,3.43-.18,1.51,.9,2.89,2.41,3.07,.12,.01,.23,.02,.34,.02,1.37,0,2.56-1.02,2.74-2.41,.15-1.15,.29-2.3,.44-3.44h0c.45-3.45,.88-6.13,1.29-8.03l.02-.08c.71-3.91,2.77-11.73,6.2-23.48,.03-.09,.05-.18,.06-.27l2.16-11.58c.28-1.5-.71-2.95-2.21-3.23-.17-.03-.34-.05-.51-.05-1.31,0-2.47,.93-2.72,2.26l-.8,4.28h0c.26-6.5,.31-12.56,.16-18.18-.03-1.24-.88-2.3-2.08-2.61-.36-.09-.69-.14-1-.14-.9,0-1.61,.38-2.14,1.15h0c-.04-1.66-.17-3.5-.37-5.51h0c.79-2.79,1.22-4.61,1.29-5.46h0c.04-.45,.02-.85-.07-1.22h0c-.15-1.38-.4-2.45-.75-3.22h0c-.59-1.32-1.51-2.07-2.75-2.27-.14-.02-.29-.03-.43-.03-1.28,0-2.43,.9-2.7,2.19-3.11,14.52-5.32,23.2-6.63,26.05l-.03,.06c-.58,1.34-1.31,3.14-2.18,5.39h0c.89-3.57,2-9.62,3.3-18.17,0-.07,.02-.13,.02-.2,1.1-13.7,.53-23.46-1.72-29.28-.42-1.07-1.45-1.77-2.58-1.77Z"/><path d="M49.38,150.67c-1.3,0-2.46,.92-2.71,2.24-1.21,6.26-2.34,10.77-3.39,13.56-.07,.18-.12,.37-.15,.56l-.81,5.36-1.87,6.29-.02,.08c-.29,1.11-.75,4.07-1.37,8.87h0c-.14,.84-.35,1.88-.64,3.12h0l-3.42,10.21c-.04,.13-.08,.26-.1,.4-1.16,6.56-1.99,10.8-2.48,12.74h0l-3.55,12.82c-.41,1.47,.46,3,1.93,3.4,.25,.07,.5,.1,.74,.1,1.21,0,2.33-.8,2.67-2.03l3.56-12.88,.02-.06c.52-2.04,1.36-6.34,2.52-12.89h0l3.43-10.22c.03-.08,.05-.16,.07-.24,.34-1.44,.59-2.66,.75-3.67v-.08c.59-4.43,.99-7.12,1.23-8.09h0l1.92-6.47c.04-.12,.06-.25,.08-.37l.8-5.24h0c1.14-3.09,2.32-7.82,3.55-14.21,.29-1.5-.69-2.95-2.19-3.24-.18-.03-.35-.05-.53-.05Z"/><path d="M98.93,157.24c-.81,0-1.61,.35-2.15,1.03-.2,.24-.38,.53-.53,.85h0c-.22,.46-.42,1.05-.6,1.76-.02,.06-.03,.12-.04,.19l-1.29,7.1c-.01,.08-.02,.16-.03,.23-.31,3.26-1.57,11.71-3.8,25.33h0l-2.28,10.66-.02,.1c-1.6,9.06-2.61,14.45-3.04,16.17v.04c-1.15,4.88-2.12,9.29-2.93,13.22v.06h-.01c-.11,.5-.71,2.59-1.82,6.25-.44,1.46,.39,3.01,1.85,3.45,.27,.08,.53,.12,.8,.12,1.19,0,2.29-.77,2.65-1.97,1.16-3.86,1.81-6.11,1.94-6.75h0v-.05h0c.8-3.87,1.76-8.21,2.88-13.03h0c.46-1.83,1.49-7.32,3.1-16.45h0l2.3-10.79s.02-.09,.02-.13c2.2-13.5,3.48-22,3.83-25.51h0l1.25-6.88h0c.07-.29,.14-.5,.19-.63h0c.84-1.18,.62-2.83-.52-3.75-.51-.41-1.13-.62-1.74-.62Z"/></g></g></svg>