<?xml version="1.0" encoding="UTF-8"?><svg id="Layer_2" xmlns="http://www.w3.org/2000/svg" viewBox="0 0 272.42 402.09"><g id="Layer_1-2"><g id="layer1"><path d="M106.7,130.77c.22,.16,.39,.34,.53,.52h0c-.16-.19-.34-.37-.54-.52h0Zm1.09,1.48c.25,.47,.3,1.06,.15,1.78h0c.12-.61,.06-1.22-.15-1.78h0ZM163.16,0s-.07,0-.11,0c-6.39,.2-10.29,.48-11.68,.82h0c-.47,.12-.88,.28-1.23,.48-.18,.1-.34,.22-.5,.36h0c-1.47,1.01-7.18,2.56-17.12,4.63h0c-3.08-.39-5.62-.58-7.62-.58-1.51,0-2.71,.11-3.6,.33h0c-4.61,.59-9.12,2.74-13.55,6.45h0c-.21-.04-.43-.06-.66-.06-.03,0-.07,0-.1,0-1.85,.05-3.3,1.6-3.25,3.44,.01,.4,.04,.75,.09,1.07h0c.14,.91,.45,1.65,.95,2.24h0c.83,.98,1.71,1.47,2.63,1.47,.81,0,1.65-.37,2.53-1.12h0c.05-.05,.11-.1,.16-.15,4.16-4.02,8.24-6.26,12.24-6.72,.21-.02,.41-.07,.61-.13,.38-.12,1-.18,1.86-.18,1.62,0,4.1,.22,7.42,.65,.14,.02,.29,.03,.43,.03,.23,0,.45-.02,.68-.07,10.86-2.25,17.51-4.15,19.98-5.7h0c1.26-.2,4.52-.39,9.77-.56h0c12.85,.95,20.53,1.88,23.03,2.78h0c2.29,2.96,4.94,4.9,7.95,5.8h0c.07,.26,.13,.58,.2,.96h0c1.26,18.27,1.75,29.37,1.46,33.3,0,.1-.01,.19,0,.29,.16,12.19-.39,27.33-1.63,45.4h0c-.22,2,.03,5.96,.73,11.89h0c-11.66,12.07-24.94,19.04-39.86,20.93h0l-16.72,.66c-.25,.01-.5,.05-.74,.11l-5.13,1.39h0l-20.06,2.09h0c-2.03-.18-3.57-.4-4.61-.66h0c-.07-.02-.14-.03-.2-.05h0c-.2-.77-.42-2.48-.64-5.11h0c.25-12.39,.09-20.08-.48-23.07h0l1.05-6.3c.04-.27,.06-.54,.04-.81-.55-7.08-.19-17.46,1.1-31.12,1.28-13.67,2.35-22.99,3.21-27.97,.02-.14,.04-.28,.05-.43,.22-5.23,.06-9.27-.46-12.1-.3-1.61-1.71-2.74-3.29-2.74-.2,0-.41,.02-.62,.06-1.82,.34-3.02,2.08-2.68,3.9,.43,2.31,.55,5.78,.36,10.42h0c-.87,5.2-1.95,14.61-3.23,28.23-1.3,13.8-1.68,24.42-1.13,31.87h0l-1.09,6.56c-.09,.57-.04,1.15,.15,1.68h0c.5,1.76,.61,9.03,.35,21.82,0,.12,0,.23,.01,.35,.3,3.62,.67,6.02,1.08,7.2h0c.03,.07,.05,.14,.08,.21h0c.17,1.29,1.02,2.33,2.55,3.11h0c.59,.3,1.33,.56,2.21,.78h0c1.44,.36,3.43,.64,5.97,.86,.09,0,.19,.01,.28,.01,.12,0,.23,0,.35-.02l20.65-2.15c.18-.02,.36-.05,.53-.1l5.03-1.36h0l16.49-.65c.09,0,.19-.01,.28-.02,17.03-2.12,32.07-10.17,45.13-24.15,.68-.73,1-1.71,.87-2.7-.81-6.47-1.11-10.45-.91-11.94,.01-.08,.02-.15,.02-.23,1.25-18.16,1.8-33.41,1.65-45.75h0c.3-4.34-.19-15.8-1.48-34.38,0-.11-.02-.22-.04-.33-.28-1.64-.67-2.92-1.18-3.85h0c-.38-.7-.85-1.25-1.4-1.68-.43-.33-.93-.55-1.47-.64-2.14-.37-4.08-1.77-5.82-4.21-.27-.38-.62-.7-1.03-.94-.08-.05-.16-.09-.25-.14h0c-2.66-1.41-11.44-2.66-26.33-3.76-.08,0-.16,0-.25,0Z"/><path d="M182.77,112.05c-.29,0-.58,.04-.86,.11-1.79,.48-2.85,2.31-2.37,4.1,3.63,13.6,5.55,25.9,5.76,36.88h0c-.68,44.02-.93,67.68-.74,70.98h0c-.24,7.65-.59,12.13-1.05,13.43h0c-.06,.12-.12,.24-.17,.37l-7.66,19.84-8.84,15.99h0c-2.3,1.09-5.04,2.85-8.21,5.26h0l-9.4,4.03h0c-7.15,.36-26.92,4.7-59.29,13.02-.1,.02-.19,.05-.29,.09-.25,.09-.49,.17-.72,.24h0c-.77,.23-1.49,.35-2.14,.35-2.13,0-3.62-1.23-4.47-3.68h0c-.04-3.95-.63-8.08-1.77-12.37h0l-.15-17.58c0-.2-.02-.39-.06-.58-.73-3.94-1.3-11.74-1.7-23.4h0c.01-.25,0-.52-.02-.8h0c-.11-1.05-.75-3.61-1.92-7.7h0l-.05-7.45h0l2.28-15.39,7.52-28.41c.04-.14,.06-.28,.08-.42,.85-6.43,1.43-10.18,1.72-11.24h0c2.84-8.57,6.19-15.46,10.03-20.67,.2-.27,.36-.57,.47-.89,1.7-4.94,3.4-9.21,5.1-12.81h0c.09-.15,.17-.3,.23-.45h0c.91-2.06,.35-3.82-1.69-5.28h0c-.45-.32-1-.63-1.64-.91h0c-.44-.19-.9-.29-1.35-.29-1.29,0-2.51,.74-3.06,2-.58,1.31-.25,2.79,.71,3.74h0c-1.49,3.33-2.97,7.11-4.45,11.36h0c-4.13,5.72-7.69,13.09-10.68,22.1l-.02,.08c-.39,1.28-1.04,5.35-1.96,12.21h0l-7.51,28.36c-.03,.12-.06,.24-.08,.36l-2.35,15.83c-.03,.17-.04,.34-.04,.52l.06,8.16c0,.3,.05,.6,.13,.9,1.09,3.81,1.69,6.12,1.81,6.93h0c0,.06,0,.11,0,.17,.4,11.87,.99,19.99,1.77,24.36h0l.15,17.7c0,.29,.04,.58,.12,.86,1.12,4.06,1.67,7.91,1.65,11.54,0,.33,.05,.66,.14,.97,1.81,6.04,5.22,9.06,10.23,9.06,1.48,0,3.1-.26,4.86-.79h0c.29-.09,.59-.18,.89-.29h0c32.9-8.45,52.33-12.72,58.29-12.8,.44,0,.87-.1,1.27-.27l10.37-4.45c.26-.11,.5-.25,.71-.41h.01c3.37-2.61,6.07-4.31,8.09-5.12,.71-.29,1.31-.81,1.68-1.49l9.49-17.17c.07-.13,.14-.27,.19-.41l7.65-19.81h0c.1-.2,.19-.4,.28-.63h0c.73-1.96,1.23-7.23,1.5-15.83,0-.13,0-.25,0-.38-.19-2.33,.06-25.87,.75-70.61v-.12c-.22-11.52-2.22-24.35-5.98-38.47-.4-1.5-1.75-2.49-3.23-2.49Z"/><path d="M164.39,98.76c.2,1.02,.86,1.91,1.8,2.37,.43,.21,.9,.33,1.37,.35h0c-.08,0-.16,0-.24,0-1.67,0-2.65-.91-2.93-2.72h0Zm4.84-11.92c-1.5,0-2.86,1.01-3.24,2.53-.02,.07-.04,.15-.05,.23h0c-.13,.63-.38,2.51-.74,5.66h0c-1.68,.46-4.42,1.29-8.24,2.48h0c-1.49,.23-2.51,.43-3.08,.6h0c-.35,.1-.66,.23-.94,.38h0c-2.4,1.24-4.95,2.73-7.64,4.48h0c-.65,.3-1.21,.52-1.68,.65h0l-2.08-.93h0l-4.25-2.56c-.11-.07-.23-.13-.35-.19l-5.15-2.31h0c-1.51-.88-3.5-2.39-5.97-4.54-.04-.03-.08-.07-.12-.1-.09-.07-.18-.14-.28-.21h0c-.58-.41-1.43-.85-2.55-1.34-.43-.19-.88-.27-1.32-.27-1.3,0-2.53,.76-3.08,2.03-.73,1.7,.06,3.67,1.75,4.4,.67,.29,1.11,.5,1.32,.64h0c2.82,2.45,5.17,4.21,7.07,5.29,.09,.05,.18,.1,.28,.14l5.14,2.31h0l4.25,2.56c.11,.07,.23,.13,.35,.19l2.81,1.26c.13,.06,.27,.11,.4,.15,.2,.06,.4,.11,.58,.15h0c.39,.09,.77,.13,1.12,.13,.25,0,.49-.02,.73-.06h0c1.17-.21,2.54-.69,4.1-1.42,.14-.07,.28-.14,.41-.23,2.53-1.65,4.91-3.05,7.14-4.21h0c.38-.09,1.16-.23,2.34-.41h0c.17-.03,.33-.06,.49-.11,5.05-1.58,8.09-2.49,9.11-2.72h0c.55-.02,1.09-.18,1.57-.47,1.19-.71,1.95-1.83,2.26-3.36h0s.01-.06,.02-.09h0c.02-.08,.03-.17,.04-.25,.42-3.73,.69-5.85,.79-6.36h0c.42-1.78-.67-3.56-2.44-4.01-.27-.07-.55-.1-.82-.1Z"/><path d="M131.79,52.64c-1.12,0-2.22,.57-2.85,1.59-.26,.41-.46,.85-.6,1.29h0c-.08,.24-.14,.47-.19,.71h0c-.05,.24-.08,.49-.09,.73v.26c-.07,1.85,1.38,3.39,3.23,3.45,.04,0,.07,0,.11,0,1.75,0,3.2-1.35,3.33-3.09h0c.86-1.55,.35-3.52-1.18-4.47-.55-.34-1.15-.5-1.75-.5Z"/><path d="M176.8,49.38c-1.48,0-2.83,.99-3.23,2.49-.05,.18-.09,.36-.13,.55h0c-.04,.18-.07,.37-.09,.56h0v.05l-.03,.18v.05c-.03,.18-.04,.37-.05,.56v.52c-.04,1.85,1.44,3.37,3.29,3.39h.04c1.83,0,3.32-1.47,3.35-3.3v-.31h0s0-.07,0-.1h0l.02-.18h0s.01-.07,.02-.11h0s.02-.09,.03-.13c.48-1.79-.59-3.62-2.37-4.1-.29-.08-.58-.11-.86-.11Z"/><path d="M100.38,349.77h0Zm-21.18-46.37c-.91,0-1.83,.37-2.49,1.11-2.97,3.3-4.84,5.2-5.59,5.71h0c-.3,.16-.57,.36-.8,.59-1.73,1.73-1.76,3.44-.09,5.11h0c.33,.33,.71,.59,1.16,.78,.42,.18,.87,.28,1.33,.28,18.49,.06,31.5,1.4,39.02,4.03h0l-27.27,16.89h0c-2.63,1.06-4.29,1.69-4.96,1.89h0c-2.59,.11-6.52,.72-11.81,1.83-1.67,.35-2.81,1.9-2.64,3.6s1.58,3,3.29,3.02c18.37,.24,28.94,.71,31.69,1.42h0c1.77,1.1,6.34,3.29,13.69,6.56h0c3.07,2.73,6.92,4.92,11.53,6.58h0c.34,.27,.65,.52,.92,.75h0l-7.64,6.36h0l-4.93,3.18h0l-29.76,15.64h0c-8.99,3.25-14.38,5.72-16.17,7.4h0c-.12,.12-.24,.23-.34,.35-1.24,1.37-1.14,3.48,.23,4.73,.64,.58,1.45,.87,2.25,.87,.9,0,1.79-.36,2.45-1.06h0c1.14-1.07,5.84-3.09,14.09-6.07,.14-.05,.28-.11,.42-.19l30.09-15.81c.09-.05,.17-.1,.26-.15l5.23-3.38c.11-.07,.22-.15,.33-.24l10.11-8.42c.29-.24,.53-.53,.73-.85,.85-1.42,.77-2.93-.26-4.54h0c-.71-1.12-2.14-2.51-4.29-4.19-.29-.23-.61-.4-.96-.52-4.18-1.45-7.56-3.37-10.14-5.75-.27-.25-.58-.45-.91-.6-7.92-3.52-12.38-5.64-13.39-6.36h0c-.28-.22-.6-.39-.94-.51h0c-1.55-.55-5.63-.99-12.25-1.31h0l30.02-18.59c.95-.59,1.54-1.61,1.58-2.72s-.47-2.18-1.38-2.83c-6.22-4.52-19.6-7.05-40.15-7.6h0c.41-.44,.84-.91,1.28-1.41,1.24-1.37,1.13-3.49-.25-4.73-.64-.58-1.44-.86-2.24-.86Z"/><path d="M180.72,289.3c-.46,.24-.89,.36-1.31,.36-.05,0-.1,0-.15,0h0c.5,0,1-.13,1.45-.35h0Zm41.07,38.54c.34,.08,.69,.25,1.04,.51h0c-.32-.23-.67-.4-1.05-.51h0Zm-46.77-45.05c-3.17,0-5.89,.31-8.17,.93h0c-.46-.22-.95-.32-1.43-.32-1.12,0-2.22,.57-2.85,1.6-.97,1.58-.47,3.64,2.85,5.1h0l-1.74-.49h0c.93,.57,1.96,.87,3.09,.89h0s.1,0,.15,0c.11,0,.23,0,.34,0,.29-.01,.58-.07,.86-.16,1.77-.57,4.05-.85,6.85-.85,1.21,0,2.52,.05,3.93,.16h0c.9,.49,2.68,1.82,5.35,3.98h0c.48,1.01,.96,3.36,1.42,7.03h0c.07,6.36,.44,11.29,1.12,14.8h0c-2.52,1.04-4.19,1.86-5.04,2.44h0c-7.87,4.85-13.51,8.78-16.92,11.8-1.2,1.06-1.48,2.83-.66,4.22,.62,1.04,1.72,1.64,2.88,1.64,.38,0,.77-.07,1.14-.2,1.25-.45,4.28-.86,9.08-1.21h0l8.52,.55c.07,0,.14,0,.21,0,.09,0,.17,0,.26-.01l9.76-.76h0c4.63,.35,10.57,.53,17.81,.53,2.11,0,4.33-.02,6.67-.05h0c.25,.04,.52,.06,.8,.06h.06c1.12-.01,3.49-.42,7.13-1.24h0c.36,4.17,.38,10.71,.04,19.62h0l-.73,3.91h0c-.22,.19-.53,.43-.92,.73-.04,.03-.07,.06-.11,.09-3.1,2.54-6.84,3.82-11.22,3.82h-.23c-.72,.02-1.39,.03-2.02,.03-1.47,0-2.7-.06-3.7-.18h0c-6.64-1.39-13.58-2.3-20.81-2.75-.07,0-.14,0-.21,0-1.76,0-3.23,1.37-3.34,3.14-.11,1.84,1.29,3.43,3.14,3.54,6.95,.42,13.61,1.31,19.97,2.64,.09,.02,.18,.03,.27,.05,1.3,.16,2.86,.25,4.7,.25,.68,0,1.39-.01,2.14-.03h0s.06,0,.08,0c5.92,0,11.04-1.75,15.36-5.25h0c1.03-.78,1.79-1.44,2.26-1.98h0c.59-.67,.95-1.37,1.08-2.11h0l.92-4.95c.03-.16,.05-.32,.05-.48,.44-11.38,.3-19.23-.4-23.55h0c0-.1-.01-.2-.03-.3h0c-.28-2.1-1.61-3.2-4-3.31h0c-.1,0-.21,0-.32,0-.42,0-.9,.03-1.42,.1h0c-.11,.01-.22,.03-.32,.06-3.84,.89-6.25,1.38-7.22,1.45h0c-.2-.04-.41-.06-.62-.06h-.05c-2.47,.03-4.81,.05-7.03,.05-7.19,0-13.03-.18-17.53-.53-.09,0-.17-.01-.26-.01s-.17,0-.26,.01l-9.79,.76h0l-6.94-.45h0c1.91-1.25,4.02-2.6,6.35-4.03,.07-.04,.13-.08,.19-.13h0c.54-.38,2.21-1.13,5.01-2.26h0c.14-.06,.28-.12,.42-.2,1.55-.88,2.41-2.28,2.59-4.18h0c.04-.44,.04-.9,0-1.38h0c-.01-.15-.04-.3-.07-.45-.71-3.12-1.09-7.98-1.15-14.57,0-.13,0-.26-.03-.39-.65-5.14-1.51-8.55-2.6-10.24h0c-.08-.12-.16-.23-.24-.34h0c-.17-.22-.36-.42-.57-.6-3.75-3.06-6.33-4.88-7.73-5.47h0c-.64-.27-1.24-.4-1.82-.4-.12,0-.24,0-.35,.02h0c-1.4-.1-2.72-.15-3.98-.15Z"/><path d="M51.15,156.98c.25,.12,.52,.2,.79,.25h0c-.26-.04-.52-.12-.8-.25h0Zm24.83-16c-1.12,0-2.21,.56-2.85,1.58-1.87,3.02-3.06,4.81-3.55,5.37h0l-5.07,4.21h0c-.43,.05-.87,.07-1.31,.07-.32,0-.65-.01-.97-.04h0c-4.21-1.07-7.27-1.61-9.16-1.61-.14,0-.28,0-.4,0h0c-.12,0-.25-.01-.37-.01-.06,0-.13,0-.19,0h0c-1.12,.04-3.98,.55-8.57,1.52h0c-1.65-.08-3.13-.13-4.43-.13-2.75,0-4.7,.19-5.85,.56h0c-1.06,.35-1.86,.91-2.4,1.69-.04,.06-.08,.11-.11,.17-1.69,2.81-4.07,5.7-7.15,8.67h0c-6.69,5.06-12.5,10.26-17.45,15.6l-.06,.07c-2.73,3.11-4.67,5.99-5.8,8.63-.73,1.7,.06,3.67,1.76,4.39,.43,.18,.88,.27,1.32,.27,1.3,0,2.53-.76,3.08-2.03,.84-1.97,2.38-4.23,4.62-6.78h0c4.72-5.09,10.3-10.07,16.74-14.94,.1-.08,.2-.16,.3-.25,3.24-3.11,5.85-6.19,7.81-9.25h0c.61-.09,1.51-.13,2.69-.13,1.32,0,2.99,.05,5.01,.16,.06,0,.12,0,.18,0,.23,0,.47-.02,.7-.07,4.19-.89,6.75-1.38,7.68-1.46h0c.13,.02,.26,.02,.39,.02,.15,0,.29,0,.44-.03h0c.09-.01,.2-.02,.32-.02,1.16,0,3.66,.5,7.51,1.49,.17,.04,.35,.07,.52,.09,.62,.06,1.24,.09,1.85,.09,1.12,0,2.22-.1,3.31-.29,.57-.1,1.11-.35,1.56-.72l5.94-4.94s.07-.06,.1-.09c.12-.11,.24-.22,.36-.36h0c.76-.82,2.21-2.96,4.36-6.43,.97-1.57,.49-3.63-1.08-4.61-.55-.34-1.16-.5-1.76-.5Z"/><path d="M238.24,158.18c-.12,.06-.25,.11-.37,.15h0c.12-.04,.25-.09,.36-.15h0Zm29.66,7.13c-.31,.12-.61,.28-.88,.49h0c.29-.23,.58-.39,.88-.49h0Zm-21.5-15.44c-.24,0-.48,.02-.74,.05h0c-.97,.13-2.37,.57-4.21,1.32h0c-2.77,.27-4.49,.47-5.15,.6h0c-.22,.04-.42,.1-.61,.17h0c-3.39,1-6.3,1.78-8.74,2.34h0l-9.69,1.78c-.2,.04-.39,.09-.57,.16l-20.27,7.62h0l-4.88,1.36c-.08,.02-.17,.05-.25,.08-1.57,.57-3.22,1.34-4.95,2.3-1.62,.9-2.2,2.94-1.3,4.55,.61,1.1,1.75,1.72,2.93,1.72,.55,0,1.11-.14,1.62-.42,1.37-.76,2.66-1.37,3.86-1.82h0l4.91-1.37c.09-.03,.19-.06,.28-.09l20.13-7.57,9.49-1.74s.09-.02,.14-.03c2.62-.6,5.73-1.43,9.33-2.5h.02c.57-.11,2.19-.28,4.85-.53,.34-.03,.67-.12,.98-.25,1.41-.59,2.36-.94,2.86-1.03h0c.06,0,.11,0,.17,0,.03,0,.05,0,.08,0h.02l3.07,2.33c.22,.17,.46,.31,.72,.41,2.6,1.1,4.25,1.87,4.95,2.31h0c3.04,2.77,5.98,5.21,8.82,7.33h0c.26,.23,.68,.74,1.28,1.54h0c.19,.25,.42,.48,.67,.67,.82,.62,1.64,.92,2.44,.92,.87,0,1.73-.36,2.58-1.07,1.42-1.18,1.61-3.29,.43-4.71-.48-.57-1.11-.95-1.78-1.11h0c-.53-.62-1-1.11-1.41-1.45h0s-.07-.06-.11-.09l-.07-.06c-2.73-2.03-5.58-4.4-8.53-7.1-.11-.1-.23-.2-.35-.28-.94-.65-2.9-1.61-5.89-2.89h0l-3.19-2.42s-.04-.03-.05-.04h0s.11,.1,.38,.32h0l-.58-.46c-.6-.37-1.29-.62-2.06-.75h0c-.38-.06-.78-.09-1.21-.1h0c-.12,0-.24-.01-.36-.01Z"/></g></g></svg>