<?xml version="1.0" encoding="UTF-8"?><svg id="Layer_2" xmlns="http://www.w3.org/2000/svg" viewBox="0 0 137.17 72.44"><g id="Layer_1-2"><g id="layer4"><path d="M97.09,22.92h0Zm-51.7,.45c.22,0,.44,.03,.65,.08h0c-.21-.05-.43-.08-.65-.08-.03,0-.05,0-.08,0h0s.06,0,.09,0Zm1.63,.54c.88,.59,1.26,1.33,1.13,2.23h0c0-.62-.21-1.23-.6-1.72-.16-.2-.33-.37-.53-.51h0Zm32.51-15.48c5.76,.46,9.63,1.7,11.62,3.71h0c1.6,1.62,2.78,3.14,3.53,4.56h0c1.69,3.27,2.48,5.36,2.39,6.27h0c-.18,.82,.03,1.64,.51,2.27h0c-1.02,.32-1.8,1.21-1.92,2.34-.42,3.84-.79,6.14-1.12,6.89h0c-1.72,2.94-3.01,4.63-3.86,5.07-.09,.05-.17,.1-.26,.15-.74,.49-1.23,.8-1.49,.92h0s-.06,.02-.09,.03l-14.76,5.32c-.07,.02-.13,.05-.19,.08h0c-.93,.15-3.32,.35-7.18,.6h0l-8.34-1.46h0c-3-1.34-4.83-2.32-5.48-2.91h0c-.12-.22-.26-.42-.44-.6-4.33-4.54-5.78-9.48-4.37-14.82,.04-.15,.07-.31,.08-.46h0c.36-.84,1.36-2.74,2.99-5.69h0c3.84-4.55,6.24-7.11,7.2-7.71h0c.08-.04,.16-.07,.23-.12,2.19-1.23,3.54-1.95,4.06-2.15h.04l5.71-1.52h0l11.17-.77h0Zm-5.82,37.69c-.67,.35-1.17,.97-1.37,1.72-.06,.2-.09,.41-.1,.62h0c0-1.19,.49-1.96,1.47-2.33h0ZM79.55,2.88c-.06,0-.13,0-.19,0l-11.64,.8c-.18,.01-.35,.04-.52,.09l-5.91,1.57h0c-.15,.04-.31,.08-.48,.14h0c-.75,.27-2.37,1.1-4.86,2.5h0c-.13,.06-.25,.13-.38,.2h0c-1.49,.88-4.43,3.92-8.83,9.13-.12,.14-.22,.29-.3,.44-2.11,3.81-3.33,6.2-3.65,7.16h0c-.14,.42-.22,.82-.23,1.18h0c-1.62,6.94,.25,13.3,5.61,19.07h0c.16,.26,.35,.52,.59,.77h0c1.08,1.15,3.64,2.63,7.68,4.42,.21,.09,.42,.16,.65,.2l9.01,1.57c.16,.03,.32,.04,.48,.04,.06,0,.12,0,.18,0,4.82-.32,7.7-.58,8.65-.8h0c.44-.1,.82-.24,1.14-.42h0l14.08-5.07h0c.18-.05,.36-.12,.56-.21h0c.49-.22,1.22-.65,2.2-1.3h0c1.75-.97,3.72-3.31,5.91-7.02h0c.12-.18,.22-.38,.32-.59h0c.57-1.27,1.1-4.13,1.59-8.59,.08-.74-.14-1.44-.55-1.98h0c.91-.28,1.64-1.02,1.87-2.01,.05-.2,.08-.41,.11-.63h0c.21-2.01-.78-5.15-2.99-9.42l-.02-.03c-1.01-1.9-2.5-3.84-4.48-5.84h0c-2.98-3.03-8.09-4.82-15.34-5.37-.07,0-.14,0-.21,0Z"/><path d="M104.71,27.39s.07,0,.11,0h0s-.07,0-.11,0h0Zm-1.59-5.64c-1.34,0-2.43,.17-3.28,.5h0c-.52,.2-.97,.47-1.35,.79h0c-1.16,.99-1.3,2.74-.31,3.9,.55,.64,1.32,.97,2.1,.97,.57,0,1.14-.17,1.63-.53h0c.22-.07,.59-.1,1.11-.1,.16,0,.33,0,.51,0h0c.33,.01,.64,.04,.94,.07,.06,0,.11,.01,.17,.02h0c.27,.03,1.07,.17,2.4,.39h0s.09,.01,.13,.02h0c.29,.04,1.37,.16,3.25,.35h.02c.59,.06,1.18,.1,1.76,.13h.04c1.86,.07,3.2,.14,4.01,.19h.02c.63,.04,1.49,.1,2.59,.2h0c.8,.07,1.61,.15,2.44,.24h0c2.52,.31,4.83,.56,6.94,.77h0c.86,.09,1.56,.15,2.11,.19h.02c.23,.01,.46,.02,.69,.02,1.41,0,2.83-.25,4.27-.75,1.44-.5,2.21-2.08,1.71-3.52-.4-1.14-1.47-1.86-2.61-1.86-.3,0-.61,.05-.9,.15-.85,.29-1.67,.44-2.46,.44-.11,0-.23,0-.34,0h0c-.48-.03-1.12-.09-1.91-.17h0c-2.08-.21-4.36-.46-6.86-.77h-.05c-.86-.1-1.71-.18-2.55-.25h-.02c-1.13-.1-2.04-.17-2.71-.21h0c-.85-.06-2.23-.12-4.13-.19h0c-.49-.03-.99-.06-1.49-.11h0c-1.73-.18-2.74-.28-3.01-.32h0c-1.5-.26-2.41-.41-2.74-.44h0s-.08,0-.12-.01h0c-.44-.05-.9-.09-1.37-.11h0c-.2,0-.4-.01-.6-.01Z"/><path d="M96.78,37.13c-.67,0-1.35,.24-1.88,.74-1.12,1.04-1.19,2.79-.14,3.91,.05,.06,.11,.12,.17,.18h0c.84,.82,3.09,2.3,6.76,4.46h0c.64,.46,1.36,1.08,2.16,1.86l.06,.05c3.57,3.26,6.57,6.85,9.01,10.76,.52,.84,1.43,1.3,2.35,1.3,.5,0,1.01-.14,1.46-.42,1.3-.81,1.69-2.51,.89-3.81-2.69-4.32-6-8.28-9.91-11.87h0c-1.05-1.01-2.02-1.84-2.91-2.47-.07-.05-.13-.09-.2-.13-3.3-1.93-5.22-3.16-5.77-3.68h0c-.55-.59-1.29-.88-2.03-.88Z"/><path d="M93.64,64.01h0c.51,.74,1.36,1.19,2.27,1.19,.08,0,.16,0,.24-.01h0c-.12,.01-.25,.02-.36,.02-.96,0-1.67-.4-2.16-1.2h0Zm-10.52-19.14c-.3,0-.6,.05-.89,.15-1.45,.49-2.22,2.07-1.73,3.51,.26,.76,.74,1.39,1.43,1.9,.09,.07,.18,.13,.28,.18h0c2.08,1.17,3.36,1.94,3.83,2.32h0c.08,.1,.17,.2,.27,.29,1.33,1.22,2.63,2.74,3.91,4.58,.07,.11,.15,.21,.24,.3h0c.49,.54,1.47,2.37,2.93,5.5,.06,.12,.12,.23,.19,.34h0c.32,.66,1.27,2.92,2.87,6.78,.44,1.07,1.47,1.71,2.56,1.71,.35,0,.71-.07,1.06-.21,1.41-.58,2.08-2.2,1.5-3.61-1.77-4.28-2.82-6.73-3.13-7.34h0c-.03-.06-.07-.13-.1-.19h0c-1.58-3.36-2.79-5.54-3.64-6.55h0c-1.43-2.04-2.91-3.77-4.44-5.2h0c-.13-.16-.28-.31-.45-.46h0c-.66-.59-2.13-1.53-4.42-2.82h0c-.52-.74-1.37-1.18-2.27-1.18Z"/><path d="M3.03,47.43c.83,0,1.48,.33,1.97,1h0c-.52-.61-1.29-.99-2.12-.99-.16,0-.33,.01-.5,.04,.22-.04,.44-.06,.64-.06Zm2.57,2.28h0c.29,1.06,0,1.91-.87,2.56h0c.69-.62,1.05-1.57,.87-2.55h0Zm41.9-15.53c-.32,0-.64,.06-.96,.17-.57,.21-.95,.32-1.16,.34h0s-.06,0-.05,0c.01,0,.06,0,.15,0h0l-.31,.02c-1.21,.14-3.59,.23-7.14,.28-.07,0-.14,0-.2,.01-1.49,.13-3.82,.38-6.98,.76l-.23,.04,.22-.04h0c-2,.24-4.32,.74-6.96,1.48h-.04l-.05,.03c-2.52,.8-5.33,1.88-8.44,3.25h-.02c-.82,.35-3.67,1.91-8.53,4.69h0c-2.96,1.37-4.7,2.21-5.22,2.51h0c-1.54,.9-1.96,2.11-1.25,3.65h0c.5,1.08,1.29,1.62,2.36,1.62,.21,0,.44-.02,.67-.06,.46-.08,.87-.27,1.21-.54h0c.62-.32,2.17-1.06,4.66-2.21h0c.07-.03,.14-.07,.21-.11,4.7-2.68,7.37-4.16,8.02-4.44h0l.11-.05c2.91-1.28,5.52-2.29,7.84-3.03h0c2.36-.66,4.39-1.1,6.09-1.31h0c3.03-.36,5.27-.6,6.71-.73h0c3.59-.05,6.09-.15,7.49-.3h0c.06,0,.13,0,.19-.01h0c.69-.06,1.54-.29,2.56-.66h0c1.43-.53,2.17-2.12,1.64-3.55-.41-1.12-1.47-1.81-2.6-1.81Z"/><path d="M20.97,20.69c-.1,0-.21,0-.31,0h-.02c-5.23,.06-9.77,.76-13.63,2.08-1.45,.5-2.21,2.07-1.72,3.52,.39,1.15,1.47,1.87,2.62,1.87,.3,0,.6-.05,.9-.15,3.3-1.13,7.26-1.73,11.89-1.78h0c.09,0,.18,0,.28,0,2.02,0,4.33,.14,6.93,.41,.05,0,.1,0,.14,.01,.71,.04,3.5,.5,8.39,1.4h0s.06,.01,.09,.02h0c.5,.08,1.69,.19,3.59,.33h0c.47,.03,.92,.05,1.38,.05,.54,0,1.06-.02,1.58-.07h0c.66-.04,1.48-.18,2.46-.42,1.48-.36,2.39-1.86,2.03-3.35-.31-1.26-1.44-2.11-2.69-2.11-.22,0-.44,.03-.66,.08-.67,.16-1.16,.25-1.49,.27h-.1c-.37,.04-.75,.06-1.14,.06-.33,0-.66-.01-.99-.03h0c-1.69-.12-2.7-.2-3.03-.26h-.04c-4.96-.92-7.96-1.41-9-1.49h0c-2.77-.29-5.26-.43-7.46-.43Z"/><path d="M50.13,11.07c-.43,.39-.73,.92-.85,1.53,.14-.74,.42-1.25,.85-1.53h0ZM8.44,0c-.46,0-.91,.02-1.36,.06-1.52,.14-2.65,1.48-2.51,3,.13,1.44,1.34,2.52,2.75,2.52,.08,0,.17,0,.25-.01,.28-.03,.57-.04,.86-.04,.98,0,2.02,.14,3.14,.42h.01c4.63,1.13,9.23,2.36,13.79,3.7,.06,.02,.12,.03,.19,.05l11.49,2.52,.27,.07h.03c2.51,.59,6.68,1.88,12.51,3.87l.09,.03c.11,.03,.21,.06,.32,.09h0c.09,.02,.18,.04,.27,.06h0c.39,.07,.76,.11,1.1,.11,1.71,0,2.74-.93,3.09-2.8,.28-1.5-.71-2.95-2.21-3.23-.17-.03-.34-.05-.51-.05-.42,0-.83,.1-1.2,.28h0c-5.55-1.88-9.61-3.11-12.16-3.72h0l-.3-.07-.07-.02-11.42-2.5h0c-4.61-1.35-9.25-2.59-13.93-3.73h0c-1.55-.39-3.04-.58-4.47-.58Z"/><path d="M66.72,25.7c-.25,0-.5,.03-.75,.1-1.47,.41-2.33,1.94-1.92,3.41,.49,1.75,1.05,3.05,1.67,3.89h0c.45,.61,.97,1.05,1.56,1.32h0l.04,.03h0c.34,.2,.75,.4,1.24,.59h0c.08,.03,.16,.06,.25,.09,1.8,.52,2.9,.86,3.29,1.01h0l2.96,1.66h0c.43,.24,.87,.39,1.34,.46h0c.17,.03,.34,.04,.52,.04,.51,0,1.04-.12,1.59-.35h0c.07-.03,.14-.06,.2-.09h0s.09-.05,.14-.07c1.93-1.05,3.74-1.96,5.45-2.74h0c1.39-.52,2.26-.87,2.62-1.03h0c.08-.04,.15-.07,.22-.11h0c.77-.39,1.39-.82,1.88-1.29h0c.3-.29,.55-.6,.76-.93h0c.81-1.3,.41-3-.89-3.81-.45-.28-.96-.42-1.46-.42-.89,0-1.76,.43-2.29,1.21h0c-.1,.08-.27,.18-.52,.31-.04,.02-.07,.04-.11,.06h0c-.29,.13-1.03,.41-2.22,.86-.06,.02-.12,.05-.17,.07-1.63,.74-3.34,1.59-5.15,2.55h0l-2.28-1.28-.1-.05c-.09-.05-.2-.1-.31-.14h0c-.5-.21-1.76-.6-3.77-1.18h0c-.13-.05-.22-.09-.28-.13h0c-.05-.04-.1-.07-.16-.11h0c-.19-.35-.42-.98-.67-1.9-.34-1.22-1.45-2.02-2.66-2.02Z"/><path d="M61.7,14.18c-.64,0-1.28,.22-1.8,.67l-.87,.75c-1.16,.99-1.29,2.74-.3,3.9,.55,.64,1.32,.97,2.1,.97,.64,0,1.28-.22,1.8-.67l.87-.75c1.16-.99,1.29-2.74,.3-3.9-.55-.64-1.32-.97-2.1-.97Z"/><path d="M88.67,14.87h0l.48,.49c1.07,1.09,1.05,2.84-.04,3.91-1.09,1.07-2.84,1.05-3.91-.04h0l-.48-.49c-1.07-1.09-1.05-2.84,.04-3.91,1.09-1.07,2.84-1.05,3.91,.04Z"/></g></g></svg>